%TF.GenerationSoftware,KiCad,Pcbnew,(5.1.10)-1*%
%TF.CreationDate,2021-09-29T15:51:44-06:00*%
%TF.ProjectId,VColMX44,56436f6c-4d58-4343-942e-6b696361645f,rev?*%
%TF.SameCoordinates,Original*%
%TF.FileFunction,Soldermask,Top*%
%TF.FilePolarity,Negative*%
%FSLAX46Y46*%
G04 Gerber Fmt 4.6, Leading zero omitted, Abs format (unit mm)*
G04 Created by KiCad (PCBNEW (5.1.10)-1) date 2021-09-29 15:51:44*
%MOMM*%
%LPD*%
G01*
G04 APERTURE LIST*
%ADD10C,2.200000*%
%ADD11C,3.000000*%
%ADD12C,1.750000*%
%ADD13C,4.000000*%
G04 APERTURE END LIST*
D10*
%TO.C,H13*%
X167000000Y-105000000D03*
%TD*%
%TO.C,H12*%
X133000000Y-105000000D03*
%TD*%
%TO.C,H11*%
X175000000Y-54000000D03*
%TD*%
%TO.C,H10*%
X125000000Y-54000000D03*
%TD*%
%TO.C,H9*%
X241000000Y-54000000D03*
%TD*%
%TO.C,H8*%
X59000000Y-54000000D03*
%TD*%
%TO.C,H7*%
X263000000Y-90000000D03*
%TD*%
%TO.C,H6*%
X37000000Y-90000000D03*
%TD*%
%TO.C,H5*%
X269000000Y-129000000D03*
%TD*%
%TO.C,H4*%
X31000000Y-129000000D03*
%TD*%
%TO.C,H3*%
X217000000Y-138000000D03*
%TD*%
%TO.C,H2*%
X83000000Y-138000000D03*
%TD*%
%TO.C,H1*%
X150000000Y-144000000D03*
%TD*%
D11*
%TO.C,U1*%
X47865908Y-67710508D03*
X54560503Y-66311762D03*
D12*
X46246629Y-62266618D03*
X56252275Y-64030884D03*
D13*
X51249452Y-63148751D03*
%TD*%
D11*
%TO.C,U2*%
X67098200Y-68055400D03*
X73792795Y-66656654D03*
D12*
X65478921Y-62611510D03*
X75484567Y-64375776D03*
D13*
X70481744Y-63493643D03*
%TD*%
%TO.C,U3*%
X90061332Y-61868920D03*
D12*
X95064155Y-62751053D03*
X85058509Y-60986787D03*
D11*
X93372383Y-65031931D03*
X86677788Y-66430677D03*
%TD*%
%TO.C,U4*%
X104347246Y-75638839D03*
X111041841Y-74240093D03*
D12*
X102727967Y-70194949D03*
X112733613Y-71959215D03*
D13*
X107730790Y-71077082D03*
%TD*%
D11*
%TO.C,U5*%
X122016704Y-84847001D03*
X128711299Y-83448255D03*
D12*
X120397425Y-79403111D03*
X130403071Y-81167377D03*
D13*
X125400248Y-80285244D03*
%TD*%
D11*
%TO.C,U6*%
X134650366Y-122614588D03*
X141344961Y-121215842D03*
D12*
X133031087Y-117170698D03*
X143036733Y-118934964D03*
D13*
X138033910Y-118052831D03*
%TD*%
%TO.C,U7*%
X174599752Y-80285244D03*
D12*
X179602575Y-79403111D03*
X169596929Y-81167377D03*
D11*
X178792936Y-82125056D03*
X172980473Y-85729134D03*
%TD*%
%TO.C,U8*%
X190649931Y-76520972D03*
X196462394Y-72916894D03*
D12*
X187266387Y-71959215D03*
X197272033Y-70194949D03*
D13*
X192269210Y-71077082D03*
%TD*%
D11*
%TO.C,U9*%
X208319389Y-67312810D03*
X214131852Y-63708732D03*
D12*
X204935845Y-62751053D03*
X214941491Y-60986787D03*
D13*
X209938668Y-61868920D03*
%TD*%
%TO.C,U10*%
X229518256Y-63493643D03*
D12*
X234521079Y-62611510D03*
X224515433Y-64375776D03*
D11*
X233711440Y-65333455D03*
X227898977Y-68937533D03*
%TD*%
D13*
%TO.C,U11*%
X248750548Y-63148751D03*
D12*
X253753371Y-62266618D03*
X243747725Y-64030884D03*
D11*
X252943732Y-64988563D03*
X247131269Y-68592641D03*
%TD*%
%TO.C,U12*%
X44566593Y-86421856D03*
X51261188Y-85023110D03*
D12*
X42947314Y-80977966D03*
X52952960Y-82742232D03*
D13*
X47950137Y-81860099D03*
%TD*%
D11*
%TO.C,U13*%
X63798884Y-86766748D03*
X70493479Y-85368002D03*
D12*
X62179605Y-81322858D03*
X72185251Y-83087124D03*
D13*
X67182428Y-82204991D03*
%TD*%
%TO.C,U14*%
X86762017Y-80580269D03*
D12*
X91764840Y-81462402D03*
X81759194Y-79698136D03*
D11*
X90073068Y-83743280D03*
X83378473Y-85142026D03*
%TD*%
D13*
%TO.C,U15*%
X104431475Y-89788429D03*
D12*
X109434298Y-90670562D03*
X99428652Y-88906296D03*
D11*
X107742526Y-92951440D03*
X101047931Y-94350186D03*
%TD*%
%TO.C,U16*%
X118717389Y-103558348D03*
X125411984Y-102159602D03*
D12*
X117098110Y-98114458D03*
X127103756Y-99878724D03*
D13*
X122100933Y-98996591D03*
%TD*%
D11*
%TO.C,U17*%
X131351050Y-141325935D03*
X138045645Y-139927189D03*
D12*
X129731771Y-135882045D03*
X139737417Y-137646311D03*
D13*
X134734594Y-136764178D03*
%TD*%
%TO.C,U18*%
X177899067Y-98996591D03*
D12*
X182901890Y-98114458D03*
X172896244Y-99878724D03*
D11*
X182092251Y-100836403D03*
X176279788Y-104440481D03*
%TD*%
%TO.C,U19*%
X193949246Y-95232319D03*
X199761709Y-91628241D03*
D12*
X190565702Y-90670562D03*
X200571348Y-88906296D03*
D13*
X195568525Y-89788429D03*
%TD*%
D11*
%TO.C,U20*%
X211618704Y-86024159D03*
X217431167Y-82420081D03*
D12*
X208235160Y-81462402D03*
X218240806Y-79698136D03*
D13*
X213237983Y-80580269D03*
%TD*%
%TO.C,U21*%
X232817572Y-82204991D03*
D12*
X237820395Y-81322858D03*
X227814749Y-83087124D03*
D11*
X237010756Y-84044803D03*
X231198293Y-87648881D03*
%TD*%
D13*
%TO.C,U22*%
X252049863Y-81860099D03*
D12*
X257052686Y-80977966D03*
X247047040Y-82742232D03*
D11*
X256243047Y-83699911D03*
X250430584Y-87303989D03*
%TD*%
%TO.C,U23*%
X41267277Y-105133203D03*
X47961872Y-103734457D03*
D12*
X39647998Y-99689313D03*
X49653644Y-101453579D03*
D13*
X44650821Y-100571446D03*
%TD*%
D11*
%TO.C,U24*%
X60499567Y-105478095D03*
X67194162Y-104079349D03*
D12*
X58880288Y-100034205D03*
X68885934Y-101798471D03*
D13*
X63883111Y-100916338D03*
%TD*%
D11*
%TO.C,U25*%
X80079157Y-103853372D03*
X86773752Y-102454626D03*
D12*
X78459878Y-98409482D03*
X88465524Y-100173748D03*
D13*
X83462701Y-99291615D03*
%TD*%
D11*
%TO.C,U26*%
X97748615Y-113061534D03*
X104443210Y-111662788D03*
D12*
X96129336Y-107617644D03*
X106134982Y-109381910D03*
D13*
X101132159Y-108499777D03*
%TD*%
%TO.C,U27*%
X118801618Y-117707938D03*
D12*
X123804441Y-118590071D03*
X113798795Y-116825805D03*
D11*
X122112669Y-120870949D03*
X115418074Y-122269695D03*
%TD*%
D13*
%TO.C,U28*%
X161966090Y-118052831D03*
D12*
X166968913Y-117170698D03*
X156963267Y-118934964D03*
D11*
X166159274Y-119892643D03*
X160346811Y-123496721D03*
%TD*%
D13*
%TO.C,U29*%
X181198382Y-117707938D03*
D12*
X186201205Y-116825805D03*
X176195559Y-118590071D03*
D11*
X185391566Y-119547750D03*
X179579103Y-123151828D03*
%TD*%
%TO.C,U30*%
X197248562Y-113943667D03*
X203061025Y-110339589D03*
D12*
X193865018Y-109381910D03*
X203870664Y-107617644D03*
D13*
X198867841Y-108499777D03*
%TD*%
%TO.C,U31*%
X216537299Y-99291615D03*
D12*
X221540122Y-98409482D03*
X211534476Y-100173748D03*
D11*
X220730483Y-101131427D03*
X214918020Y-104735505D03*
%TD*%
D13*
%TO.C,U32*%
X236116889Y-100916338D03*
D12*
X241119712Y-100034205D03*
X231114066Y-101798471D03*
D11*
X240310073Y-102756150D03*
X234497610Y-106360228D03*
%TD*%
D13*
%TO.C,U33*%
X255349179Y-100571446D03*
D12*
X260352002Y-99689313D03*
X250346356Y-101453579D03*
D11*
X259542363Y-102411258D03*
X253729900Y-106015336D03*
%TD*%
D13*
%TO.C,U34*%
X41351506Y-119282793D03*
D12*
X46354329Y-120164926D03*
X36348683Y-118400660D03*
D11*
X44662557Y-122445804D03*
X37967962Y-123844550D03*
%TD*%
D13*
%TO.C,U35*%
X60583798Y-119627685D03*
D12*
X65586621Y-120509818D03*
X55580975Y-118745552D03*
D11*
X63894849Y-122790696D03*
X57200254Y-124189442D03*
%TD*%
%TO.C,U36*%
X76779842Y-122564719D03*
X83474437Y-121165973D03*
D12*
X75160563Y-117120829D03*
X85166209Y-118885095D03*
D13*
X80163386Y-118002962D03*
%TD*%
D11*
%TO.C,U37*%
X94449300Y-131772881D03*
X101143895Y-130374135D03*
D12*
X92830021Y-126328991D03*
X102835667Y-128093257D03*
D13*
X97832844Y-127211124D03*
%TD*%
%TO.C,U38*%
X115502302Y-136419286D03*
D12*
X120505125Y-137301419D03*
X110499479Y-135537153D03*
D11*
X118813353Y-139582297D03*
X112118758Y-140981043D03*
%TD*%
D13*
%TO.C,U39*%
X165265406Y-136764178D03*
D12*
X170268229Y-135882045D03*
X160262583Y-137646311D03*
D11*
X169458590Y-138603990D03*
X163646127Y-142208068D03*
%TD*%
%TO.C,U40*%
X182878419Y-141863176D03*
X188690882Y-138259098D03*
D12*
X179494875Y-137301419D03*
X189500521Y-135537153D03*
D13*
X184497698Y-136419286D03*
%TD*%
D11*
%TO.C,U41*%
X200547877Y-132655014D03*
X206360340Y-129050936D03*
D12*
X197164333Y-128093257D03*
X207169979Y-126328991D03*
D13*
X202167156Y-127211124D03*
%TD*%
%TO.C,U42*%
X219836614Y-118002962D03*
D12*
X224839437Y-117120829D03*
X214833791Y-118885095D03*
D11*
X224029798Y-119842774D03*
X218217335Y-123446852D03*
%TD*%
D13*
%TO.C,U43*%
X239416202Y-119627685D03*
D12*
X244419025Y-118745552D03*
X234413379Y-120509818D03*
D11*
X243609386Y-121467497D03*
X237796923Y-125071575D03*
%TD*%
D13*
%TO.C,U44*%
X258648494Y-119282793D03*
D12*
X263651317Y-118400660D03*
X253645671Y-120164926D03*
D11*
X262841678Y-121122605D03*
X257029215Y-124726683D03*
%TD*%
M02*
