%TF.GenerationSoftware,KiCad,Pcbnew,(5.1.10)-1*%
%TF.CreationDate,2021-09-29T15:51:44-06:00*%
%TF.ProjectId,VColMX44,56436f6c-4d58-4343-942e-6b696361645f,rev?*%
%TF.SameCoordinates,Original*%
%TF.FileFunction,Paste,Bot*%
%TF.FilePolarity,Positive*%
%FSLAX46Y46*%
G04 Gerber Fmt 4.6, Leading zero omitted, Abs format (unit mm)*
G04 Created by KiCad (PCBNEW (5.1.10)-1) date 2021-09-29 15:51:44*
%MOMM*%
%LPD*%
G01*
G04 APERTURE LIST*
%ADD10C,0.100000*%
%ADD11R,1.000000X1.700000*%
G04 APERTURE END LIST*
D10*
%TO.C,LS1*%
G36*
X133774033Y-65253802D02*
G01*
X133392007Y-67420380D01*
X131225429Y-67038354D01*
X131607455Y-64871776D01*
X133774033Y-65253802D01*
G37*
G36*
X120774571Y-62961646D02*
G01*
X120392545Y-65128224D01*
X118225967Y-64746198D01*
X118607993Y-62579620D01*
X120774571Y-62961646D01*
G37*
%TD*%
D11*
%TO.C,SW1*%
X151900000Y-112150000D03*
X151900000Y-105850000D03*
X148100000Y-112150000D03*
X148100000Y-105850000D03*
%TD*%
D10*
%TO.C,D1*%
G36*
X59200738Y-62661095D02*
G01*
X60382507Y-62869472D01*
X60226224Y-63755799D01*
X59044455Y-63547422D01*
X59200738Y-62661095D01*
G37*
G36*
X59773776Y-59411229D02*
G01*
X60955545Y-59619606D01*
X60799262Y-60505933D01*
X59617493Y-60297556D01*
X59773776Y-59411229D01*
G37*
%TD*%
%TO.C,D2*%
G36*
X78773776Y-59756121D02*
G01*
X79955545Y-59964498D01*
X79799262Y-60850825D01*
X78617493Y-60642448D01*
X78773776Y-59756121D01*
G37*
G36*
X78200738Y-63005987D02*
G01*
X79382507Y-63214364D01*
X79226224Y-64100691D01*
X78044455Y-63892314D01*
X78200738Y-63005987D01*
G37*
%TD*%
%TO.C,D3*%
G36*
X98773776Y-58827715D02*
G01*
X99955545Y-59036092D01*
X99799262Y-59922419D01*
X98617493Y-59714042D01*
X98773776Y-58827715D01*
G37*
G36*
X98200738Y-62077581D02*
G01*
X99382507Y-62285958D01*
X99226224Y-63172285D01*
X98044455Y-62963908D01*
X98200738Y-62077581D01*
G37*
%TD*%
%TO.C,D4*%
G36*
X115487257Y-70934108D02*
G01*
X116669026Y-71142485D01*
X116512743Y-72028812D01*
X115330974Y-71820435D01*
X115487257Y-70934108D01*
G37*
G36*
X116060295Y-67684242D02*
G01*
X117242064Y-67892619D01*
X117085781Y-68778946D01*
X115904012Y-68570569D01*
X116060295Y-67684242D01*
G37*
%TD*%
%TO.C,D5*%
G36*
X134060295Y-77202782D02*
G01*
X135242064Y-77411159D01*
X135085781Y-78297486D01*
X133904012Y-78089109D01*
X134060295Y-77202782D01*
G37*
G36*
X133487257Y-80452648D02*
G01*
X134669026Y-80661025D01*
X134512743Y-81547352D01*
X133330974Y-81338975D01*
X133487257Y-80452648D01*
G37*
%TD*%
%TO.C,D6*%
G36*
X146773776Y-114315308D02*
G01*
X147955545Y-114523685D01*
X147799262Y-115410012D01*
X146617493Y-115201635D01*
X146773776Y-114315308D01*
G37*
G36*
X146200738Y-117565174D02*
G01*
X147382507Y-117773551D01*
X147226224Y-118659878D01*
X146044455Y-118451501D01*
X146200738Y-117565174D01*
G37*
%TD*%
%TO.C,D7*%
G36*
X181044455Y-74036092D02*
G01*
X182226224Y-73827715D01*
X182382507Y-74714042D01*
X181200738Y-74922419D01*
X181044455Y-74036092D01*
G37*
G36*
X181617493Y-77285958D02*
G01*
X182799262Y-77077581D01*
X182955545Y-77963908D01*
X181773776Y-78172285D01*
X181617493Y-77285958D01*
G37*
%TD*%
%TO.C,D8*%
G36*
X198757936Y-64411159D02*
G01*
X199939705Y-64202782D01*
X200095988Y-65089109D01*
X198914219Y-65297486D01*
X198757936Y-64411159D01*
G37*
G36*
X199330974Y-67661025D02*
G01*
X200512743Y-67452648D01*
X200669026Y-68338975D01*
X199487257Y-68547352D01*
X199330974Y-67661025D01*
G37*
%TD*%
%TO.C,D9*%
G36*
X216757936Y-55411159D02*
G01*
X217939705Y-55202782D01*
X218095988Y-56089109D01*
X216914219Y-56297486D01*
X216757936Y-55411159D01*
G37*
G36*
X217330974Y-58661025D02*
G01*
X218512743Y-58452648D01*
X218669026Y-59338975D01*
X217487257Y-59547352D01*
X217330974Y-58661025D01*
G37*
%TD*%
%TO.C,D10*%
G36*
X236044455Y-57411159D02*
G01*
X237226224Y-57202782D01*
X237382507Y-58089109D01*
X236200738Y-58297486D01*
X236044455Y-57411159D01*
G37*
G36*
X236617493Y-60661025D02*
G01*
X237799262Y-60452648D01*
X237955545Y-61338975D01*
X236773776Y-61547352D01*
X236617493Y-60661025D01*
G37*
%TD*%
%TO.C,D11*%
G36*
X253757936Y-55411159D02*
G01*
X254939705Y-55202782D01*
X255095988Y-56089109D01*
X253914219Y-56297486D01*
X253757936Y-55411159D01*
G37*
G36*
X254330974Y-58661025D02*
G01*
X255512743Y-58452648D01*
X255669026Y-59338975D01*
X254487257Y-59547352D01*
X254330974Y-58661025D01*
G37*
%TD*%
%TO.C,D12*%
G36*
X56200738Y-81077581D02*
G01*
X57382507Y-81285958D01*
X57226224Y-82172285D01*
X56044455Y-81963908D01*
X56200738Y-81077581D01*
G37*
G36*
X56773776Y-77827715D02*
G01*
X57955545Y-78036092D01*
X57799262Y-78922419D01*
X56617493Y-78714042D01*
X56773776Y-77827715D01*
G37*
%TD*%
%TO.C,D13*%
G36*
X75200738Y-81077581D02*
G01*
X76382507Y-81285958D01*
X76226224Y-82172285D01*
X75044455Y-81963908D01*
X75200738Y-81077581D01*
G37*
G36*
X75773776Y-77827715D02*
G01*
X76955545Y-78036092D01*
X76799262Y-78922419D01*
X75617493Y-78714042D01*
X75773776Y-77827715D01*
G37*
%TD*%
%TO.C,D14*%
G36*
X94200738Y-80437293D02*
G01*
X95382507Y-80645670D01*
X95226224Y-81531997D01*
X94044455Y-81323620D01*
X94200738Y-80437293D01*
G37*
G36*
X94773776Y-77187427D02*
G01*
X95955545Y-77395804D01*
X95799262Y-78282131D01*
X94617493Y-78073754D01*
X94773776Y-77187427D01*
G37*
%TD*%
%TO.C,D15*%
G36*
X112773776Y-86827715D02*
G01*
X113955545Y-87036092D01*
X113799262Y-87922419D01*
X112617493Y-87714042D01*
X112773776Y-86827715D01*
G37*
G36*
X112200738Y-90077581D02*
G01*
X113382507Y-90285958D01*
X113226224Y-91172285D01*
X112044455Y-90963908D01*
X112200738Y-90077581D01*
G37*
%TD*%
%TO.C,D16*%
G36*
X130200738Y-99077581D02*
G01*
X131382507Y-99285958D01*
X131226224Y-100172285D01*
X130044455Y-99963908D01*
X130200738Y-99077581D01*
G37*
G36*
X130773776Y-95827715D02*
G01*
X131955545Y-96036092D01*
X131799262Y-96922419D01*
X130617493Y-96714042D01*
X130773776Y-95827715D01*
G37*
%TD*%
%TO.C,D17*%
G36*
X143200738Y-136276521D02*
G01*
X144382507Y-136484898D01*
X144226224Y-137371225D01*
X143044455Y-137162848D01*
X143200738Y-136276521D01*
G37*
G36*
X143773776Y-133026655D02*
G01*
X144955545Y-133235032D01*
X144799262Y-134121359D01*
X143617493Y-133912982D01*
X143773776Y-133026655D01*
G37*
%TD*%
%TO.C,D18*%
G36*
X185330974Y-95938941D02*
G01*
X186512743Y-95730564D01*
X186669026Y-96616891D01*
X185487257Y-96825268D01*
X185330974Y-95938941D01*
G37*
G36*
X184757936Y-92689075D02*
G01*
X185939705Y-92480698D01*
X186095988Y-93367025D01*
X184914219Y-93575402D01*
X184757936Y-92689075D01*
G37*
%TD*%
%TO.C,D19*%
G36*
X201757936Y-83411159D02*
G01*
X202939705Y-83202782D01*
X203095988Y-84089109D01*
X201914219Y-84297486D01*
X201757936Y-83411159D01*
G37*
G36*
X202330974Y-86661025D02*
G01*
X203512743Y-86452648D01*
X203669026Y-87338975D01*
X202487257Y-87547352D01*
X202330974Y-86661025D01*
G37*
%TD*%
%TO.C,D20*%
G36*
X220330974Y-77661025D02*
G01*
X221512743Y-77452648D01*
X221669026Y-78338975D01*
X220487257Y-78547352D01*
X220330974Y-77661025D01*
G37*
G36*
X219757936Y-74411159D02*
G01*
X220939705Y-74202782D01*
X221095988Y-75089109D01*
X219914219Y-75297486D01*
X219757936Y-74411159D01*
G37*
%TD*%
%TO.C,D21*%
G36*
X240330974Y-79661025D02*
G01*
X241512743Y-79452648D01*
X241669026Y-80338975D01*
X240487257Y-80547352D01*
X240330974Y-79661025D01*
G37*
G36*
X239757936Y-76411159D02*
G01*
X240939705Y-76202782D01*
X241095988Y-77089109D01*
X239914219Y-77297486D01*
X239757936Y-76411159D01*
G37*
%TD*%
%TO.C,D22*%
G36*
X257617493Y-78285958D02*
G01*
X258799262Y-78077581D01*
X258955545Y-78963908D01*
X257773776Y-79172285D01*
X257617493Y-78285958D01*
G37*
G36*
X257044455Y-75036092D02*
G01*
X258226224Y-74827715D01*
X258382507Y-75714042D01*
X257200738Y-75922419D01*
X257044455Y-75036092D01*
G37*
%TD*%
%TO.C,D23*%
G36*
X52773776Y-96827715D02*
G01*
X53955545Y-97036092D01*
X53799262Y-97922419D01*
X52617493Y-97714042D01*
X52773776Y-96827715D01*
G37*
G36*
X52200738Y-100077581D02*
G01*
X53382507Y-100285958D01*
X53226224Y-101172285D01*
X52044455Y-100963908D01*
X52200738Y-100077581D01*
G37*
%TD*%
%TO.C,D24*%
G36*
X72773776Y-97178815D02*
G01*
X73955545Y-97387192D01*
X73799262Y-98273519D01*
X72617493Y-98065142D01*
X72773776Y-97178815D01*
G37*
G36*
X72200738Y-100428681D02*
G01*
X73382507Y-100637058D01*
X73226224Y-101523385D01*
X72044455Y-101315008D01*
X72200738Y-100428681D01*
G37*
%TD*%
%TO.C,D25*%
G36*
X91773776Y-95827715D02*
G01*
X92955545Y-96036092D01*
X92799262Y-96922419D01*
X91617493Y-96714042D01*
X91773776Y-95827715D01*
G37*
G36*
X91200738Y-99077581D02*
G01*
X92382507Y-99285958D01*
X92226224Y-100172285D01*
X91044455Y-99963908D01*
X91200738Y-99077581D01*
G37*
%TD*%
%TO.C,D26*%
G36*
X109773776Y-105106937D02*
G01*
X110955545Y-105315314D01*
X110799262Y-106201641D01*
X109617493Y-105993264D01*
X109773776Y-105106937D01*
G37*
G36*
X109200738Y-108356803D02*
G01*
X110382507Y-108565180D01*
X110226224Y-109451507D01*
X109044455Y-109243130D01*
X109200738Y-108356803D01*
G37*
%TD*%
%TO.C,D27*%
G36*
X127773776Y-113970416D02*
G01*
X128955545Y-114178793D01*
X128799262Y-115065120D01*
X127617493Y-114856743D01*
X127773776Y-113970416D01*
G37*
G36*
X127200738Y-117220282D02*
G01*
X128382507Y-117428659D01*
X128226224Y-118314986D01*
X127044455Y-118106609D01*
X127200738Y-117220282D01*
G37*
%TD*%
%TO.C,D28*%
G36*
X168617493Y-115285958D02*
G01*
X169799262Y-115077581D01*
X169955545Y-115963908D01*
X168773776Y-116172285D01*
X168617493Y-115285958D01*
G37*
G36*
X168044455Y-112036092D02*
G01*
X169226224Y-111827715D01*
X169382507Y-112714042D01*
X168200738Y-112922419D01*
X168044455Y-112036092D01*
G37*
%TD*%
%TO.C,D29*%
G36*
X188330974Y-114010162D02*
G01*
X189512743Y-113801785D01*
X189669026Y-114688112D01*
X188487257Y-114896489D01*
X188330974Y-114010162D01*
G37*
G36*
X187757936Y-110760296D02*
G01*
X188939705Y-110551919D01*
X189095988Y-111438246D01*
X187914219Y-111646623D01*
X187757936Y-110760296D01*
G37*
%TD*%
%TO.C,D30*%
G36*
X205757936Y-102411159D02*
G01*
X206939705Y-102202782D01*
X207095988Y-103089109D01*
X205914219Y-103297486D01*
X205757936Y-102411159D01*
G37*
G36*
X206330974Y-105661025D02*
G01*
X207512743Y-105452648D01*
X207669026Y-106338975D01*
X206487257Y-106547352D01*
X206330974Y-105661025D01*
G37*
%TD*%
%TO.C,D31*%
G36*
X223757936Y-93411159D02*
G01*
X224939705Y-93202782D01*
X225095988Y-94089109D01*
X223914219Y-94297486D01*
X223757936Y-93411159D01*
G37*
G36*
X224330974Y-96661025D02*
G01*
X225512743Y-96452648D01*
X225669026Y-97338975D01*
X224487257Y-97547352D01*
X224330974Y-96661025D01*
G37*
%TD*%
%TO.C,D32*%
G36*
X242757936Y-94411159D02*
G01*
X243939705Y-94202782D01*
X244095988Y-95089109D01*
X242914219Y-95297486D01*
X242757936Y-94411159D01*
G37*
G36*
X243330974Y-97661025D02*
G01*
X244512743Y-97452648D01*
X244669026Y-98338975D01*
X243487257Y-98547352D01*
X243330974Y-97661025D01*
G37*
%TD*%
%TO.C,D33*%
G36*
X260044455Y-94036092D02*
G01*
X261226224Y-93827715D01*
X261382507Y-94714042D01*
X260200738Y-94922419D01*
X260044455Y-94036092D01*
G37*
G36*
X260617493Y-97285958D02*
G01*
X261799262Y-97077581D01*
X261955545Y-97963908D01*
X260773776Y-98172285D01*
X260617493Y-97285958D01*
G37*
%TD*%
%TO.C,D34*%
G36*
X49200738Y-119077581D02*
G01*
X50382507Y-119285958D01*
X50226224Y-120172285D01*
X49044455Y-119963908D01*
X49200738Y-119077581D01*
G37*
G36*
X49773776Y-115827715D02*
G01*
X50955545Y-116036092D01*
X50799262Y-116922419D01*
X49617493Y-116714042D01*
X49773776Y-115827715D01*
G37*
%TD*%
%TO.C,D35*%
G36*
X68200738Y-119140029D02*
G01*
X69382507Y-119348406D01*
X69226224Y-120234733D01*
X68044455Y-120026356D01*
X68200738Y-119140029D01*
G37*
G36*
X68773776Y-115890163D02*
G01*
X69955545Y-116098540D01*
X69799262Y-116984867D01*
X68617493Y-116776490D01*
X68773776Y-115890163D01*
G37*
%TD*%
%TO.C,D36*%
G36*
X88200738Y-117515305D02*
G01*
X89382507Y-117723682D01*
X89226224Y-118610009D01*
X88044455Y-118401632D01*
X88200738Y-117515305D01*
G37*
G36*
X88773776Y-114265439D02*
G01*
X89955545Y-114473816D01*
X89799262Y-115360143D01*
X88617493Y-115151766D01*
X88773776Y-114265439D01*
G37*
%TD*%
%TO.C,D37*%
G36*
X105200738Y-127077581D02*
G01*
X106382507Y-127285958D01*
X106226224Y-128172285D01*
X105044455Y-127963908D01*
X105200738Y-127077581D01*
G37*
G36*
X105773776Y-123827715D02*
G01*
X106955545Y-124036092D01*
X106799262Y-124922419D01*
X105617493Y-124714042D01*
X105773776Y-123827715D01*
G37*
%TD*%
%TO.C,D38*%
G36*
X123200738Y-135931629D02*
G01*
X124382507Y-136140006D01*
X124226224Y-137026333D01*
X123044455Y-136817956D01*
X123200738Y-135931629D01*
G37*
G36*
X123773776Y-132681763D02*
G01*
X124955545Y-132890140D01*
X124799262Y-133776467D01*
X123617493Y-133568090D01*
X123773776Y-132681763D01*
G37*
%TD*%
%TO.C,D39*%
G36*
X172044455Y-130456661D02*
G01*
X173226224Y-130248284D01*
X173382507Y-131134611D01*
X172200738Y-131342988D01*
X172044455Y-130456661D01*
G37*
G36*
X172617493Y-133706527D02*
G01*
X173799262Y-133498150D01*
X173955545Y-134384477D01*
X172773776Y-134592854D01*
X172617493Y-133706527D01*
G37*
%TD*%
%TO.C,D40*%
G36*
X191044455Y-130111769D02*
G01*
X192226224Y-129903392D01*
X192382507Y-130789719D01*
X191200738Y-130998096D01*
X191044455Y-130111769D01*
G37*
G36*
X191617493Y-133361635D02*
G01*
X192799262Y-133153258D01*
X192955545Y-134039585D01*
X191773776Y-134247962D01*
X191617493Y-133361635D01*
G37*
%TD*%
%TO.C,D41*%
G36*
X209617493Y-124285958D02*
G01*
X210799262Y-124077581D01*
X210955545Y-124963908D01*
X209773776Y-125172285D01*
X209617493Y-124285958D01*
G37*
G36*
X209044455Y-121036092D02*
G01*
X210226224Y-120827715D01*
X210382507Y-121714042D01*
X209200738Y-121922419D01*
X209044455Y-121036092D01*
G37*
%TD*%
%TO.C,D42*%
G36*
X227330974Y-115285958D02*
G01*
X228512743Y-115077581D01*
X228669026Y-115963908D01*
X227487257Y-116172285D01*
X227330974Y-115285958D01*
G37*
G36*
X226757936Y-112036092D02*
G01*
X227939705Y-111827715D01*
X228095988Y-112714042D01*
X226914219Y-112922419D01*
X226757936Y-112036092D01*
G37*
%TD*%
%TO.C,D43*%
G36*
X246617493Y-117285958D02*
G01*
X247799262Y-117077581D01*
X247955545Y-117963908D01*
X246773776Y-118172285D01*
X246617493Y-117285958D01*
G37*
G36*
X246044455Y-114036092D02*
G01*
X247226224Y-113827715D01*
X247382507Y-114714042D01*
X246200738Y-114922419D01*
X246044455Y-114036092D01*
G37*
%TD*%
%TO.C,D44*%
G36*
X263617493Y-115285958D02*
G01*
X264799262Y-115077581D01*
X264955545Y-115963908D01*
X263773776Y-116172285D01*
X263617493Y-115285958D01*
G37*
G36*
X263044455Y-112036092D02*
G01*
X264226224Y-111827715D01*
X264382507Y-112714042D01*
X263200738Y-112922419D01*
X263044455Y-112036092D01*
G37*
%TD*%
%TO.C,U1*%
G36*
X50660580Y-56698501D02*
G01*
X50504296Y-57584828D01*
X48731642Y-57272261D01*
X48887926Y-56385934D01*
X50660580Y-56698501D01*
G37*
G36*
X50400108Y-58175712D02*
G01*
X50243824Y-59062039D01*
X48471170Y-58749472D01*
X48627454Y-57863145D01*
X50400108Y-58175712D01*
G37*
G36*
X55781581Y-57601471D02*
G01*
X55625297Y-58487798D01*
X53852643Y-58175231D01*
X54008927Y-57288904D01*
X55781581Y-57601471D01*
G37*
G36*
X55521108Y-59078683D02*
G01*
X55364824Y-59965010D01*
X53592170Y-59652443D01*
X53748454Y-58766116D01*
X55521108Y-59078683D01*
G37*
G36*
X45916391Y-66097473D02*
G01*
X45482271Y-68559492D01*
X42971011Y-68116689D01*
X43405131Y-65654670D01*
X45916391Y-66097473D01*
G37*
G36*
X59578501Y-65927288D02*
G01*
X59144381Y-68389307D01*
X56633121Y-67946504D01*
X57067241Y-65484485D01*
X59578501Y-65927288D01*
G37*
%TD*%
%TO.C,U2*%
G36*
X69892872Y-57043393D02*
G01*
X69736588Y-57929720D01*
X67963934Y-57617153D01*
X68120218Y-56730826D01*
X69892872Y-57043393D01*
G37*
G36*
X69632400Y-58520604D02*
G01*
X69476116Y-59406931D01*
X67703462Y-59094364D01*
X67859746Y-58208037D01*
X69632400Y-58520604D01*
G37*
G36*
X75013873Y-57946363D02*
G01*
X74857589Y-58832690D01*
X73084935Y-58520123D01*
X73241219Y-57633796D01*
X75013873Y-57946363D01*
G37*
G36*
X74753400Y-59423575D02*
G01*
X74597116Y-60309902D01*
X72824462Y-59997335D01*
X72980746Y-59111008D01*
X74753400Y-59423575D01*
G37*
G36*
X65148683Y-66442365D02*
G01*
X64714563Y-68904384D01*
X62203303Y-68461581D01*
X62637423Y-65999562D01*
X65148683Y-66442365D01*
G37*
G36*
X78810793Y-66272180D02*
G01*
X78376673Y-68734199D01*
X75865413Y-68291396D01*
X76299533Y-65829377D01*
X78810793Y-66272180D01*
G37*
%TD*%
%TO.C,U3*%
G36*
X98390381Y-64647457D02*
G01*
X97956261Y-67109476D01*
X95445001Y-66666673D01*
X95879121Y-64204654D01*
X98390381Y-64647457D01*
G37*
G36*
X84728271Y-64817642D02*
G01*
X84294151Y-67279661D01*
X81782891Y-66836858D01*
X82217011Y-64374839D01*
X84728271Y-64817642D01*
G37*
G36*
X94332988Y-57798852D02*
G01*
X94176704Y-58685179D01*
X92404050Y-58372612D01*
X92560334Y-57486285D01*
X94332988Y-57798852D01*
G37*
G36*
X94593461Y-56321640D02*
G01*
X94437177Y-57207967D01*
X92664523Y-56895400D01*
X92820807Y-56009073D01*
X94593461Y-56321640D01*
G37*
G36*
X89211988Y-56895881D02*
G01*
X89055704Y-57782208D01*
X87283050Y-57469641D01*
X87439334Y-56583314D01*
X89211988Y-56895881D01*
G37*
G36*
X89472460Y-55418670D02*
G01*
X89316176Y-56304997D01*
X87543522Y-55992430D01*
X87699806Y-55106103D01*
X89472460Y-55418670D01*
G37*
%TD*%
%TO.C,U4*%
G36*
X107141918Y-64626832D02*
G01*
X106985634Y-65513159D01*
X105212980Y-65200592D01*
X105369264Y-64314265D01*
X107141918Y-64626832D01*
G37*
G36*
X106881446Y-66104043D02*
G01*
X106725162Y-66990370D01*
X104952508Y-66677803D01*
X105108792Y-65791476D01*
X106881446Y-66104043D01*
G37*
G36*
X112262919Y-65529802D02*
G01*
X112106635Y-66416129D01*
X110333981Y-66103562D01*
X110490265Y-65217235D01*
X112262919Y-65529802D01*
G37*
G36*
X112002446Y-67007014D02*
G01*
X111846162Y-67893341D01*
X110073508Y-67580774D01*
X110229792Y-66694447D01*
X112002446Y-67007014D01*
G37*
G36*
X102397729Y-74025804D02*
G01*
X101963609Y-76487823D01*
X99452349Y-76045020D01*
X99886469Y-73583001D01*
X102397729Y-74025804D01*
G37*
G36*
X116059839Y-73855619D02*
G01*
X115625719Y-76317638D01*
X113114459Y-75874835D01*
X113548579Y-73412816D01*
X116059839Y-73855619D01*
G37*
%TD*%
%TO.C,U5*%
G36*
X124811376Y-73834994D02*
G01*
X124655092Y-74721321D01*
X122882438Y-74408754D01*
X123038722Y-73522427D01*
X124811376Y-73834994D01*
G37*
G36*
X124550904Y-75312205D02*
G01*
X124394620Y-76198532D01*
X122621966Y-75885965D01*
X122778250Y-74999638D01*
X124550904Y-75312205D01*
G37*
G36*
X129932377Y-74737964D02*
G01*
X129776093Y-75624291D01*
X128003439Y-75311724D01*
X128159723Y-74425397D01*
X129932377Y-74737964D01*
G37*
G36*
X129671904Y-76215176D02*
G01*
X129515620Y-77101503D01*
X127742966Y-76788936D01*
X127899250Y-75902609D01*
X129671904Y-76215176D01*
G37*
G36*
X120067187Y-83233966D02*
G01*
X119633067Y-85695985D01*
X117121807Y-85253182D01*
X117555927Y-82791163D01*
X120067187Y-83233966D01*
G37*
G36*
X133729297Y-83063781D02*
G01*
X133295177Y-85525800D01*
X130783917Y-85082997D01*
X131218037Y-82620978D01*
X133729297Y-83063781D01*
G37*
%TD*%
%TO.C,U6*%
G36*
X137445038Y-111602581D02*
G01*
X137288754Y-112488908D01*
X135516100Y-112176341D01*
X135672384Y-111290014D01*
X137445038Y-111602581D01*
G37*
G36*
X137184566Y-113079792D02*
G01*
X137028282Y-113966119D01*
X135255628Y-113653552D01*
X135411912Y-112767225D01*
X137184566Y-113079792D01*
G37*
G36*
X142566039Y-112505551D02*
G01*
X142409755Y-113391878D01*
X140637101Y-113079311D01*
X140793385Y-112192984D01*
X142566039Y-112505551D01*
G37*
G36*
X142305566Y-113982763D02*
G01*
X142149282Y-114869090D01*
X140376628Y-114556523D01*
X140532912Y-113670196D01*
X142305566Y-113982763D01*
G37*
G36*
X132700849Y-121001553D02*
G01*
X132266729Y-123463572D01*
X129755469Y-123020769D01*
X130189589Y-120558750D01*
X132700849Y-121001553D01*
G37*
G36*
X146362959Y-120831368D02*
G01*
X145928839Y-123293387D01*
X143417579Y-122850584D01*
X143851699Y-120388565D01*
X146362959Y-120831368D01*
G37*
%TD*%
%TO.C,U7*%
G36*
X183376814Y-80047512D02*
G01*
X183810934Y-82509531D01*
X181299674Y-82952334D01*
X180865554Y-80490315D01*
X183376814Y-80047512D01*
G37*
G36*
X170596836Y-84880150D02*
G01*
X171030956Y-87342169D01*
X168519696Y-87784972D01*
X168085576Y-85322953D01*
X170596836Y-84880150D01*
G37*
G36*
X177221750Y-74999638D02*
G01*
X177378034Y-75885965D01*
X175605380Y-76198532D01*
X175449096Y-75312205D01*
X177221750Y-74999638D01*
G37*
G36*
X176961278Y-73522427D02*
G01*
X177117562Y-74408754D01*
X175344908Y-74721321D01*
X175188624Y-73834994D01*
X176961278Y-73522427D01*
G37*
G36*
X172100750Y-75902609D02*
G01*
X172257034Y-76788936D01*
X170484380Y-77101503D01*
X170328096Y-76215176D01*
X172100750Y-75902609D01*
G37*
G36*
X171840277Y-74425397D02*
G01*
X171996561Y-75311724D01*
X170223907Y-75624291D01*
X170067623Y-74737964D01*
X171840277Y-74425397D01*
G37*
%TD*%
%TO.C,U8*%
G36*
X189509735Y-65217235D02*
G01*
X189666019Y-66103562D01*
X187893365Y-66416129D01*
X187737081Y-65529802D01*
X189509735Y-65217235D01*
G37*
G36*
X189770208Y-66694447D02*
G01*
X189926492Y-67580774D01*
X188153838Y-67893341D01*
X187997554Y-67007014D01*
X189770208Y-66694447D01*
G37*
G36*
X194630736Y-64314265D02*
G01*
X194787020Y-65200592D01*
X193014366Y-65513159D01*
X192858082Y-64626832D01*
X194630736Y-64314265D01*
G37*
G36*
X194891208Y-65791476D02*
G01*
X195047492Y-66677803D01*
X193274838Y-66990370D01*
X193118554Y-66104043D01*
X194891208Y-65791476D01*
G37*
G36*
X188266294Y-75671988D02*
G01*
X188700414Y-78134007D01*
X186189154Y-78576810D01*
X185755034Y-76114791D01*
X188266294Y-75671988D01*
G37*
G36*
X201046272Y-70839350D02*
G01*
X201480392Y-73301369D01*
X198969132Y-73744172D01*
X198535012Y-71282153D01*
X201046272Y-70839350D01*
G37*
%TD*%
%TO.C,U9*%
G36*
X207179193Y-56009073D02*
G01*
X207335477Y-56895400D01*
X205562823Y-57207967D01*
X205406539Y-56321640D01*
X207179193Y-56009073D01*
G37*
G36*
X207439666Y-57486285D02*
G01*
X207595950Y-58372612D01*
X205823296Y-58685179D01*
X205667012Y-57798852D01*
X207439666Y-57486285D01*
G37*
G36*
X212300194Y-55106103D02*
G01*
X212456478Y-55992430D01*
X210683824Y-56304997D01*
X210527540Y-55418670D01*
X212300194Y-55106103D01*
G37*
G36*
X212560666Y-56583314D02*
G01*
X212716950Y-57469641D01*
X210944296Y-57782208D01*
X210788012Y-56895881D01*
X212560666Y-56583314D01*
G37*
G36*
X205935752Y-66463826D02*
G01*
X206369872Y-68925845D01*
X203858612Y-69368648D01*
X203424492Y-66906629D01*
X205935752Y-66463826D01*
G37*
G36*
X218715730Y-61631188D02*
G01*
X219149850Y-64093207D01*
X216638590Y-64536010D01*
X216204470Y-62073991D01*
X218715730Y-61631188D01*
G37*
%TD*%
%TO.C,U10*%
G36*
X238295318Y-63255911D02*
G01*
X238729438Y-65717930D01*
X236218178Y-66160733D01*
X235784058Y-63698714D01*
X238295318Y-63255911D01*
G37*
G36*
X225515340Y-68088549D02*
G01*
X225949460Y-70550568D01*
X223438200Y-70993371D01*
X223004080Y-68531352D01*
X225515340Y-68088549D01*
G37*
G36*
X232140254Y-58208037D02*
G01*
X232296538Y-59094364D01*
X230523884Y-59406931D01*
X230367600Y-58520604D01*
X232140254Y-58208037D01*
G37*
G36*
X231879782Y-56730826D02*
G01*
X232036066Y-57617153D01*
X230263412Y-57929720D01*
X230107128Y-57043393D01*
X231879782Y-56730826D01*
G37*
G36*
X227019254Y-59111008D02*
G01*
X227175538Y-59997335D01*
X225402884Y-60309902D01*
X225246600Y-59423575D01*
X227019254Y-59111008D01*
G37*
G36*
X226758781Y-57633796D02*
G01*
X226915065Y-58520123D01*
X225142411Y-58832690D01*
X224986127Y-57946363D01*
X226758781Y-57633796D01*
G37*
%TD*%
%TO.C,U11*%
G36*
X257527610Y-62911019D02*
G01*
X257961730Y-65373038D01*
X255450470Y-65815841D01*
X255016350Y-63353822D01*
X257527610Y-62911019D01*
G37*
G36*
X244747632Y-67743657D02*
G01*
X245181752Y-70205676D01*
X242670492Y-70648479D01*
X242236372Y-68186460D01*
X244747632Y-67743657D01*
G37*
G36*
X251372546Y-57863145D02*
G01*
X251528830Y-58749472D01*
X249756176Y-59062039D01*
X249599892Y-58175712D01*
X251372546Y-57863145D01*
G37*
G36*
X251112074Y-56385934D02*
G01*
X251268358Y-57272261D01*
X249495704Y-57584828D01*
X249339420Y-56698501D01*
X251112074Y-56385934D01*
G37*
G36*
X246251546Y-58766116D02*
G01*
X246407830Y-59652443D01*
X244635176Y-59965010D01*
X244478892Y-59078683D01*
X246251546Y-58766116D01*
G37*
G36*
X245991073Y-57288904D02*
G01*
X246147357Y-58175231D01*
X244374703Y-58487798D01*
X244218419Y-57601471D01*
X245991073Y-57288904D01*
G37*
%TD*%
%TO.C,U12*%
G36*
X47361265Y-75409849D02*
G01*
X47204981Y-76296176D01*
X45432327Y-75983609D01*
X45588611Y-75097282D01*
X47361265Y-75409849D01*
G37*
G36*
X47100793Y-76887060D02*
G01*
X46944509Y-77773387D01*
X45171855Y-77460820D01*
X45328139Y-76574493D01*
X47100793Y-76887060D01*
G37*
G36*
X52482266Y-76312819D02*
G01*
X52325982Y-77199146D01*
X50553328Y-76886579D01*
X50709612Y-76000252D01*
X52482266Y-76312819D01*
G37*
G36*
X52221793Y-77790031D02*
G01*
X52065509Y-78676358D01*
X50292855Y-78363791D01*
X50449139Y-77477464D01*
X52221793Y-77790031D01*
G37*
G36*
X42617076Y-84808821D02*
G01*
X42182956Y-87270840D01*
X39671696Y-86828037D01*
X40105816Y-84366018D01*
X42617076Y-84808821D01*
G37*
G36*
X56279186Y-84638636D02*
G01*
X55845066Y-87100655D01*
X53333806Y-86657852D01*
X53767926Y-84195833D01*
X56279186Y-84638636D01*
G37*
%TD*%
%TO.C,U13*%
G36*
X66593556Y-75754741D02*
G01*
X66437272Y-76641068D01*
X64664618Y-76328501D01*
X64820902Y-75442174D01*
X66593556Y-75754741D01*
G37*
G36*
X66333084Y-77231952D02*
G01*
X66176800Y-78118279D01*
X64404146Y-77805712D01*
X64560430Y-76919385D01*
X66333084Y-77231952D01*
G37*
G36*
X71714557Y-76657711D02*
G01*
X71558273Y-77544038D01*
X69785619Y-77231471D01*
X69941903Y-76345144D01*
X71714557Y-76657711D01*
G37*
G36*
X71454084Y-78134923D02*
G01*
X71297800Y-79021250D01*
X69525146Y-78708683D01*
X69681430Y-77822356D01*
X71454084Y-78134923D01*
G37*
G36*
X61849367Y-85153713D02*
G01*
X61415247Y-87615732D01*
X58903987Y-87172929D01*
X59338107Y-84710910D01*
X61849367Y-85153713D01*
G37*
G36*
X75511477Y-84983528D02*
G01*
X75077357Y-87445547D01*
X72566097Y-87002744D01*
X73000217Y-84540725D01*
X75511477Y-84983528D01*
G37*
%TD*%
%TO.C,U14*%
G36*
X95091066Y-83358806D02*
G01*
X94656946Y-85820825D01*
X92145686Y-85378022D01*
X92579806Y-82916003D01*
X95091066Y-83358806D01*
G37*
G36*
X81428956Y-83528991D02*
G01*
X80994836Y-85991010D01*
X78483576Y-85548207D01*
X78917696Y-83086188D01*
X81428956Y-83528991D01*
G37*
G36*
X91033673Y-76510201D02*
G01*
X90877389Y-77396528D01*
X89104735Y-77083961D01*
X89261019Y-76197634D01*
X91033673Y-76510201D01*
G37*
G36*
X91294146Y-75032989D02*
G01*
X91137862Y-75919316D01*
X89365208Y-75606749D01*
X89521492Y-74720422D01*
X91294146Y-75032989D01*
G37*
G36*
X85912673Y-75607230D02*
G01*
X85756389Y-76493557D01*
X83983735Y-76180990D01*
X84140019Y-75294663D01*
X85912673Y-75607230D01*
G37*
G36*
X86173145Y-74130019D02*
G01*
X86016861Y-75016346D01*
X84244207Y-74703779D01*
X84400491Y-73817452D01*
X86173145Y-74130019D01*
G37*
%TD*%
%TO.C,U15*%
G36*
X112760524Y-92566966D02*
G01*
X112326404Y-95028985D01*
X109815144Y-94586182D01*
X110249264Y-92124163D01*
X112760524Y-92566966D01*
G37*
G36*
X99098414Y-92737151D02*
G01*
X98664294Y-95199170D01*
X96153034Y-94756367D01*
X96587154Y-92294348D01*
X99098414Y-92737151D01*
G37*
G36*
X108703131Y-85718361D02*
G01*
X108546847Y-86604688D01*
X106774193Y-86292121D01*
X106930477Y-85405794D01*
X108703131Y-85718361D01*
G37*
G36*
X108963604Y-84241149D02*
G01*
X108807320Y-85127476D01*
X107034666Y-84814909D01*
X107190950Y-83928582D01*
X108963604Y-84241149D01*
G37*
G36*
X103582131Y-84815390D02*
G01*
X103425847Y-85701717D01*
X101653193Y-85389150D01*
X101809477Y-84502823D01*
X103582131Y-84815390D01*
G37*
G36*
X103842603Y-83338179D02*
G01*
X103686319Y-84224506D01*
X101913665Y-83911939D01*
X102069949Y-83025612D01*
X103842603Y-83338179D01*
G37*
%TD*%
%TO.C,U16*%
G36*
X121512061Y-92546341D02*
G01*
X121355777Y-93432668D01*
X119583123Y-93120101D01*
X119739407Y-92233774D01*
X121512061Y-92546341D01*
G37*
G36*
X121251589Y-94023552D02*
G01*
X121095305Y-94909879D01*
X119322651Y-94597312D01*
X119478935Y-93710985D01*
X121251589Y-94023552D01*
G37*
G36*
X126633062Y-93449311D02*
G01*
X126476778Y-94335638D01*
X124704124Y-94023071D01*
X124860408Y-93136744D01*
X126633062Y-93449311D01*
G37*
G36*
X126372589Y-94926523D02*
G01*
X126216305Y-95812850D01*
X124443651Y-95500283D01*
X124599935Y-94613956D01*
X126372589Y-94926523D01*
G37*
G36*
X116767872Y-101945313D02*
G01*
X116333752Y-104407332D01*
X113822492Y-103964529D01*
X114256612Y-101502510D01*
X116767872Y-101945313D01*
G37*
G36*
X130429982Y-101775128D02*
G01*
X129995862Y-104237147D01*
X127484602Y-103794344D01*
X127918722Y-101332325D01*
X130429982Y-101775128D01*
G37*
%TD*%
%TO.C,U17*%
G36*
X134145722Y-130313928D02*
G01*
X133989438Y-131200255D01*
X132216784Y-130887688D01*
X132373068Y-130001361D01*
X134145722Y-130313928D01*
G37*
G36*
X133885250Y-131791139D02*
G01*
X133728966Y-132677466D01*
X131956312Y-132364899D01*
X132112596Y-131478572D01*
X133885250Y-131791139D01*
G37*
G36*
X139266723Y-131216898D02*
G01*
X139110439Y-132103225D01*
X137337785Y-131790658D01*
X137494069Y-130904331D01*
X139266723Y-131216898D01*
G37*
G36*
X139006250Y-132694110D02*
G01*
X138849966Y-133580437D01*
X137077312Y-133267870D01*
X137233596Y-132381543D01*
X139006250Y-132694110D01*
G37*
G36*
X129401533Y-139712900D02*
G01*
X128967413Y-142174919D01*
X126456153Y-141732116D01*
X126890273Y-139270097D01*
X129401533Y-139712900D01*
G37*
G36*
X143063643Y-139542715D02*
G01*
X142629523Y-142004734D01*
X140118263Y-141561931D01*
X140552383Y-139099912D01*
X143063643Y-139542715D01*
G37*
%TD*%
%TO.C,U18*%
G36*
X186676129Y-98758859D02*
G01*
X187110249Y-101220878D01*
X184598989Y-101663681D01*
X184164869Y-99201662D01*
X186676129Y-98758859D01*
G37*
G36*
X173896151Y-103591497D02*
G01*
X174330271Y-106053516D01*
X171819011Y-106496319D01*
X171384891Y-104034300D01*
X173896151Y-103591497D01*
G37*
G36*
X180521065Y-93710985D02*
G01*
X180677349Y-94597312D01*
X178904695Y-94909879D01*
X178748411Y-94023552D01*
X180521065Y-93710985D01*
G37*
G36*
X180260593Y-92233774D02*
G01*
X180416877Y-93120101D01*
X178644223Y-93432668D01*
X178487939Y-92546341D01*
X180260593Y-92233774D01*
G37*
G36*
X175400065Y-94613956D02*
G01*
X175556349Y-95500283D01*
X173783695Y-95812850D01*
X173627411Y-94926523D01*
X175400065Y-94613956D01*
G37*
G36*
X175139592Y-93136744D02*
G01*
X175295876Y-94023071D01*
X173523222Y-94335638D01*
X173366938Y-93449311D01*
X175139592Y-93136744D01*
G37*
%TD*%
%TO.C,U19*%
G36*
X192809050Y-83928582D02*
G01*
X192965334Y-84814909D01*
X191192680Y-85127476D01*
X191036396Y-84241149D01*
X192809050Y-83928582D01*
G37*
G36*
X193069523Y-85405794D02*
G01*
X193225807Y-86292121D01*
X191453153Y-86604688D01*
X191296869Y-85718361D01*
X193069523Y-85405794D01*
G37*
G36*
X197930051Y-83025612D02*
G01*
X198086335Y-83911939D01*
X196313681Y-84224506D01*
X196157397Y-83338179D01*
X197930051Y-83025612D01*
G37*
G36*
X198190523Y-84502823D02*
G01*
X198346807Y-85389150D01*
X196574153Y-85701717D01*
X196417869Y-84815390D01*
X198190523Y-84502823D01*
G37*
G36*
X191565609Y-94383335D02*
G01*
X191999729Y-96845354D01*
X189488469Y-97288157D01*
X189054349Y-94826138D01*
X191565609Y-94383335D01*
G37*
G36*
X204345587Y-89550697D02*
G01*
X204779707Y-92012716D01*
X202268447Y-92455519D01*
X201834327Y-89993500D01*
X204345587Y-89550697D01*
G37*
%TD*%
%TO.C,U20*%
G36*
X210478508Y-74720422D02*
G01*
X210634792Y-75606749D01*
X208862138Y-75919316D01*
X208705854Y-75032989D01*
X210478508Y-74720422D01*
G37*
G36*
X210738981Y-76197634D02*
G01*
X210895265Y-77083961D01*
X209122611Y-77396528D01*
X208966327Y-76510201D01*
X210738981Y-76197634D01*
G37*
G36*
X215599509Y-73817452D02*
G01*
X215755793Y-74703779D01*
X213983139Y-75016346D01*
X213826855Y-74130019D01*
X215599509Y-73817452D01*
G37*
G36*
X215859981Y-75294663D02*
G01*
X216016265Y-76180990D01*
X214243611Y-76493557D01*
X214087327Y-75607230D01*
X215859981Y-75294663D01*
G37*
G36*
X209235067Y-85175175D02*
G01*
X209669187Y-87637194D01*
X207157927Y-88079997D01*
X206723807Y-85617978D01*
X209235067Y-85175175D01*
G37*
G36*
X222015045Y-80342537D02*
G01*
X222449165Y-82804556D01*
X219937905Y-83247359D01*
X219503785Y-80785340D01*
X222015045Y-80342537D01*
G37*
%TD*%
%TO.C,U21*%
G36*
X241594634Y-81967259D02*
G01*
X242028754Y-84429278D01*
X239517494Y-84872081D01*
X239083374Y-82410062D01*
X241594634Y-81967259D01*
G37*
G36*
X228814656Y-86799897D02*
G01*
X229248776Y-89261916D01*
X226737516Y-89704719D01*
X226303396Y-87242700D01*
X228814656Y-86799897D01*
G37*
G36*
X235439570Y-76919385D02*
G01*
X235595854Y-77805712D01*
X233823200Y-78118279D01*
X233666916Y-77231952D01*
X235439570Y-76919385D01*
G37*
G36*
X235179098Y-75442174D02*
G01*
X235335382Y-76328501D01*
X233562728Y-76641068D01*
X233406444Y-75754741D01*
X235179098Y-75442174D01*
G37*
G36*
X230318570Y-77822356D02*
G01*
X230474854Y-78708683D01*
X228702200Y-79021250D01*
X228545916Y-78134923D01*
X230318570Y-77822356D01*
G37*
G36*
X230058097Y-76345144D02*
G01*
X230214381Y-77231471D01*
X228441727Y-77544038D01*
X228285443Y-76657711D01*
X230058097Y-76345144D01*
G37*
%TD*%
%TO.C,U22*%
G36*
X260826925Y-81622367D02*
G01*
X261261045Y-84084386D01*
X258749785Y-84527189D01*
X258315665Y-82065170D01*
X260826925Y-81622367D01*
G37*
G36*
X248046947Y-86455005D02*
G01*
X248481067Y-88917024D01*
X245969807Y-89359827D01*
X245535687Y-86897808D01*
X248046947Y-86455005D01*
G37*
G36*
X254671861Y-76574493D02*
G01*
X254828145Y-77460820D01*
X253055491Y-77773387D01*
X252899207Y-76887060D01*
X254671861Y-76574493D01*
G37*
G36*
X254411389Y-75097282D02*
G01*
X254567673Y-75983609D01*
X252795019Y-76296176D01*
X252638735Y-75409849D01*
X254411389Y-75097282D01*
G37*
G36*
X249550861Y-77477464D02*
G01*
X249707145Y-78363791D01*
X247934491Y-78676358D01*
X247778207Y-77790031D01*
X249550861Y-77477464D01*
G37*
G36*
X249290388Y-76000252D02*
G01*
X249446672Y-76886579D01*
X247674018Y-77199146D01*
X247517734Y-76312819D01*
X249290388Y-76000252D01*
G37*
%TD*%
%TO.C,U23*%
G36*
X44061949Y-94121196D02*
G01*
X43905665Y-95007523D01*
X42133011Y-94694956D01*
X42289295Y-93808629D01*
X44061949Y-94121196D01*
G37*
G36*
X43801477Y-95598407D02*
G01*
X43645193Y-96484734D01*
X41872539Y-96172167D01*
X42028823Y-95285840D01*
X43801477Y-95598407D01*
G37*
G36*
X49182950Y-95024166D02*
G01*
X49026666Y-95910493D01*
X47254012Y-95597926D01*
X47410296Y-94711599D01*
X49182950Y-95024166D01*
G37*
G36*
X48922477Y-96501378D02*
G01*
X48766193Y-97387705D01*
X46993539Y-97075138D01*
X47149823Y-96188811D01*
X48922477Y-96501378D01*
G37*
G36*
X39317760Y-103520168D02*
G01*
X38883640Y-105982187D01*
X36372380Y-105539384D01*
X36806500Y-103077365D01*
X39317760Y-103520168D01*
G37*
G36*
X52979870Y-103349983D02*
G01*
X52545750Y-105812002D01*
X50034490Y-105369199D01*
X50468610Y-102907180D01*
X52979870Y-103349983D01*
G37*
%TD*%
%TO.C,U24*%
G36*
X63294239Y-94466088D02*
G01*
X63137955Y-95352415D01*
X61365301Y-95039848D01*
X61521585Y-94153521D01*
X63294239Y-94466088D01*
G37*
G36*
X63033767Y-95943299D02*
G01*
X62877483Y-96829626D01*
X61104829Y-96517059D01*
X61261113Y-95630732D01*
X63033767Y-95943299D01*
G37*
G36*
X68415240Y-95369058D02*
G01*
X68258956Y-96255385D01*
X66486302Y-95942818D01*
X66642586Y-95056491D01*
X68415240Y-95369058D01*
G37*
G36*
X68154767Y-96846270D02*
G01*
X67998483Y-97732597D01*
X66225829Y-97420030D01*
X66382113Y-96533703D01*
X68154767Y-96846270D01*
G37*
G36*
X58550050Y-103865060D02*
G01*
X58115930Y-106327079D01*
X55604670Y-105884276D01*
X56038790Y-103422257D01*
X58550050Y-103865060D01*
G37*
G36*
X72212160Y-103694875D02*
G01*
X71778040Y-106156894D01*
X69266780Y-105714091D01*
X69700900Y-103252072D01*
X72212160Y-103694875D01*
G37*
%TD*%
%TO.C,U25*%
G36*
X82873829Y-92841365D02*
G01*
X82717545Y-93727692D01*
X80944891Y-93415125D01*
X81101175Y-92528798D01*
X82873829Y-92841365D01*
G37*
G36*
X82613357Y-94318576D02*
G01*
X82457073Y-95204903D01*
X80684419Y-94892336D01*
X80840703Y-94006009D01*
X82613357Y-94318576D01*
G37*
G36*
X87994830Y-93744335D02*
G01*
X87838546Y-94630662D01*
X86065892Y-94318095D01*
X86222176Y-93431768D01*
X87994830Y-93744335D01*
G37*
G36*
X87734357Y-95221547D02*
G01*
X87578073Y-96107874D01*
X85805419Y-95795307D01*
X85961703Y-94908980D01*
X87734357Y-95221547D01*
G37*
G36*
X78129640Y-102240337D02*
G01*
X77695520Y-104702356D01*
X75184260Y-104259553D01*
X75618380Y-101797534D01*
X78129640Y-102240337D01*
G37*
G36*
X91791750Y-102070152D02*
G01*
X91357630Y-104532171D01*
X88846370Y-104089368D01*
X89280490Y-101627349D01*
X91791750Y-102070152D01*
G37*
%TD*%
%TO.C,U26*%
G36*
X100543287Y-102049527D02*
G01*
X100387003Y-102935854D01*
X98614349Y-102623287D01*
X98770633Y-101736960D01*
X100543287Y-102049527D01*
G37*
G36*
X100282815Y-103526738D02*
G01*
X100126531Y-104413065D01*
X98353877Y-104100498D01*
X98510161Y-103214171D01*
X100282815Y-103526738D01*
G37*
G36*
X105664288Y-102952497D02*
G01*
X105508004Y-103838824D01*
X103735350Y-103526257D01*
X103891634Y-102639930D01*
X105664288Y-102952497D01*
G37*
G36*
X105403815Y-104429709D02*
G01*
X105247531Y-105316036D01*
X103474877Y-105003469D01*
X103631161Y-104117142D01*
X105403815Y-104429709D01*
G37*
G36*
X95799098Y-111448499D02*
G01*
X95364978Y-113910518D01*
X92853718Y-113467715D01*
X93287838Y-111005696D01*
X95799098Y-111448499D01*
G37*
G36*
X109461208Y-111278314D02*
G01*
X109027088Y-113740333D01*
X106515828Y-113297530D01*
X106949948Y-110835511D01*
X109461208Y-111278314D01*
G37*
%TD*%
%TO.C,U27*%
G36*
X127130667Y-120486475D02*
G01*
X126696547Y-122948494D01*
X124185287Y-122505691D01*
X124619407Y-120043672D01*
X127130667Y-120486475D01*
G37*
G36*
X113468557Y-120656660D02*
G01*
X113034437Y-123118679D01*
X110523177Y-122675876D01*
X110957297Y-120213857D01*
X113468557Y-120656660D01*
G37*
G36*
X123073274Y-113637870D02*
G01*
X122916990Y-114524197D01*
X121144336Y-114211630D01*
X121300620Y-113325303D01*
X123073274Y-113637870D01*
G37*
G36*
X123333747Y-112160658D02*
G01*
X123177463Y-113046985D01*
X121404809Y-112734418D01*
X121561093Y-111848091D01*
X123333747Y-112160658D01*
G37*
G36*
X117952274Y-112734899D02*
G01*
X117795990Y-113621226D01*
X116023336Y-113308659D01*
X116179620Y-112422332D01*
X117952274Y-112734899D01*
G37*
G36*
X118212746Y-111257688D02*
G01*
X118056462Y-112144015D01*
X116283808Y-111831448D01*
X116440092Y-110945121D01*
X118212746Y-111257688D01*
G37*
%TD*%
%TO.C,U28*%
G36*
X170743152Y-117815099D02*
G01*
X171177272Y-120277118D01*
X168666012Y-120719921D01*
X168231892Y-118257902D01*
X170743152Y-117815099D01*
G37*
G36*
X157963174Y-122647737D02*
G01*
X158397294Y-125109756D01*
X155886034Y-125552559D01*
X155451914Y-123090540D01*
X157963174Y-122647737D01*
G37*
G36*
X164588088Y-112767225D02*
G01*
X164744372Y-113653552D01*
X162971718Y-113966119D01*
X162815434Y-113079792D01*
X164588088Y-112767225D01*
G37*
G36*
X164327616Y-111290014D02*
G01*
X164483900Y-112176341D01*
X162711246Y-112488908D01*
X162554962Y-111602581D01*
X164327616Y-111290014D01*
G37*
G36*
X159467088Y-113670196D02*
G01*
X159623372Y-114556523D01*
X157850718Y-114869090D01*
X157694434Y-113982763D01*
X159467088Y-113670196D01*
G37*
G36*
X159206615Y-112192984D02*
G01*
X159362899Y-113079311D01*
X157590245Y-113391878D01*
X157433961Y-112505551D01*
X159206615Y-112192984D01*
G37*
%TD*%
%TO.C,U29*%
G36*
X189975444Y-117470206D02*
G01*
X190409564Y-119932225D01*
X187898304Y-120375028D01*
X187464184Y-117913009D01*
X189975444Y-117470206D01*
G37*
G36*
X177195466Y-122302844D02*
G01*
X177629586Y-124764863D01*
X175118326Y-125207666D01*
X174684206Y-122745647D01*
X177195466Y-122302844D01*
G37*
G36*
X183820380Y-112422332D02*
G01*
X183976664Y-113308659D01*
X182204010Y-113621226D01*
X182047726Y-112734899D01*
X183820380Y-112422332D01*
G37*
G36*
X183559908Y-110945121D02*
G01*
X183716192Y-111831448D01*
X181943538Y-112144015D01*
X181787254Y-111257688D01*
X183559908Y-110945121D01*
G37*
G36*
X178699380Y-113325303D02*
G01*
X178855664Y-114211630D01*
X177083010Y-114524197D01*
X176926726Y-113637870D01*
X178699380Y-113325303D01*
G37*
G36*
X178438907Y-111848091D02*
G01*
X178595191Y-112734418D01*
X176822537Y-113046985D01*
X176666253Y-112160658D01*
X178438907Y-111848091D01*
G37*
%TD*%
%TO.C,U30*%
G36*
X196108366Y-102639930D02*
G01*
X196264650Y-103526257D01*
X194491996Y-103838824D01*
X194335712Y-102952497D01*
X196108366Y-102639930D01*
G37*
G36*
X196368839Y-104117142D02*
G01*
X196525123Y-105003469D01*
X194752469Y-105316036D01*
X194596185Y-104429709D01*
X196368839Y-104117142D01*
G37*
G36*
X201229367Y-101736960D02*
G01*
X201385651Y-102623287D01*
X199612997Y-102935854D01*
X199456713Y-102049527D01*
X201229367Y-101736960D01*
G37*
G36*
X201489839Y-103214171D02*
G01*
X201646123Y-104100498D01*
X199873469Y-104413065D01*
X199717185Y-103526738D01*
X201489839Y-103214171D01*
G37*
G36*
X194864925Y-113094683D02*
G01*
X195299045Y-115556702D01*
X192787785Y-115999505D01*
X192353665Y-113537486D01*
X194864925Y-113094683D01*
G37*
G36*
X207644903Y-108262045D02*
G01*
X208079023Y-110724064D01*
X205567763Y-111166867D01*
X205133643Y-108704848D01*
X207644903Y-108262045D01*
G37*
%TD*%
%TO.C,U31*%
G36*
X225314361Y-99053883D02*
G01*
X225748481Y-101515902D01*
X223237221Y-101958705D01*
X222803101Y-99496686D01*
X225314361Y-99053883D01*
G37*
G36*
X212534383Y-103886521D02*
G01*
X212968503Y-106348540D01*
X210457243Y-106791343D01*
X210023123Y-104329324D01*
X212534383Y-103886521D01*
G37*
G36*
X219159297Y-94006009D02*
G01*
X219315581Y-94892336D01*
X217542927Y-95204903D01*
X217386643Y-94318576D01*
X219159297Y-94006009D01*
G37*
G36*
X218898825Y-92528798D02*
G01*
X219055109Y-93415125D01*
X217282455Y-93727692D01*
X217126171Y-92841365D01*
X218898825Y-92528798D01*
G37*
G36*
X214038297Y-94908980D02*
G01*
X214194581Y-95795307D01*
X212421927Y-96107874D01*
X212265643Y-95221547D01*
X214038297Y-94908980D01*
G37*
G36*
X213777824Y-93431768D02*
G01*
X213934108Y-94318095D01*
X212161454Y-94630662D01*
X212005170Y-93744335D01*
X213777824Y-93431768D01*
G37*
%TD*%
%TO.C,U32*%
G36*
X244893951Y-100678606D02*
G01*
X245328071Y-103140625D01*
X242816811Y-103583428D01*
X242382691Y-101121409D01*
X244893951Y-100678606D01*
G37*
G36*
X232113973Y-105511244D02*
G01*
X232548093Y-107973263D01*
X230036833Y-108416066D01*
X229602713Y-105954047D01*
X232113973Y-105511244D01*
G37*
G36*
X238738887Y-95630732D02*
G01*
X238895171Y-96517059D01*
X237122517Y-96829626D01*
X236966233Y-95943299D01*
X238738887Y-95630732D01*
G37*
G36*
X238478415Y-94153521D02*
G01*
X238634699Y-95039848D01*
X236862045Y-95352415D01*
X236705761Y-94466088D01*
X238478415Y-94153521D01*
G37*
G36*
X233617887Y-96533703D02*
G01*
X233774171Y-97420030D01*
X232001517Y-97732597D01*
X231845233Y-96846270D01*
X233617887Y-96533703D01*
G37*
G36*
X233357414Y-95056491D02*
G01*
X233513698Y-95942818D01*
X231741044Y-96255385D01*
X231584760Y-95369058D01*
X233357414Y-95056491D01*
G37*
%TD*%
%TO.C,U33*%
G36*
X264126241Y-100333714D02*
G01*
X264560361Y-102795733D01*
X262049101Y-103238536D01*
X261614981Y-100776517D01*
X264126241Y-100333714D01*
G37*
G36*
X251346263Y-105166352D02*
G01*
X251780383Y-107628371D01*
X249269123Y-108071174D01*
X248835003Y-105609155D01*
X251346263Y-105166352D01*
G37*
G36*
X257971177Y-95285840D02*
G01*
X258127461Y-96172167D01*
X256354807Y-96484734D01*
X256198523Y-95598407D01*
X257971177Y-95285840D01*
G37*
G36*
X257710705Y-93808629D02*
G01*
X257866989Y-94694956D01*
X256094335Y-95007523D01*
X255938051Y-94121196D01*
X257710705Y-93808629D01*
G37*
G36*
X252850177Y-96188811D02*
G01*
X253006461Y-97075138D01*
X251233807Y-97387705D01*
X251077523Y-96501378D01*
X252850177Y-96188811D01*
G37*
G36*
X252589704Y-94711599D02*
G01*
X252745988Y-95597926D01*
X250973334Y-95910493D01*
X250817050Y-95024166D01*
X252589704Y-94711599D01*
G37*
%TD*%
%TO.C,U34*%
G36*
X49680555Y-122061330D02*
G01*
X49246435Y-124523349D01*
X46735175Y-124080546D01*
X47169295Y-121618527D01*
X49680555Y-122061330D01*
G37*
G36*
X36018445Y-122231515D02*
G01*
X35584325Y-124693534D01*
X33073065Y-124250731D01*
X33507185Y-121788712D01*
X36018445Y-122231515D01*
G37*
G36*
X45623162Y-115212725D02*
G01*
X45466878Y-116099052D01*
X43694224Y-115786485D01*
X43850508Y-114900158D01*
X45623162Y-115212725D01*
G37*
G36*
X45883635Y-113735513D02*
G01*
X45727351Y-114621840D01*
X43954697Y-114309273D01*
X44110981Y-113422946D01*
X45883635Y-113735513D01*
G37*
G36*
X40502162Y-114309754D02*
G01*
X40345878Y-115196081D01*
X38573224Y-114883514D01*
X38729508Y-113997187D01*
X40502162Y-114309754D01*
G37*
G36*
X40762634Y-112832543D02*
G01*
X40606350Y-113718870D01*
X38833696Y-113406303D01*
X38989980Y-112519976D01*
X40762634Y-112832543D01*
G37*
%TD*%
%TO.C,U35*%
G36*
X68912847Y-122406222D02*
G01*
X68478727Y-124868241D01*
X65967467Y-124425438D01*
X66401587Y-121963419D01*
X68912847Y-122406222D01*
G37*
G36*
X55250737Y-122576407D02*
G01*
X54816617Y-125038426D01*
X52305357Y-124595623D01*
X52739477Y-122133604D01*
X55250737Y-122576407D01*
G37*
G36*
X64855454Y-115557617D02*
G01*
X64699170Y-116443944D01*
X62926516Y-116131377D01*
X63082800Y-115245050D01*
X64855454Y-115557617D01*
G37*
G36*
X65115927Y-114080405D02*
G01*
X64959643Y-114966732D01*
X63186989Y-114654165D01*
X63343273Y-113767838D01*
X65115927Y-114080405D01*
G37*
G36*
X59734454Y-114654646D02*
G01*
X59578170Y-115540973D01*
X57805516Y-115228406D01*
X57961800Y-114342079D01*
X59734454Y-114654646D01*
G37*
G36*
X59994926Y-113177435D02*
G01*
X59838642Y-114063762D01*
X58065988Y-113751195D01*
X58222272Y-112864868D01*
X59994926Y-113177435D01*
G37*
%TD*%
%TO.C,U36*%
G36*
X79574514Y-111552712D02*
G01*
X79418230Y-112439039D01*
X77645576Y-112126472D01*
X77801860Y-111240145D01*
X79574514Y-111552712D01*
G37*
G36*
X79314042Y-113029923D02*
G01*
X79157758Y-113916250D01*
X77385104Y-113603683D01*
X77541388Y-112717356D01*
X79314042Y-113029923D01*
G37*
G36*
X84695515Y-112455682D02*
G01*
X84539231Y-113342009D01*
X82766577Y-113029442D01*
X82922861Y-112143115D01*
X84695515Y-112455682D01*
G37*
G36*
X84435042Y-113932894D02*
G01*
X84278758Y-114819221D01*
X82506104Y-114506654D01*
X82662388Y-113620327D01*
X84435042Y-113932894D01*
G37*
G36*
X74830325Y-120951684D02*
G01*
X74396205Y-123413703D01*
X71884945Y-122970900D01*
X72319065Y-120508881D01*
X74830325Y-120951684D01*
G37*
G36*
X88492435Y-120781499D02*
G01*
X88058315Y-123243518D01*
X85547055Y-122800715D01*
X85981175Y-120338696D01*
X88492435Y-120781499D01*
G37*
%TD*%
%TO.C,U37*%
G36*
X97243972Y-120760874D02*
G01*
X97087688Y-121647201D01*
X95315034Y-121334634D01*
X95471318Y-120448307D01*
X97243972Y-120760874D01*
G37*
G36*
X96983500Y-122238085D02*
G01*
X96827216Y-123124412D01*
X95054562Y-122811845D01*
X95210846Y-121925518D01*
X96983500Y-122238085D01*
G37*
G36*
X102364973Y-121663844D02*
G01*
X102208689Y-122550171D01*
X100436035Y-122237604D01*
X100592319Y-121351277D01*
X102364973Y-121663844D01*
G37*
G36*
X102104500Y-123141056D02*
G01*
X101948216Y-124027383D01*
X100175562Y-123714816D01*
X100331846Y-122828489D01*
X102104500Y-123141056D01*
G37*
G36*
X92499783Y-130159846D02*
G01*
X92065663Y-132621865D01*
X89554403Y-132179062D01*
X89988523Y-129717043D01*
X92499783Y-130159846D01*
G37*
G36*
X106161893Y-129989661D02*
G01*
X105727773Y-132451680D01*
X103216513Y-132008877D01*
X103650633Y-129546858D01*
X106161893Y-129989661D01*
G37*
%TD*%
%TO.C,U38*%
G36*
X123831351Y-139197823D02*
G01*
X123397231Y-141659842D01*
X120885971Y-141217039D01*
X121320091Y-138755020D01*
X123831351Y-139197823D01*
G37*
G36*
X110169241Y-139368008D02*
G01*
X109735121Y-141830027D01*
X107223861Y-141387224D01*
X107657981Y-138925205D01*
X110169241Y-139368008D01*
G37*
G36*
X119773958Y-132349218D02*
G01*
X119617674Y-133235545D01*
X117845020Y-132922978D01*
X118001304Y-132036651D01*
X119773958Y-132349218D01*
G37*
G36*
X120034431Y-130872006D02*
G01*
X119878147Y-131758333D01*
X118105493Y-131445766D01*
X118261777Y-130559439D01*
X120034431Y-130872006D01*
G37*
G36*
X114652958Y-131446247D02*
G01*
X114496674Y-132332574D01*
X112724020Y-132020007D01*
X112880304Y-131133680D01*
X114652958Y-131446247D01*
G37*
G36*
X114913430Y-129969036D02*
G01*
X114757146Y-130855363D01*
X112984492Y-130542796D01*
X113140776Y-129656469D01*
X114913430Y-129969036D01*
G37*
%TD*%
%TO.C,U39*%
G36*
X174042468Y-136526446D02*
G01*
X174476588Y-138988465D01*
X171965328Y-139431268D01*
X171531208Y-136969249D01*
X174042468Y-136526446D01*
G37*
G36*
X161262490Y-141359084D02*
G01*
X161696610Y-143821103D01*
X159185350Y-144263906D01*
X158751230Y-141801887D01*
X161262490Y-141359084D01*
G37*
G36*
X167887404Y-131478572D02*
G01*
X168043688Y-132364899D01*
X166271034Y-132677466D01*
X166114750Y-131791139D01*
X167887404Y-131478572D01*
G37*
G36*
X167626932Y-130001361D02*
G01*
X167783216Y-130887688D01*
X166010562Y-131200255D01*
X165854278Y-130313928D01*
X167626932Y-130001361D01*
G37*
G36*
X162766404Y-132381543D02*
G01*
X162922688Y-133267870D01*
X161150034Y-133580437D01*
X160993750Y-132694110D01*
X162766404Y-132381543D01*
G37*
G36*
X162505931Y-130904331D02*
G01*
X162662215Y-131790658D01*
X160889561Y-132103225D01*
X160733277Y-131216898D01*
X162505931Y-130904331D01*
G37*
%TD*%
%TO.C,U40*%
G36*
X181738223Y-130559439D02*
G01*
X181894507Y-131445766D01*
X180121853Y-131758333D01*
X179965569Y-130872006D01*
X181738223Y-130559439D01*
G37*
G36*
X181998696Y-132036651D02*
G01*
X182154980Y-132922978D01*
X180382326Y-133235545D01*
X180226042Y-132349218D01*
X181998696Y-132036651D01*
G37*
G36*
X186859224Y-129656469D02*
G01*
X187015508Y-130542796D01*
X185242854Y-130855363D01*
X185086570Y-129969036D01*
X186859224Y-129656469D01*
G37*
G36*
X187119696Y-131133680D02*
G01*
X187275980Y-132020007D01*
X185503326Y-132332574D01*
X185347042Y-131446247D01*
X187119696Y-131133680D01*
G37*
G36*
X180494782Y-141014192D02*
G01*
X180928902Y-143476211D01*
X178417642Y-143919014D01*
X177983522Y-141456995D01*
X180494782Y-141014192D01*
G37*
G36*
X193274760Y-136181554D02*
G01*
X193708880Y-138643573D01*
X191197620Y-139086376D01*
X190763500Y-136624357D01*
X193274760Y-136181554D01*
G37*
%TD*%
%TO.C,U41*%
G36*
X199407681Y-121351277D02*
G01*
X199563965Y-122237604D01*
X197791311Y-122550171D01*
X197635027Y-121663844D01*
X199407681Y-121351277D01*
G37*
G36*
X199668154Y-122828489D02*
G01*
X199824438Y-123714816D01*
X198051784Y-124027383D01*
X197895500Y-123141056D01*
X199668154Y-122828489D01*
G37*
G36*
X204528682Y-120448307D02*
G01*
X204684966Y-121334634D01*
X202912312Y-121647201D01*
X202756028Y-120760874D01*
X204528682Y-120448307D01*
G37*
G36*
X204789154Y-121925518D02*
G01*
X204945438Y-122811845D01*
X203172784Y-123124412D01*
X203016500Y-122238085D01*
X204789154Y-121925518D01*
G37*
G36*
X198164240Y-131806030D02*
G01*
X198598360Y-134268049D01*
X196087100Y-134710852D01*
X195652980Y-132248833D01*
X198164240Y-131806030D01*
G37*
G36*
X210944218Y-126973392D02*
G01*
X211378338Y-129435411D01*
X208867078Y-129878214D01*
X208432958Y-127416195D01*
X210944218Y-126973392D01*
G37*
%TD*%
%TO.C,U42*%
G36*
X228613676Y-117765230D02*
G01*
X229047796Y-120227249D01*
X226536536Y-120670052D01*
X226102416Y-118208033D01*
X228613676Y-117765230D01*
G37*
G36*
X215833698Y-122597868D02*
G01*
X216267818Y-125059887D01*
X213756558Y-125502690D01*
X213322438Y-123040671D01*
X215833698Y-122597868D01*
G37*
G36*
X222458612Y-112717356D02*
G01*
X222614896Y-113603683D01*
X220842242Y-113916250D01*
X220685958Y-113029923D01*
X222458612Y-112717356D01*
G37*
G36*
X222198140Y-111240145D02*
G01*
X222354424Y-112126472D01*
X220581770Y-112439039D01*
X220425486Y-111552712D01*
X222198140Y-111240145D01*
G37*
G36*
X217337612Y-113620327D02*
G01*
X217493896Y-114506654D01*
X215721242Y-114819221D01*
X215564958Y-113932894D01*
X217337612Y-113620327D01*
G37*
G36*
X217077139Y-112143115D02*
G01*
X217233423Y-113029442D01*
X215460769Y-113342009D01*
X215304485Y-112455682D01*
X217077139Y-112143115D01*
G37*
%TD*%
%TO.C,U43*%
G36*
X248193264Y-119389953D02*
G01*
X248627384Y-121851972D01*
X246116124Y-122294775D01*
X245682004Y-119832756D01*
X248193264Y-119389953D01*
G37*
G36*
X235413286Y-124222591D02*
G01*
X235847406Y-126684610D01*
X233336146Y-127127413D01*
X232902026Y-124665394D01*
X235413286Y-124222591D01*
G37*
G36*
X242038200Y-114342079D02*
G01*
X242194484Y-115228406D01*
X240421830Y-115540973D01*
X240265546Y-114654646D01*
X242038200Y-114342079D01*
G37*
G36*
X241777728Y-112864868D02*
G01*
X241934012Y-113751195D01*
X240161358Y-114063762D01*
X240005074Y-113177435D01*
X241777728Y-112864868D01*
G37*
G36*
X236917200Y-115245050D02*
G01*
X237073484Y-116131377D01*
X235300830Y-116443944D01*
X235144546Y-115557617D01*
X236917200Y-115245050D01*
G37*
G36*
X236656727Y-113767838D02*
G01*
X236813011Y-114654165D01*
X235040357Y-114966732D01*
X234884073Y-114080405D01*
X236656727Y-113767838D01*
G37*
%TD*%
%TO.C,U44*%
G36*
X267425556Y-119045061D02*
G01*
X267859676Y-121507080D01*
X265348416Y-121949883D01*
X264914296Y-119487864D01*
X267425556Y-119045061D01*
G37*
G36*
X254645578Y-123877699D02*
G01*
X255079698Y-126339718D01*
X252568438Y-126782521D01*
X252134318Y-124320502D01*
X254645578Y-123877699D01*
G37*
G36*
X261270492Y-113997187D02*
G01*
X261426776Y-114883514D01*
X259654122Y-115196081D01*
X259497838Y-114309754D01*
X261270492Y-113997187D01*
G37*
G36*
X261010020Y-112519976D02*
G01*
X261166304Y-113406303D01*
X259393650Y-113718870D01*
X259237366Y-112832543D01*
X261010020Y-112519976D01*
G37*
G36*
X256149492Y-114900158D02*
G01*
X256305776Y-115786485D01*
X254533122Y-116099052D01*
X254376838Y-115212725D01*
X256149492Y-114900158D01*
G37*
G36*
X255889019Y-113422946D02*
G01*
X256045303Y-114309273D01*
X254272649Y-114621840D01*
X254116365Y-113735513D01*
X255889019Y-113422946D01*
G37*
%TD*%
M02*
