%TF.GenerationSoftware,KiCad,Pcbnew,(5.1.10)-1*%
%TF.CreationDate,2021-09-29T15:51:44-06:00*%
%TF.ProjectId,VColMX44,56436f6c-4d58-4343-942e-6b696361645f,rev?*%
%TF.SameCoordinates,Original*%
%TF.FileFunction,Profile,NP*%
%FSLAX46Y46*%
G04 Gerber Fmt 4.6, Leading zero omitted, Abs format (unit mm)*
G04 Created by KiCad (PCBNEW (5.1.10)-1) date 2021-09-29 15:51:44*
%MOMM*%
%LPD*%
G01*
G04 APERTURE LIST*
%TA.AperFunction,Profile*%
%ADD10C,0.050000*%
%TD*%
G04 APERTURE END LIST*
D10*
X259499999Y-52506807D02*
G75*
G03*
X256540820Y-49999998I-2959184J-493192D01*
G01*
X40540818Y-52506803D02*
G75*
G02*
X43500000Y-50000000I2959182J-493197D01*
G01*
X272999997Y-130000000D02*
X273000000Y-129000000D01*
X27000000Y-130000000D02*
X27000000Y-129000000D01*
X272999997Y-130000000D02*
G75*
G02*
X271894426Y-131788852I-1999997J0D01*
G01*
X28105573Y-131788854D02*
G75*
G02*
X27000000Y-130000000I894427J1788854D01*
G01*
X28105573Y-131788854D02*
X122000000Y-148000000D01*
X178000000Y-148000000D02*
X271894426Y-131788852D01*
X43500000Y-50000000D02*
X150000000Y-50000000D01*
X27000000Y-129000000D02*
X40540818Y-52506803D01*
X150000000Y-148000000D02*
X122000000Y-148000000D01*
X178000000Y-148000000D02*
X150000000Y-148000000D01*
X259499999Y-52506807D02*
X273000000Y-129000000D01*
X150000000Y-50000000D02*
X256540820Y-49999998D01*
%TO.C,U1*%
X53540076Y-59947885D02*
X50191730Y-59357482D01*
X50191730Y-59357482D02*
X50712674Y-56403058D01*
X50712674Y-56403058D02*
X54061021Y-56993462D01*
X54061021Y-56993462D02*
X53540076Y-59947885D01*
%TO.C,U2*%
X72772368Y-60292777D02*
X69424022Y-59702374D01*
X69424022Y-59702374D02*
X69944966Y-56747950D01*
X69944966Y-56747950D02*
X73293313Y-57338354D01*
X73293313Y-57338354D02*
X72772368Y-60292777D01*
%TO.C,U3*%
X92872901Y-55713631D02*
X92351956Y-58668054D01*
X89524554Y-55123227D02*
X92872901Y-55713631D01*
X89003610Y-58077651D02*
X89524554Y-55123227D01*
X92351956Y-58668054D02*
X89003610Y-58077651D01*
%TO.C,U4*%
X110021414Y-67876216D02*
X106673068Y-67285813D01*
X106673068Y-67285813D02*
X107194012Y-64331389D01*
X107194012Y-64331389D02*
X110542359Y-64921793D01*
X110542359Y-64921793D02*
X110021414Y-67876216D01*
%TO.C,U5*%
X127690872Y-77084378D02*
X124342526Y-76493975D01*
X124342526Y-76493975D02*
X124863470Y-73539551D01*
X124863470Y-73539551D02*
X128211817Y-74129955D01*
X128211817Y-74129955D02*
X127690872Y-77084378D01*
%TO.C,U6*%
X140324534Y-114851965D02*
X136976188Y-114261562D01*
X136976188Y-114261562D02*
X137497132Y-111307138D01*
X137497132Y-111307138D02*
X140845479Y-111897542D01*
X140845479Y-111897542D02*
X140324534Y-114851965D01*
%TO.C,U7*%
X175136530Y-73539551D02*
X175657474Y-76493975D01*
X171788183Y-74129955D02*
X175136530Y-73539551D01*
X172309128Y-77084378D02*
X171788183Y-74129955D01*
X175657474Y-76493975D02*
X172309128Y-77084378D01*
%TO.C,U8*%
X193326932Y-67285813D02*
X189978586Y-67876216D01*
X189978586Y-67876216D02*
X189457641Y-64921793D01*
X189457641Y-64921793D02*
X192805988Y-64331389D01*
X192805988Y-64331389D02*
X193326932Y-67285813D01*
%TO.C,U9*%
X210996390Y-58077651D02*
X207648044Y-58668054D01*
X207648044Y-58668054D02*
X207127099Y-55713631D01*
X207127099Y-55713631D02*
X210475446Y-55123227D01*
X210475446Y-55123227D02*
X210996390Y-58077651D01*
%TO.C,U10*%
X230055034Y-56747950D02*
X230575978Y-59702374D01*
X226706687Y-57338354D02*
X230055034Y-56747950D01*
X227227632Y-60292777D02*
X226706687Y-57338354D01*
X230575978Y-59702374D02*
X227227632Y-60292777D01*
%TO.C,U11*%
X249287326Y-56403058D02*
X249808270Y-59357482D01*
X245938979Y-56993462D02*
X249287326Y-56403058D01*
X246459924Y-59947885D02*
X245938979Y-56993462D01*
X249808270Y-59357482D02*
X246459924Y-59947885D01*
%TO.C,U12*%
X50240761Y-78659233D02*
X46892415Y-78068830D01*
X46892415Y-78068830D02*
X47413359Y-75114406D01*
X47413359Y-75114406D02*
X50761706Y-75704810D01*
X50761706Y-75704810D02*
X50240761Y-78659233D01*
%TO.C,U13*%
X69473052Y-79004125D02*
X66124706Y-78413722D01*
X66124706Y-78413722D02*
X66645650Y-75459298D01*
X66645650Y-75459298D02*
X69993997Y-76049702D01*
X69993997Y-76049702D02*
X69473052Y-79004125D01*
%TO.C,U14*%
X89573586Y-74424980D02*
X89052641Y-77379403D01*
X86225239Y-73834576D02*
X89573586Y-74424980D01*
X85704295Y-76789000D02*
X86225239Y-73834576D01*
X89052641Y-77379403D02*
X85704295Y-76789000D01*
%TO.C,U15*%
X107243044Y-83633140D02*
X106722099Y-86587563D01*
X103894697Y-83042736D02*
X107243044Y-83633140D01*
X103373753Y-85997160D02*
X103894697Y-83042736D01*
X106722099Y-86587563D02*
X103373753Y-85997160D01*
%TO.C,U16*%
X124391557Y-95795725D02*
X121043211Y-95205322D01*
X121043211Y-95205322D02*
X121564155Y-92250898D01*
X121564155Y-92250898D02*
X124912502Y-92841302D01*
X124912502Y-92841302D02*
X124391557Y-95795725D01*
%TO.C,U17*%
X137025218Y-133563312D02*
X133676872Y-132972909D01*
X133676872Y-132972909D02*
X134197816Y-130018485D01*
X134197816Y-130018485D02*
X137546163Y-130608889D01*
X137546163Y-130608889D02*
X137025218Y-133563312D01*
%TO.C,U18*%
X178435845Y-92250898D02*
X178956789Y-95205322D01*
X175087498Y-92841302D02*
X178435845Y-92250898D01*
X175608443Y-95795725D02*
X175087498Y-92841302D01*
X178956789Y-95205322D02*
X175608443Y-95795725D01*
%TO.C,U19*%
X196626247Y-85997160D02*
X193277901Y-86587563D01*
X193277901Y-86587563D02*
X192756956Y-83633140D01*
X192756956Y-83633140D02*
X196105303Y-83042736D01*
X196105303Y-83042736D02*
X196626247Y-85997160D01*
%TO.C,U20*%
X214295705Y-76789000D02*
X210947359Y-77379403D01*
X210947359Y-77379403D02*
X210426414Y-74424980D01*
X210426414Y-74424980D02*
X213774761Y-73834576D01*
X213774761Y-73834576D02*
X214295705Y-76789000D01*
%TO.C,U21*%
X233354350Y-75459298D02*
X233875294Y-78413722D01*
X230006003Y-76049702D02*
X233354350Y-75459298D01*
X230526948Y-79004125D02*
X230006003Y-76049702D01*
X233875294Y-78413722D02*
X230526948Y-79004125D01*
%TO.C,U22*%
X252586641Y-75114406D02*
X253107585Y-78068830D01*
X249238294Y-75704810D02*
X252586641Y-75114406D01*
X249759239Y-78659233D02*
X249238294Y-75704810D01*
X253107585Y-78068830D02*
X249759239Y-78659233D01*
%TO.C,U23*%
X46941445Y-97370580D02*
X43593099Y-96780177D01*
X43593099Y-96780177D02*
X44114043Y-93825753D01*
X44114043Y-93825753D02*
X47462390Y-94416157D01*
X47462390Y-94416157D02*
X46941445Y-97370580D01*
%TO.C,U24*%
X66173735Y-97715472D02*
X62825389Y-97125069D01*
X62825389Y-97125069D02*
X63346333Y-94170645D01*
X63346333Y-94170645D02*
X66694680Y-94761049D01*
X66694680Y-94761049D02*
X66173735Y-97715472D01*
%TO.C,U25*%
X85753325Y-96090749D02*
X82404979Y-95500346D01*
X82404979Y-95500346D02*
X82925923Y-92545922D01*
X82925923Y-92545922D02*
X86274270Y-93136326D01*
X86274270Y-93136326D02*
X85753325Y-96090749D01*
%TO.C,U26*%
X103422783Y-105298911D02*
X100074437Y-104708508D01*
X100074437Y-104708508D02*
X100595381Y-101754084D01*
X100595381Y-101754084D02*
X103943728Y-102344488D01*
X103943728Y-102344488D02*
X103422783Y-105298911D01*
%TO.C,U27*%
X121613187Y-111552649D02*
X121092242Y-114507072D01*
X118264840Y-110962245D02*
X121613187Y-111552649D01*
X117743896Y-113916669D02*
X118264840Y-110962245D01*
X121092242Y-114507072D02*
X117743896Y-113916669D01*
%TO.C,U28*%
X162502868Y-111307138D02*
X163023812Y-114261562D01*
X159154521Y-111897542D02*
X162502868Y-111307138D01*
X159675466Y-114851965D02*
X159154521Y-111897542D01*
X163023812Y-114261562D02*
X159675466Y-114851965D01*
%TO.C,U29*%
X181735160Y-110962245D02*
X182256104Y-113916669D01*
X178386813Y-111552649D02*
X181735160Y-110962245D01*
X178907758Y-114507072D02*
X178386813Y-111552649D01*
X182256104Y-113916669D02*
X178907758Y-114507072D01*
%TO.C,U30*%
X199925563Y-104708508D02*
X196577217Y-105298911D01*
X196577217Y-105298911D02*
X196056272Y-102344488D01*
X196056272Y-102344488D02*
X199404619Y-101754084D01*
X199404619Y-101754084D02*
X199925563Y-104708508D01*
%TO.C,U31*%
X217074077Y-92545922D02*
X217595021Y-95500346D01*
X213725730Y-93136326D02*
X217074077Y-92545922D01*
X214246675Y-96090749D02*
X213725730Y-93136326D01*
X217595021Y-95500346D02*
X214246675Y-96090749D01*
%TO.C,U32*%
X236653667Y-94170645D02*
X237174611Y-97125069D01*
X233305320Y-94761049D02*
X236653667Y-94170645D01*
X233826265Y-97715472D02*
X233305320Y-94761049D01*
X237174611Y-97125069D02*
X233826265Y-97715472D01*
%TO.C,U33*%
X255885957Y-93825753D02*
X256406901Y-96780177D01*
X252537610Y-94416157D02*
X255885957Y-93825753D01*
X253058555Y-97370580D02*
X252537610Y-94416157D01*
X256406901Y-96780177D02*
X253058555Y-97370580D01*
%TO.C,U34*%
X44163075Y-113127504D02*
X43642130Y-116081927D01*
X40814728Y-112537100D02*
X44163075Y-113127504D01*
X40293784Y-115491524D02*
X40814728Y-112537100D01*
X43642130Y-116081927D02*
X40293784Y-115491524D01*
%TO.C,U35*%
X63395367Y-113472396D02*
X62874422Y-116426819D01*
X60047020Y-112881992D02*
X63395367Y-113472396D01*
X59526076Y-115836416D02*
X60047020Y-112881992D01*
X62874422Y-116426819D02*
X59526076Y-115836416D01*
%TO.C,U36*%
X82454010Y-114802096D02*
X79105664Y-114211693D01*
X79105664Y-114211693D02*
X79626608Y-111257269D01*
X79626608Y-111257269D02*
X82974955Y-111847673D01*
X82974955Y-111847673D02*
X82454010Y-114802096D01*
%TO.C,U37*%
X100123468Y-124010258D02*
X96775122Y-123419855D01*
X96775122Y-123419855D02*
X97296066Y-120465431D01*
X97296066Y-120465431D02*
X100644413Y-121055835D01*
X100644413Y-121055835D02*
X100123468Y-124010258D01*
%TO.C,U38*%
X118313871Y-130263997D02*
X117792926Y-133218420D01*
X114965524Y-129673593D02*
X118313871Y-130263997D01*
X114444580Y-132628017D02*
X114965524Y-129673593D01*
X117792926Y-133218420D02*
X114444580Y-132628017D01*
%TO.C,U39*%
X165802184Y-130018485D02*
X166323128Y-132972909D01*
X162453837Y-130608889D02*
X165802184Y-130018485D01*
X162974782Y-133563312D02*
X162453837Y-130608889D01*
X166323128Y-132972909D02*
X162974782Y-133563312D01*
%TO.C,U40*%
X185555420Y-132628017D02*
X182207074Y-133218420D01*
X182207074Y-133218420D02*
X181686129Y-130263997D01*
X181686129Y-130263997D02*
X185034476Y-129673593D01*
X185034476Y-129673593D02*
X185555420Y-132628017D01*
%TO.C,U41*%
X203224878Y-123419855D02*
X199876532Y-124010258D01*
X199876532Y-124010258D02*
X199355587Y-121055835D01*
X199355587Y-121055835D02*
X202703934Y-120465431D01*
X202703934Y-120465431D02*
X203224878Y-123419855D01*
%TO.C,U42*%
X220373392Y-111257269D02*
X220894336Y-114211693D01*
X217025045Y-111847673D02*
X220373392Y-111257269D01*
X217545990Y-114802096D02*
X217025045Y-111847673D01*
X220894336Y-114211693D02*
X217545990Y-114802096D01*
%TO.C,U43*%
X239952980Y-112881992D02*
X240473924Y-115836416D01*
X236604633Y-113472396D02*
X239952980Y-112881992D01*
X237125578Y-116426819D02*
X236604633Y-113472396D01*
X240473924Y-115836416D02*
X237125578Y-116426819D01*
%TO.C,U44*%
X259185272Y-112537100D02*
X259706216Y-115491524D01*
X255836925Y-113127504D02*
X259185272Y-112537100D01*
X256357870Y-116081927D02*
X255836925Y-113127504D01*
X259706216Y-115491524D02*
X256357870Y-116081927D01*
%TD*%
M02*
