%TF.GenerationSoftware,KiCad,Pcbnew,(5.1.10)-1*%
%TF.CreationDate,2021-09-29T15:51:44-06:00*%
%TF.ProjectId,VColMX44,56436f6c-4d58-4343-942e-6b696361645f,rev?*%
%TF.SameCoordinates,Original*%
%TF.FileFunction,Legend,Top*%
%TF.FilePolarity,Positive*%
%FSLAX46Y46*%
G04 Gerber Fmt 4.6, Leading zero omitted, Abs format (unit mm)*
G04 Created by KiCad (PCBNEW (5.1.10)-1) date 2021-09-29 15:51:44*
%MOMM*%
%LPD*%
G01*
G04 APERTURE LIST*
%ADD10C,0.120000*%
G04 APERTURE END LIST*
D10*
%TO.C,U1*%
X45571335Y-55039559D02*
X59358644Y-57470634D01*
X43140260Y-68826868D02*
X45571335Y-55039559D01*
X56927569Y-71257943D02*
X43140260Y-68826868D01*
X56927569Y-71257943D02*
X59358644Y-57470634D01*
%TO.C,U2*%
X64803627Y-55384451D02*
X78590936Y-57815526D01*
X62372552Y-69171760D02*
X64803627Y-55384451D01*
X76159861Y-71602835D02*
X62372552Y-69171760D01*
X76159861Y-71602835D02*
X78590936Y-57815526D01*
%TO.C,U3*%
X95739449Y-69978112D02*
X98170524Y-56190803D01*
X95739449Y-69978112D02*
X81952140Y-67547037D01*
X81952140Y-67547037D02*
X84383215Y-53759728D01*
X84383215Y-53759728D02*
X98170524Y-56190803D01*
%TO.C,U4*%
X102052673Y-62967890D02*
X115839982Y-65398965D01*
X99621598Y-76755199D02*
X102052673Y-62967890D01*
X113408907Y-79186274D02*
X99621598Y-76755199D01*
X113408907Y-79186274D02*
X115839982Y-65398965D01*
%TO.C,U5*%
X119722131Y-72176052D02*
X133509440Y-74607127D01*
X117291056Y-85963361D02*
X119722131Y-72176052D01*
X131078365Y-88394436D02*
X117291056Y-85963361D01*
X131078365Y-88394436D02*
X133509440Y-74607127D01*
%TO.C,U6*%
X132355793Y-109943639D02*
X146143102Y-112374714D01*
X129924718Y-123730948D02*
X132355793Y-109943639D01*
X143712027Y-126162023D02*
X129924718Y-123730948D01*
X143712027Y-126162023D02*
X146143102Y-112374714D01*
%TO.C,U7*%
X182708944Y-85963361D02*
X180277869Y-72176052D01*
X182708944Y-85963361D02*
X168921635Y-88394436D01*
X168921635Y-88394436D02*
X166490560Y-74607127D01*
X166490560Y-74607127D02*
X180277869Y-72176052D01*
%TO.C,U8*%
X184160018Y-65398965D02*
X197947327Y-62967890D01*
X186591093Y-79186274D02*
X184160018Y-65398965D01*
X200378402Y-76755199D02*
X186591093Y-79186274D01*
X200378402Y-76755199D02*
X197947327Y-62967890D01*
%TO.C,U9*%
X201829476Y-56190803D02*
X215616785Y-53759728D01*
X204260551Y-69978112D02*
X201829476Y-56190803D01*
X218047860Y-67547037D02*
X204260551Y-69978112D01*
X218047860Y-67547037D02*
X215616785Y-53759728D01*
%TO.C,U10*%
X237627448Y-69171760D02*
X235196373Y-55384451D01*
X237627448Y-69171760D02*
X223840139Y-71602835D01*
X223840139Y-71602835D02*
X221409064Y-57815526D01*
X221409064Y-57815526D02*
X235196373Y-55384451D01*
%TO.C,U11*%
X256859740Y-68826868D02*
X254428665Y-55039559D01*
X256859740Y-68826868D02*
X243072431Y-71257943D01*
X243072431Y-71257943D02*
X240641356Y-57470634D01*
X240641356Y-57470634D02*
X254428665Y-55039559D01*
%TO.C,U12*%
X42272020Y-73750907D02*
X56059329Y-76181982D01*
X39840945Y-87538216D02*
X42272020Y-73750907D01*
X53628254Y-89969291D02*
X39840945Y-87538216D01*
X53628254Y-89969291D02*
X56059329Y-76181982D01*
%TO.C,U13*%
X61504311Y-74095799D02*
X75291620Y-76526874D01*
X59073236Y-87883108D02*
X61504311Y-74095799D01*
X72860545Y-90314183D02*
X59073236Y-87883108D01*
X72860545Y-90314183D02*
X75291620Y-76526874D01*
%TO.C,U14*%
X92440134Y-88689461D02*
X94871209Y-74902152D01*
X92440134Y-88689461D02*
X78652825Y-86258386D01*
X78652825Y-86258386D02*
X81083900Y-72471077D01*
X81083900Y-72471077D02*
X94871209Y-74902152D01*
%TO.C,U15*%
X110109592Y-97897621D02*
X112540667Y-84110312D01*
X110109592Y-97897621D02*
X96322283Y-95466546D01*
X96322283Y-95466546D02*
X98753358Y-81679237D01*
X98753358Y-81679237D02*
X112540667Y-84110312D01*
%TO.C,U16*%
X116422816Y-90887399D02*
X130210125Y-93318474D01*
X113991741Y-104674708D02*
X116422816Y-90887399D01*
X127779050Y-107105783D02*
X113991741Y-104674708D01*
X127779050Y-107105783D02*
X130210125Y-93318474D01*
%TO.C,U17*%
X129056477Y-128654986D02*
X142843786Y-131086061D01*
X126625402Y-142442295D02*
X129056477Y-128654986D01*
X140412711Y-144873370D02*
X126625402Y-142442295D01*
X140412711Y-144873370D02*
X142843786Y-131086061D01*
%TO.C,U18*%
X186008259Y-104674708D02*
X183577184Y-90887399D01*
X186008259Y-104674708D02*
X172220950Y-107105783D01*
X172220950Y-107105783D02*
X169789875Y-93318474D01*
X169789875Y-93318474D02*
X183577184Y-90887399D01*
%TO.C,U19*%
X187459333Y-84110312D02*
X201246642Y-81679237D01*
X189890408Y-97897621D02*
X187459333Y-84110312D01*
X203677717Y-95466546D02*
X189890408Y-97897621D01*
X203677717Y-95466546D02*
X201246642Y-81679237D01*
%TO.C,U20*%
X205128791Y-74902152D02*
X218916100Y-72471077D01*
X207559866Y-88689461D02*
X205128791Y-74902152D01*
X221347175Y-86258386D02*
X207559866Y-88689461D01*
X221347175Y-86258386D02*
X218916100Y-72471077D01*
%TO.C,U21*%
X240926764Y-87883108D02*
X238495689Y-74095799D01*
X240926764Y-87883108D02*
X227139455Y-90314183D01*
X227139455Y-90314183D02*
X224708380Y-76526874D01*
X224708380Y-76526874D02*
X238495689Y-74095799D01*
%TO.C,U22*%
X260159055Y-87538216D02*
X257727980Y-73750907D01*
X260159055Y-87538216D02*
X246371746Y-89969291D01*
X246371746Y-89969291D02*
X243940671Y-76181982D01*
X243940671Y-76181982D02*
X257727980Y-73750907D01*
%TO.C,U23*%
X38972704Y-92462254D02*
X52760013Y-94893329D01*
X36541629Y-106249563D02*
X38972704Y-92462254D01*
X50328938Y-108680638D02*
X36541629Y-106249563D01*
X50328938Y-108680638D02*
X52760013Y-94893329D01*
%TO.C,U24*%
X58204994Y-92807146D02*
X71992303Y-95238221D01*
X55773919Y-106594455D02*
X58204994Y-92807146D01*
X69561228Y-109025530D02*
X55773919Y-106594455D01*
X69561228Y-109025530D02*
X71992303Y-95238221D01*
%TO.C,U25*%
X77784584Y-91182423D02*
X91571893Y-93613498D01*
X75353509Y-104969732D02*
X77784584Y-91182423D01*
X89140818Y-107400807D02*
X75353509Y-104969732D01*
X89140818Y-107400807D02*
X91571893Y-93613498D01*
%TO.C,U26*%
X95454042Y-100390585D02*
X109241351Y-102821660D01*
X93022967Y-114177894D02*
X95454042Y-100390585D01*
X106810276Y-116608969D02*
X93022967Y-114177894D01*
X106810276Y-116608969D02*
X109241351Y-102821660D01*
%TO.C,U27*%
X124479735Y-125817130D02*
X126910810Y-112029821D01*
X124479735Y-125817130D02*
X110692426Y-123386055D01*
X110692426Y-123386055D02*
X113123501Y-109598746D01*
X113123501Y-109598746D02*
X126910810Y-112029821D01*
%TO.C,U28*%
X170075282Y-123730948D02*
X167644207Y-109943639D01*
X170075282Y-123730948D02*
X156287973Y-126162023D01*
X156287973Y-126162023D02*
X153856898Y-112374714D01*
X153856898Y-112374714D02*
X167644207Y-109943639D01*
%TO.C,U29*%
X189307574Y-123386055D02*
X186876499Y-109598746D01*
X189307574Y-123386055D02*
X175520265Y-125817130D01*
X175520265Y-125817130D02*
X173089190Y-112029821D01*
X173089190Y-112029821D02*
X186876499Y-109598746D01*
%TO.C,U30*%
X190758649Y-102821660D02*
X204545958Y-100390585D01*
X193189724Y-116608969D02*
X190758649Y-102821660D01*
X206977033Y-114177894D02*
X193189724Y-116608969D01*
X206977033Y-114177894D02*
X204545958Y-100390585D01*
%TO.C,U31*%
X224646491Y-104969732D02*
X222215416Y-91182423D01*
X224646491Y-104969732D02*
X210859182Y-107400807D01*
X210859182Y-107400807D02*
X208428107Y-93613498D01*
X208428107Y-93613498D02*
X222215416Y-91182423D01*
%TO.C,U32*%
X244226081Y-106594455D02*
X241795006Y-92807146D01*
X244226081Y-106594455D02*
X230438772Y-109025530D01*
X230438772Y-109025530D02*
X228007697Y-95238221D01*
X228007697Y-95238221D02*
X241795006Y-92807146D01*
%TO.C,U33*%
X263458371Y-106249563D02*
X261027296Y-92462254D01*
X263458371Y-106249563D02*
X249671062Y-108680638D01*
X249671062Y-108680638D02*
X247239987Y-94893329D01*
X247239987Y-94893329D02*
X261027296Y-92462254D01*
%TO.C,U34*%
X47029623Y-127391985D02*
X49460698Y-113604676D01*
X47029623Y-127391985D02*
X33242314Y-124960910D01*
X33242314Y-124960910D02*
X35673389Y-111173601D01*
X35673389Y-111173601D02*
X49460698Y-113604676D01*
%TO.C,U35*%
X66261915Y-127736877D02*
X68692990Y-113949568D01*
X66261915Y-127736877D02*
X52474606Y-125305802D01*
X52474606Y-125305802D02*
X54905681Y-111518493D01*
X54905681Y-111518493D02*
X68692990Y-113949568D01*
%TO.C,U36*%
X74485269Y-109893770D02*
X88272578Y-112324845D01*
X72054194Y-123681079D02*
X74485269Y-109893770D01*
X85841503Y-126112154D02*
X72054194Y-123681079D01*
X85841503Y-126112154D02*
X88272578Y-112324845D01*
%TO.C,U37*%
X92154727Y-119101932D02*
X105942036Y-121533007D01*
X89723652Y-132889241D02*
X92154727Y-119101932D01*
X103510961Y-135320316D02*
X89723652Y-132889241D01*
X103510961Y-135320316D02*
X105942036Y-121533007D01*
%TO.C,U38*%
X121180419Y-144528478D02*
X123611494Y-130741169D01*
X121180419Y-144528478D02*
X107393110Y-142097403D01*
X107393110Y-142097403D02*
X109824185Y-128310094D01*
X109824185Y-128310094D02*
X123611494Y-130741169D01*
%TO.C,U39*%
X173374598Y-142442295D02*
X170943523Y-128654986D01*
X173374598Y-142442295D02*
X159587289Y-144873370D01*
X159587289Y-144873370D02*
X157156214Y-131086061D01*
X157156214Y-131086061D02*
X170943523Y-128654986D01*
%TO.C,U40*%
X176388506Y-130741169D02*
X190175815Y-128310094D01*
X178819581Y-144528478D02*
X176388506Y-130741169D01*
X192606890Y-142097403D02*
X178819581Y-144528478D01*
X192606890Y-142097403D02*
X190175815Y-128310094D01*
%TO.C,U41*%
X194057964Y-121533007D02*
X207845273Y-119101932D01*
X196489039Y-135320316D02*
X194057964Y-121533007D01*
X210276348Y-132889241D02*
X196489039Y-135320316D01*
X210276348Y-132889241D02*
X207845273Y-119101932D01*
%TO.C,U42*%
X227945806Y-123681079D02*
X225514731Y-109893770D01*
X227945806Y-123681079D02*
X214158497Y-126112154D01*
X214158497Y-126112154D02*
X211727422Y-112324845D01*
X211727422Y-112324845D02*
X225514731Y-109893770D01*
%TO.C,U43*%
X247525394Y-125305802D02*
X245094319Y-111518493D01*
X247525394Y-125305802D02*
X233738085Y-127736877D01*
X233738085Y-127736877D02*
X231307010Y-113949568D01*
X231307010Y-113949568D02*
X245094319Y-111518493D01*
%TO.C,U44*%
X266757686Y-124960910D02*
X264326611Y-111173601D01*
X266757686Y-124960910D02*
X252970377Y-127391985D01*
X252970377Y-127391985D02*
X250539302Y-113604676D01*
X250539302Y-113604676D02*
X264326611Y-111173601D01*
%TD*%
M02*
