%TF.GenerationSoftware,KiCad,Pcbnew,(5.1.10)-1*%
%TF.CreationDate,2021-09-29T15:51:44-06:00*%
%TF.ProjectId,VColMX44,56436f6c-4d58-4343-942e-6b696361645f,rev?*%
%TF.SameCoordinates,Original*%
%TF.FileFunction,Legend,Bot*%
%TF.FilePolarity,Positive*%
%FSLAX46Y46*%
G04 Gerber Fmt 4.6, Leading zero omitted, Abs format (unit mm)*
G04 Created by KiCad (PCBNEW (5.1.10)-1) date 2021-09-29 15:51:44*
%MOMM*%
%LPD*%
G01*
G04 APERTURE LIST*
%ADD10C,0.150000*%
%ADD11C,0.300000*%
%ADD12C,0.120000*%
G04 APERTURE END LIST*
D10*
X249135842Y-127774007D02*
X249604798Y-127691317D01*
X249431150Y-126706510D01*
X248807573Y-127831890D02*
X248691807Y-127175351D01*
X248633924Y-126847082D02*
X248689089Y-126885708D01*
X248650462Y-126940873D01*
X248595298Y-126902246D01*
X248633924Y-126847082D01*
X248650462Y-126940873D01*
X247908287Y-127942104D02*
X248010347Y-127972462D01*
X248197930Y-127939386D01*
X248283452Y-127875953D01*
X248322079Y-127820788D01*
X248352436Y-127718728D01*
X248302822Y-127437354D01*
X248239389Y-127351832D01*
X248184224Y-127313205D01*
X248082164Y-127282848D01*
X247894582Y-127315923D01*
X247809059Y-127379357D01*
X247111062Y-128082677D02*
X247213122Y-128113034D01*
X247400704Y-128079958D01*
X247486227Y-128016525D01*
X247516584Y-127914465D01*
X247450433Y-127539300D01*
X247386999Y-127453778D01*
X247284939Y-127423420D01*
X247097356Y-127456496D01*
X247011834Y-127519929D01*
X246981476Y-127621989D01*
X246998014Y-127715781D01*
X247483508Y-127726882D01*
X246534609Y-127555723D02*
X246650375Y-128212262D01*
X246551147Y-127649515D02*
X246495982Y-127610888D01*
X246393922Y-127580530D01*
X246253235Y-127605337D01*
X246167713Y-127668771D01*
X246137356Y-127770831D01*
X246228314Y-128286682D01*
X245797985Y-128314207D02*
X245712462Y-128377641D01*
X245524880Y-128410717D01*
X245422820Y-128380359D01*
X245359386Y-128294837D01*
X245351117Y-128247941D01*
X245381475Y-128145881D01*
X245466997Y-128082448D01*
X245607684Y-128057641D01*
X245693206Y-127994207D01*
X245723564Y-127892147D01*
X245715295Y-127845251D01*
X245651862Y-127759729D01*
X245549801Y-127729371D01*
X245409115Y-127754178D01*
X245323592Y-127817612D01*
X244578699Y-128529200D02*
X244680759Y-128559558D01*
X244868341Y-128526482D01*
X244953864Y-128463049D01*
X244984221Y-128360989D01*
X244918070Y-127985824D01*
X244854636Y-127900301D01*
X244752576Y-127869944D01*
X244564994Y-127903020D01*
X244479471Y-127966453D01*
X244449114Y-128068513D01*
X244465652Y-128162305D01*
X244951146Y-128173406D01*
X244101474Y-128564994D02*
X244062847Y-128620159D01*
X244118012Y-128658786D01*
X244156638Y-128603621D01*
X244101474Y-128564994D01*
X244118012Y-128658786D01*
X244010515Y-128049143D02*
X243971889Y-128104307D01*
X244027053Y-128142934D01*
X244065680Y-128087769D01*
X244010515Y-128049143D01*
X244027053Y-128142934D01*
X242319441Y-128879215D02*
X242374605Y-128917842D01*
X242523561Y-128939930D01*
X242617352Y-128923392D01*
X242749770Y-128851690D01*
X242827024Y-128741361D01*
X242857381Y-128639301D01*
X242871201Y-128443449D01*
X242846394Y-128302762D01*
X242766423Y-128123449D01*
X242702989Y-128037927D01*
X242592660Y-127960673D01*
X242443704Y-127938585D01*
X242349913Y-127955123D01*
X242217495Y-128026825D01*
X242178868Y-128081990D01*
X241822960Y-128531575D02*
X241494690Y-128589458D01*
X241444962Y-129130116D02*
X241913918Y-129047427D01*
X241740270Y-128062619D01*
X241271314Y-128145309D01*
X240460154Y-129303765D02*
X240705734Y-128776926D01*
X241022902Y-129204537D02*
X240849254Y-128219729D01*
X240474089Y-128285881D01*
X240388566Y-128349315D01*
X240349940Y-128404479D01*
X240319582Y-128506539D01*
X240344389Y-128647226D01*
X240407822Y-128732748D01*
X240462987Y-128771375D01*
X240565047Y-128801733D01*
X240940212Y-128735581D01*
X240038094Y-129378185D02*
X239864446Y-128393378D01*
X239475347Y-129477413D01*
X239301698Y-128492605D01*
X238940239Y-129184938D02*
X238189909Y-129317241D01*
X237425874Y-128823363D02*
X237238292Y-128856439D01*
X237152770Y-128919873D01*
X237075516Y-129030202D01*
X237061696Y-129226053D01*
X237119579Y-129554323D01*
X237199551Y-129733636D01*
X237309880Y-129810889D01*
X237411940Y-129841247D01*
X237599522Y-129808171D01*
X237685045Y-129744738D01*
X237762298Y-129634409D01*
X237776118Y-129438557D01*
X237718235Y-129110288D01*
X237638264Y-128930974D01*
X237527934Y-128853721D01*
X237425874Y-128823363D01*
X236755401Y-129957013D02*
X236581753Y-128972205D01*
X236664443Y-129441161D02*
X236101696Y-129540388D01*
X236192654Y-130056240D02*
X236019006Y-129071432D01*
X235254742Y-130221619D02*
X235723698Y-130138930D01*
X235550050Y-129154122D01*
X234860321Y-129904337D02*
X234109991Y-130036641D01*
X233627330Y-129493149D02*
X233566500Y-130519302D01*
X233254883Y-129848944D01*
X233191335Y-130585454D01*
X232783209Y-129641991D01*
X230330703Y-131089860D02*
X230157055Y-130105052D01*
X229908643Y-131164281D02*
X229817684Y-130648429D01*
X229848042Y-130546369D01*
X229933564Y-130482935D01*
X230074251Y-130458129D01*
X230176311Y-130488486D01*
X230231476Y-130527113D01*
X229464608Y-130565625D02*
X229089443Y-130631777D01*
X229266039Y-130262163D02*
X229414880Y-131106284D01*
X229384522Y-131208344D01*
X229299000Y-131271777D01*
X229205209Y-131288315D01*
X228901861Y-130664853D02*
X228526696Y-130731004D01*
X228703291Y-130361390D02*
X228852133Y-131205511D01*
X228821775Y-131307571D01*
X228736253Y-131371005D01*
X228642461Y-131387543D01*
X228198427Y-130788887D02*
X228372075Y-131773695D01*
X228206696Y-130835783D02*
X228104635Y-130805425D01*
X227917053Y-130838501D01*
X227831531Y-130901934D01*
X227792904Y-130957099D01*
X227762546Y-131059159D01*
X227812160Y-131340533D01*
X227875594Y-131426055D01*
X227930758Y-131464682D01*
X228032818Y-131495039D01*
X228220401Y-131461963D01*
X228305923Y-131398530D01*
X227461802Y-131547371D02*
X227376280Y-131610805D01*
X227188698Y-131643881D01*
X227086637Y-131613523D01*
X227023204Y-131528001D01*
X227014935Y-131481105D01*
X227045293Y-131379045D01*
X227130815Y-131315611D01*
X227271502Y-131290804D01*
X227357024Y-131227371D01*
X227387382Y-131125311D01*
X227379113Y-131078415D01*
X227315679Y-130992893D01*
X227213619Y-130962535D01*
X227072932Y-130987342D01*
X226987410Y-131050776D01*
X226609412Y-131649317D02*
X226570786Y-131704481D01*
X226625950Y-131743108D01*
X226664577Y-131687944D01*
X226609412Y-131649317D01*
X226625950Y-131743108D01*
X226518454Y-131133465D02*
X226479827Y-131188630D01*
X226534992Y-131227256D01*
X226573618Y-131172092D01*
X226518454Y-131133465D01*
X226534992Y-131227256D01*
X225271643Y-130918129D02*
X226339026Y-132035469D01*
X224239940Y-131100046D02*
X225307322Y-132217386D01*
X223555762Y-131607514D02*
X223696334Y-132404739D01*
X223759767Y-132490262D01*
X223814932Y-132528888D01*
X223916992Y-132559246D01*
X224057679Y-132534439D01*
X224143201Y-132471006D01*
X223663258Y-132217157D02*
X223765318Y-132247515D01*
X223952901Y-132214439D01*
X224038423Y-132151005D01*
X224077050Y-132095841D01*
X224107407Y-131993781D01*
X224057793Y-131712407D01*
X223994360Y-131626885D01*
X223939195Y-131588258D01*
X223837135Y-131557900D01*
X223649553Y-131590976D01*
X223564031Y-131654410D01*
X223202571Y-132346742D02*
X223086805Y-131690204D01*
X223028923Y-131361934D02*
X223084087Y-131400561D01*
X223045461Y-131455726D01*
X222990296Y-131417099D01*
X223028923Y-131361934D01*
X223045461Y-131455726D01*
X222758536Y-131748086D02*
X222383371Y-131814238D01*
X222559967Y-131444624D02*
X222708808Y-132288745D01*
X222678450Y-132390805D01*
X222592928Y-132454239D01*
X222499137Y-132470777D01*
X222170868Y-132528659D02*
X221997219Y-131543852D01*
X221748807Y-132603080D02*
X221657849Y-132087228D01*
X221688206Y-131985168D01*
X221773728Y-131921735D01*
X221914415Y-131896928D01*
X222016475Y-131927285D01*
X222071640Y-131965912D01*
X220742025Y-132103652D02*
X220857791Y-132760190D01*
X221164086Y-132029231D02*
X221255044Y-132545083D01*
X221224686Y-132647143D01*
X221139164Y-132710577D01*
X220998477Y-132735383D01*
X220896417Y-132705026D01*
X220841253Y-132666399D01*
X220388834Y-132842880D02*
X220215186Y-131858072D01*
X220281338Y-132233237D02*
X220179278Y-132202879D01*
X219991695Y-132235955D01*
X219906173Y-132299389D01*
X219867547Y-132354553D01*
X219837189Y-132456613D01*
X219886803Y-132737987D01*
X219950236Y-132823509D01*
X220005401Y-132862136D01*
X220107461Y-132892494D01*
X220295043Y-132859418D01*
X220380566Y-132795984D01*
X219481280Y-132906199D02*
X219442653Y-132961363D01*
X219497818Y-132999990D01*
X219536445Y-132944826D01*
X219481280Y-132906199D01*
X219497818Y-132999990D01*
X218598532Y-133110205D02*
X218700593Y-133140562D01*
X218888175Y-133107487D01*
X218973697Y-133044053D01*
X219012324Y-132988889D01*
X219042682Y-132886828D01*
X218993068Y-132605455D01*
X218929634Y-132519932D01*
X218874470Y-132481306D01*
X218772410Y-132450948D01*
X218584827Y-132484024D01*
X218499305Y-132547457D01*
X218044054Y-133256328D02*
X218129576Y-133192894D01*
X218168203Y-133137730D01*
X218198561Y-133035670D01*
X218148947Y-132754296D01*
X218085513Y-132668774D01*
X218030349Y-132630147D01*
X217928289Y-132599789D01*
X217787602Y-132624596D01*
X217702080Y-132688030D01*
X217663453Y-132743194D01*
X217633095Y-132845255D01*
X217682709Y-133126628D01*
X217746143Y-133212150D01*
X217801307Y-133250777D01*
X217903367Y-133281135D01*
X218044054Y-133256328D01*
X217293724Y-133388631D02*
X217177959Y-132732093D01*
X217194497Y-132825884D02*
X217139332Y-132787257D01*
X217037272Y-132756900D01*
X216896585Y-132781707D01*
X216811063Y-132845140D01*
X216780705Y-132947200D01*
X216871664Y-133463052D01*
X216780705Y-132947200D02*
X216717272Y-132861678D01*
X216615212Y-132831320D01*
X216474525Y-132856127D01*
X216389003Y-132919561D01*
X216358645Y-133021621D01*
X216449603Y-133537473D01*
X215095296Y-132712493D02*
X216162679Y-133829833D01*
X214833179Y-133145541D02*
X214982020Y-133989662D01*
X215045453Y-134075184D01*
X215147514Y-134105542D01*
X215194409Y-134097273D01*
X214775296Y-132817272D02*
X214830460Y-132855898D01*
X214791834Y-132911063D01*
X214736669Y-132872436D01*
X214775296Y-132817272D01*
X214791834Y-132911063D01*
X214364223Y-133228230D02*
X214537871Y-134213038D01*
X214372491Y-133275126D02*
X214270431Y-133244768D01*
X214082849Y-133277844D01*
X213997327Y-133341278D01*
X213958700Y-133396442D01*
X213928342Y-133498502D01*
X213977956Y-133779876D01*
X214041390Y-133865398D01*
X214096554Y-133904025D01*
X214198614Y-133934383D01*
X214386197Y-133901307D01*
X214471719Y-133837873D01*
X213158642Y-134069404D02*
X213260702Y-134099762D01*
X213448285Y-134066686D01*
X213533807Y-134003253D01*
X213572434Y-133948088D01*
X213602791Y-133846028D01*
X213553177Y-133564654D01*
X213489744Y-133479132D01*
X213434579Y-133440505D01*
X213332519Y-133410148D01*
X213144937Y-133443223D01*
X213059414Y-133506657D01*
X212604164Y-134215527D02*
X212689686Y-134152094D01*
X212728313Y-134096929D01*
X212758670Y-133994869D01*
X212709057Y-133713495D01*
X212645623Y-133627973D01*
X212590458Y-133589347D01*
X212488398Y-133558989D01*
X212347711Y-133583796D01*
X212262189Y-133647229D01*
X212223563Y-133702394D01*
X212193205Y-133804454D01*
X212242819Y-134085828D01*
X212306252Y-134171350D01*
X212361417Y-134209977D01*
X212463477Y-134240334D01*
X212604164Y-134215527D01*
X211738069Y-133691292D02*
X211853834Y-134347831D01*
X211754606Y-133785083D02*
X211699442Y-133746457D01*
X211597382Y-133716099D01*
X211456695Y-133740906D01*
X211371173Y-133804340D01*
X211340815Y-133906400D01*
X211431774Y-134422251D01*
X211001444Y-134449776D02*
X210915922Y-134513210D01*
X210728339Y-134546286D01*
X210626279Y-134515928D01*
X210562846Y-134430406D01*
X210554577Y-134383510D01*
X210584934Y-134281450D01*
X210670457Y-134218017D01*
X210811143Y-134193210D01*
X210896666Y-134129776D01*
X210927023Y-134027716D01*
X210918754Y-133980820D01*
X210855321Y-133895298D01*
X210753261Y-133864940D01*
X210612574Y-133889747D01*
X210527052Y-133953181D01*
X210190513Y-133964168D02*
X209815349Y-134030320D01*
X209991944Y-133660706D02*
X210140785Y-134504827D01*
X210110428Y-134606887D01*
X210024905Y-134670320D01*
X209931114Y-134686858D01*
X209180784Y-134819162D02*
X209089826Y-134303310D01*
X209120183Y-134201250D01*
X209205706Y-134137816D01*
X209393288Y-134104740D01*
X209495348Y-134135098D01*
X209172515Y-134772266D02*
X209274576Y-134802624D01*
X209509054Y-134761279D01*
X209594576Y-134697845D01*
X209624934Y-134595785D01*
X209608396Y-134501994D01*
X209544962Y-134416472D01*
X209442902Y-134386114D01*
X209208424Y-134427459D01*
X209106364Y-134397101D01*
X208596063Y-134245313D02*
X208711828Y-134901851D01*
X208612601Y-134339104D02*
X208557436Y-134300477D01*
X208455376Y-134270120D01*
X208314689Y-134294926D01*
X208229167Y-134358360D01*
X208198809Y-134460420D01*
X208289768Y-134976272D01*
X207845733Y-134377616D02*
X207470568Y-134443768D01*
X207647164Y-134074154D02*
X207796005Y-134918275D01*
X207765647Y-135020335D01*
X207680125Y-135083768D01*
X207586334Y-135100306D01*
X207258064Y-135158189D02*
X207142299Y-134501650D01*
X207084416Y-134173381D02*
X207139581Y-134212008D01*
X207100954Y-134267172D01*
X207045790Y-134228546D01*
X207084416Y-134173381D01*
X207100954Y-134267172D01*
X206673343Y-134584340D02*
X206789108Y-135240879D01*
X206689881Y-134678131D02*
X206634716Y-134639505D01*
X206532656Y-134609147D01*
X206391969Y-134633954D01*
X206306447Y-134697387D01*
X206276089Y-134799447D01*
X206367048Y-135315299D01*
X205514658Y-135417245D02*
X205616718Y-135447603D01*
X205804301Y-135414527D01*
X205889823Y-135351093D01*
X205920181Y-135249033D01*
X205854029Y-134873868D01*
X205790595Y-134788346D01*
X205688535Y-134757988D01*
X205500953Y-134791064D01*
X205415430Y-134854498D01*
X205385073Y-134956558D01*
X205401611Y-135050349D01*
X205887105Y-135061451D01*
X204631910Y-135621251D02*
X204540952Y-135105399D01*
X204571310Y-135003339D01*
X204656832Y-134939905D01*
X204844414Y-134906829D01*
X204946474Y-134937187D01*
X204623641Y-135574355D02*
X204725702Y-135604713D01*
X204960180Y-135563368D01*
X205045702Y-135499934D01*
X205076060Y-135397874D01*
X205059522Y-135304083D01*
X204996088Y-135218561D01*
X204894028Y-135188203D01*
X204659550Y-135229548D01*
X204557490Y-135199190D01*
X203625128Y-135121822D02*
X203740894Y-135778361D01*
X204047189Y-135047402D02*
X204138147Y-135563254D01*
X204107790Y-135665314D01*
X204022268Y-135728747D01*
X203881581Y-135753554D01*
X203779521Y-135723196D01*
X203724356Y-135684570D01*
X202386587Y-134953382D02*
X203453969Y-136070722D01*
X202207273Y-135033353D02*
X202052652Y-136076044D01*
X201550735Y-135149119D01*
X200816828Y-136197245D02*
X200871993Y-136235872D01*
X201020949Y-136257961D01*
X201114740Y-136241423D01*
X201247158Y-136169720D01*
X201324411Y-136059391D01*
X201354769Y-135957331D01*
X201368589Y-135761480D01*
X201343782Y-135620793D01*
X201263810Y-135441479D01*
X201200377Y-135355957D01*
X201090048Y-135278704D01*
X200941092Y-135256615D01*
X200847301Y-135273153D01*
X200714883Y-135344855D01*
X200676256Y-135400020D01*
X200270619Y-136390264D02*
X200356141Y-136326831D01*
X200394768Y-136271666D01*
X200425126Y-136169606D01*
X200375512Y-135888232D01*
X200312078Y-135802710D01*
X200256914Y-135764083D01*
X200154854Y-135733726D01*
X200014167Y-135758532D01*
X199928644Y-135821966D01*
X199890018Y-135877131D01*
X199859660Y-135979191D01*
X199909274Y-136260564D01*
X199972707Y-136346087D01*
X200027872Y-136384713D01*
X200129932Y-136415071D01*
X200270619Y-136390264D01*
X199379602Y-136547374D02*
X199465125Y-136483941D01*
X199495482Y-136381881D01*
X199346641Y-135537760D01*
X199004438Y-136613526D02*
X198830789Y-135628718D01*
X198626555Y-136390035D01*
X198174251Y-135744484D01*
X198347899Y-136729291D01*
X197799086Y-135810635D02*
X197316196Y-136911209D01*
X197142548Y-135926401D02*
X197972734Y-136795443D01*
X196403205Y-136395242D02*
X196518970Y-137051781D01*
X196571531Y-135978733D02*
X196930044Y-136640822D01*
X196320401Y-136748319D01*
X195465293Y-136560622D02*
X195581058Y-137217160D01*
X195633619Y-136144112D02*
X195992132Y-136806201D01*
X195382489Y-136913698D01*
X249472089Y-128858281D02*
X249339671Y-128929984D01*
X249301045Y-128985148D01*
X249270687Y-129087209D01*
X249295494Y-129227895D01*
X249358927Y-129313418D01*
X249414092Y-129352044D01*
X249516152Y-129382402D01*
X249891317Y-129316250D01*
X249717669Y-128331443D01*
X249389399Y-128389325D01*
X249303877Y-128452759D01*
X249265251Y-128507923D01*
X249234893Y-128609984D01*
X249251431Y-128703775D01*
X249314864Y-128789297D01*
X249370029Y-128827924D01*
X249472089Y-128858281D01*
X249800358Y-128800399D01*
X248884535Y-128816822D02*
X248765822Y-129514705D01*
X248415579Y-128899512D02*
X248765822Y-129514705D01*
X248900958Y-129732645D01*
X248956123Y-129771272D01*
X249058183Y-129801630D01*
X246950828Y-128819311D02*
X247074862Y-129522745D01*
X247146565Y-129655163D01*
X247256894Y-129732416D01*
X247405850Y-129754505D01*
X247499641Y-129737967D01*
X246655520Y-129886809D02*
X246481872Y-128902001D01*
X246106707Y-128968153D01*
X246021185Y-129031586D01*
X245982558Y-129086751D01*
X245952200Y-129188811D01*
X245977007Y-129329498D01*
X246040441Y-129415020D01*
X246095605Y-129453646D01*
X246197665Y-129484004D01*
X246572830Y-129417852D01*
X245091427Y-130065893D02*
X245146592Y-130104520D01*
X245295547Y-130126608D01*
X245389339Y-130110071D01*
X245521756Y-130038368D01*
X245599010Y-129928039D01*
X245629367Y-129825979D01*
X245643187Y-129630127D01*
X245618380Y-129489440D01*
X245538409Y-129310127D01*
X245474975Y-129224605D01*
X245364646Y-129147351D01*
X245215690Y-129125263D01*
X245121899Y-129141801D01*
X244989481Y-129213503D01*
X244950855Y-129268668D01*
X244545218Y-130258912D02*
X244630740Y-130195478D01*
X244669367Y-130140314D01*
X244699724Y-130038254D01*
X244650110Y-129756880D01*
X244586677Y-129671358D01*
X244531512Y-129632731D01*
X244429452Y-129602373D01*
X244288765Y-129627180D01*
X244203243Y-129690614D01*
X244164616Y-129745778D01*
X244134259Y-129847838D01*
X244183873Y-130129212D01*
X244247306Y-130214734D01*
X244302471Y-130253361D01*
X244404531Y-130283719D01*
X244545218Y-130258912D01*
X243679122Y-129734677D02*
X243794888Y-130391215D01*
X243695660Y-129828468D02*
X243640496Y-129789841D01*
X243538436Y-129759484D01*
X243397749Y-129784290D01*
X243312227Y-129847724D01*
X243281869Y-129949784D01*
X243372827Y-130465636D01*
X242942498Y-130493161D02*
X242856976Y-130556594D01*
X242669393Y-130589670D01*
X242567333Y-130559313D01*
X242503900Y-130473790D01*
X242495631Y-130426895D01*
X242525988Y-130324835D01*
X242611511Y-130261401D01*
X242752197Y-130236594D01*
X242837720Y-130173161D01*
X242868077Y-130071100D01*
X242859808Y-130024205D01*
X242796375Y-129938683D01*
X242694315Y-129908325D01*
X242553628Y-129933132D01*
X242468106Y-129996565D01*
X242131567Y-130007552D02*
X241756403Y-130073704D01*
X241932998Y-129704090D02*
X242081839Y-130548211D01*
X242051481Y-130650271D01*
X241965959Y-130713705D01*
X241872168Y-130730243D01*
X241121838Y-130862546D02*
X241030880Y-130346694D01*
X241061237Y-130244634D01*
X241146760Y-130181201D01*
X241334342Y-130148125D01*
X241436402Y-130178482D01*
X241113569Y-130815650D02*
X241215629Y-130846008D01*
X241450108Y-130804663D01*
X241535630Y-130741230D01*
X241565987Y-130639170D01*
X241549450Y-130545378D01*
X241486016Y-130459856D01*
X241383956Y-130429498D01*
X241149478Y-130470843D01*
X241047418Y-130440485D01*
X240537117Y-130288697D02*
X240652882Y-130945236D01*
X240553655Y-130382488D02*
X240498490Y-130343862D01*
X240396430Y-130313504D01*
X240255743Y-130338311D01*
X240170221Y-130401744D01*
X240139863Y-130503805D01*
X240230822Y-131019656D01*
X239786787Y-130421000D02*
X239411622Y-130487152D01*
X239588217Y-130117538D02*
X239737059Y-130961659D01*
X239706701Y-131063719D01*
X239621179Y-131127153D01*
X239527388Y-131143691D01*
X239199118Y-131201573D02*
X239083353Y-130545035D01*
X239025470Y-130216766D02*
X239080635Y-130255392D01*
X239042008Y-130310557D01*
X238986844Y-130271930D01*
X239025470Y-130216766D01*
X239042008Y-130310557D01*
X238614397Y-130627724D02*
X238730162Y-131284263D01*
X238630935Y-130721516D02*
X238575770Y-130682889D01*
X238473710Y-130652531D01*
X238333023Y-130677338D01*
X238247501Y-130740772D01*
X238217143Y-130842832D01*
X238308102Y-131358684D01*
X237455712Y-131460629D02*
X237557772Y-131490987D01*
X237745355Y-131457911D01*
X237830877Y-131394478D01*
X237861234Y-131292417D01*
X237795083Y-130917253D01*
X237731649Y-130831730D01*
X237629589Y-130801373D01*
X237442007Y-130834448D01*
X237356484Y-130897882D01*
X237326127Y-130999942D01*
X237342665Y-131093733D01*
X237828159Y-131104835D01*
X236572964Y-131664635D02*
X236482006Y-131148783D01*
X236512363Y-131046723D01*
X236597886Y-130983290D01*
X236785468Y-130950214D01*
X236887528Y-130980572D01*
X236564695Y-131617740D02*
X236666756Y-131648097D01*
X236901234Y-131606752D01*
X236986756Y-131543319D01*
X237017114Y-131441259D01*
X237000576Y-131347468D01*
X236937142Y-131261945D01*
X236835082Y-131231588D01*
X236600604Y-131272932D01*
X236498544Y-131242575D01*
X235566182Y-131165207D02*
X235681948Y-131821745D01*
X235988243Y-131090786D02*
X236079201Y-131606638D01*
X236048844Y-131708698D01*
X235963321Y-131772132D01*
X235822635Y-131796939D01*
X235720574Y-131766581D01*
X235665410Y-131727954D01*
X233602118Y-131269756D02*
X233546953Y-131231130D01*
X233444893Y-131200772D01*
X233210415Y-131242117D01*
X233124893Y-131305550D01*
X233086266Y-131360715D01*
X233055908Y-131462775D01*
X233072446Y-131556566D01*
X233144149Y-131688984D01*
X233806124Y-132152504D01*
X233196481Y-132260000D01*
X232413190Y-131382689D02*
X232319398Y-131399227D01*
X232233876Y-131462661D01*
X232195249Y-131517825D01*
X232164892Y-131619885D01*
X232151072Y-131815737D01*
X232192417Y-132050215D01*
X232272388Y-132229528D01*
X232335822Y-132315050D01*
X232390986Y-132353677D01*
X232493047Y-132384035D01*
X232586838Y-132367497D01*
X232672360Y-132304063D01*
X232710987Y-132248899D01*
X232741344Y-132146839D01*
X232755164Y-131950987D01*
X232713819Y-131716509D01*
X232633848Y-131537196D01*
X232570414Y-131451673D01*
X232515250Y-131413047D01*
X232413190Y-131382689D01*
X231726293Y-131600515D02*
X231671129Y-131561888D01*
X231569069Y-131531530D01*
X231334591Y-131572875D01*
X231249068Y-131636309D01*
X231210442Y-131691473D01*
X231180084Y-131793533D01*
X231196622Y-131887325D01*
X231268324Y-132019743D01*
X231930299Y-132483262D01*
X231320656Y-132590759D01*
X230382744Y-132756138D02*
X230945491Y-132656910D01*
X230664118Y-132706524D02*
X230490470Y-131721716D01*
X230609068Y-131845865D01*
X230719397Y-131923119D01*
X230821457Y-131953476D01*
X229894532Y-132455394D02*
X229144202Y-132587697D01*
X228380167Y-132093820D02*
X228286376Y-132110358D01*
X228200854Y-132173791D01*
X228162227Y-132228956D01*
X228131870Y-132331016D01*
X228118050Y-132526867D01*
X228159395Y-132761345D01*
X228239366Y-132940659D01*
X228302800Y-133026181D01*
X228357964Y-133064808D01*
X228460024Y-133095165D01*
X228553816Y-133078627D01*
X228639338Y-133015194D01*
X228677964Y-132960029D01*
X228708322Y-132857969D01*
X228722142Y-132662118D01*
X228680797Y-132427640D01*
X228600826Y-132248326D01*
X228537392Y-132162804D01*
X228482228Y-132124177D01*
X228380167Y-132093820D01*
X227756590Y-133219200D02*
X227569008Y-133252276D01*
X227466948Y-133221918D01*
X227411783Y-133183291D01*
X227293185Y-133059142D01*
X227213213Y-132879829D01*
X227147062Y-132504664D01*
X227177419Y-132402604D01*
X227216046Y-132347439D01*
X227301568Y-132284006D01*
X227489151Y-132250930D01*
X227591211Y-132281288D01*
X227646376Y-132319914D01*
X227709809Y-132405437D01*
X227751154Y-132639915D01*
X227720796Y-132741975D01*
X227682170Y-132797139D01*
X227596647Y-132860573D01*
X227409065Y-132893649D01*
X227307005Y-132863291D01*
X227251840Y-132824664D01*
X227188407Y-132739142D01*
X226799422Y-133001145D02*
X226049092Y-133133449D01*
X225536073Y-132692018D02*
X225480909Y-132653391D01*
X225378848Y-132623033D01*
X225144370Y-132664378D01*
X225058848Y-132727812D01*
X225020222Y-132782976D01*
X224989864Y-132885036D01*
X225006402Y-132978827D01*
X225078104Y-133111245D01*
X225740079Y-133574765D01*
X225130436Y-133682262D01*
X224661480Y-133764951D02*
X224473898Y-133798027D01*
X224371838Y-133767669D01*
X224316673Y-133729043D01*
X224198075Y-133604894D01*
X224118103Y-133425580D01*
X224051952Y-133050415D01*
X224082309Y-132948355D01*
X224120936Y-132893191D01*
X224206458Y-132829757D01*
X224394041Y-132796681D01*
X224496101Y-132827039D01*
X224551265Y-132865666D01*
X224614699Y-132951188D01*
X224656044Y-133185666D01*
X224625686Y-133287726D01*
X224587059Y-133342891D01*
X224501537Y-133406324D01*
X224313955Y-133439400D01*
X224211895Y-133409042D01*
X224156730Y-133370416D01*
X224093297Y-133284894D01*
D11*
X85177631Y-130153476D02*
X84173796Y-132007326D01*
X83864554Y-129921945D01*
X81768300Y-131389757D02*
X81845554Y-131500086D01*
X82110390Y-131643491D01*
X82297972Y-131676567D01*
X82595884Y-131632390D01*
X82816542Y-131477883D01*
X82943409Y-131306839D01*
X83103352Y-130948212D01*
X83152965Y-130666838D01*
X83125326Y-130275135D01*
X83064611Y-130071015D01*
X82910104Y-129850357D01*
X82645268Y-129706952D01*
X82457686Y-129673876D01*
X82159774Y-129718053D01*
X82049445Y-129795307D01*
X80609730Y-131378885D02*
X80813850Y-131318169D01*
X80924180Y-131240916D01*
X81051047Y-131069872D01*
X81150274Y-130507124D01*
X81089559Y-130303004D01*
X81012305Y-130192675D01*
X80841261Y-130065808D01*
X80559887Y-130016194D01*
X80355767Y-130076909D01*
X80245438Y-130154163D01*
X80118571Y-130325207D01*
X80019343Y-130887954D01*
X80080059Y-131092075D01*
X80157312Y-131202404D01*
X80328356Y-131329271D01*
X80609730Y-131378885D01*
X78827697Y-131064664D02*
X79031817Y-131003949D01*
X79158684Y-130832904D01*
X79456367Y-129144662D01*
X78077367Y-130932361D02*
X78424664Y-128962745D01*
X77520056Y-130253848D01*
X77111587Y-128731214D01*
X76764290Y-130700830D01*
X76361257Y-128598911D02*
X74700884Y-130336996D01*
X75048180Y-128367380D02*
X76013961Y-130568527D01*
X73337964Y-128742774D02*
X73106433Y-130055851D01*
X73939223Y-128075134D02*
X74160111Y-129564692D01*
X72940825Y-129349699D01*
X71462140Y-128412016D02*
X71230609Y-129725093D01*
X72063399Y-127744375D02*
X72284286Y-129233933D01*
X71065000Y-129018940D01*
D10*
X152452380Y-71380952D02*
X153166666Y-71380952D01*
X153309523Y-71333333D01*
X153404761Y-71238095D01*
X153452380Y-71095238D01*
X153452380Y-71000000D01*
X153452380Y-72333333D02*
X153452380Y-71857142D01*
X152452380Y-71857142D01*
X153357142Y-73238095D02*
X153404761Y-73190476D01*
X153452380Y-73047619D01*
X153452380Y-72952380D01*
X153404761Y-72809523D01*
X153309523Y-72714285D01*
X153214285Y-72666666D01*
X153023809Y-72619047D01*
X152880952Y-72619047D01*
X152690476Y-72666666D01*
X152595238Y-72714285D01*
X152500000Y-72809523D01*
X152452380Y-72952380D01*
X152452380Y-73047619D01*
X152500000Y-73190476D01*
X152547619Y-73238095D01*
X152452380Y-73952380D02*
X153166666Y-73952380D01*
X153309523Y-73904761D01*
X153404761Y-73809523D01*
X153452380Y-73666666D01*
X153452380Y-73571428D01*
X153452380Y-74904761D02*
X153452380Y-74428571D01*
X152452380Y-74428571D01*
X153357142Y-75809523D02*
X153404761Y-75761904D01*
X153452380Y-75619047D01*
X153452380Y-75523809D01*
X153404761Y-75380952D01*
X153309523Y-75285714D01*
X153214285Y-75238095D01*
X153023809Y-75190476D01*
X152880952Y-75190476D01*
X152690476Y-75238095D01*
X152595238Y-75285714D01*
X152500000Y-75380952D01*
X152452380Y-75523809D01*
X152452380Y-75619047D01*
X152500000Y-75761904D01*
X152547619Y-75809523D01*
X152452380Y-76523809D02*
X153166666Y-76523809D01*
X153309523Y-76476190D01*
X153404761Y-76380952D01*
X153452380Y-76238095D01*
X153452380Y-76142857D01*
X153452380Y-77476190D02*
X153452380Y-77000000D01*
X152452380Y-77000000D01*
X153357142Y-78380952D02*
X153404761Y-78333333D01*
X153452380Y-78190476D01*
X153452380Y-78095238D01*
X153404761Y-77952380D01*
X153309523Y-77857142D01*
X153214285Y-77809523D01*
X153023809Y-77761904D01*
X152880952Y-77761904D01*
X152690476Y-77809523D01*
X152595238Y-77857142D01*
X152500000Y-77952380D01*
X152452380Y-78095238D01*
X152452380Y-78190476D01*
X152500000Y-78333333D01*
X152547619Y-78380952D01*
X152452380Y-79095238D02*
X153166666Y-79095238D01*
X153309523Y-79047619D01*
X153404761Y-78952380D01*
X153452380Y-78809523D01*
X153452380Y-78714285D01*
X153452380Y-80047619D02*
X153452380Y-79571428D01*
X152452380Y-79571428D01*
X153357142Y-80952380D02*
X153404761Y-80904761D01*
X153452380Y-80761904D01*
X153452380Y-80666666D01*
X153404761Y-80523809D01*
X153309523Y-80428571D01*
X153214285Y-80380952D01*
X153023809Y-80333333D01*
X152880952Y-80333333D01*
X152690476Y-80380952D01*
X152595238Y-80428571D01*
X152500000Y-80523809D01*
X152452380Y-80666666D01*
X152452380Y-80761904D01*
X152500000Y-80904761D01*
X152547619Y-80952380D01*
D12*
%TO.C,LS1*%
X130716142Y-70502545D02*
X131280498Y-67301920D01*
X132313705Y-61442314D02*
X121283858Y-59497455D01*
X119686295Y-68557686D02*
X130716142Y-70502545D01*
X120250652Y-65357061D02*
X119686295Y-68557686D01*
X121283858Y-59497455D02*
X120719502Y-62698080D01*
X131749348Y-64642939D02*
X132313705Y-61442314D01*
%TO.C,SW1*%
X147250000Y-107750000D02*
X147250000Y-110250000D01*
X149000000Y-106250000D02*
X151000000Y-106250000D01*
X152750000Y-107750000D02*
X152750000Y-110250000D01*
X149000000Y-111750000D02*
X151000000Y-111750000D01*
X147700000Y-107300000D02*
X147250000Y-107750000D01*
X147700000Y-110700000D02*
X147250000Y-110250000D01*
X152300000Y-110700000D02*
X152750000Y-110250000D01*
X152300000Y-107300000D02*
X152750000Y-107750000D01*
%TO.C,U45*%
X160500000Y-50500000D02*
X139500000Y-50500000D01*
X153700000Y-101500000D02*
X160500000Y-101500000D01*
X160500000Y-53167000D02*
X157493000Y-53167000D01*
X157493000Y-53167000D02*
X157493000Y-50500000D01*
X160500000Y-50500000D02*
X160500000Y-50800000D01*
X160500000Y-52900000D02*
X160500000Y-53300000D01*
X160500000Y-55500000D02*
X160500000Y-55900000D01*
X160500000Y-58000000D02*
X160500000Y-58400000D01*
X160500000Y-60600000D02*
X160500000Y-61000000D01*
X160500000Y-63100000D02*
X160500000Y-63500000D01*
X160500000Y-65600000D02*
X160500000Y-66000000D01*
X160500000Y-68200000D02*
X160500000Y-68600000D01*
X160500000Y-70700000D02*
X160500000Y-71100000D01*
X160500000Y-73300000D02*
X160500000Y-73700000D01*
X160500000Y-75800000D02*
X160500000Y-76200000D01*
X160500000Y-78300000D02*
X160500000Y-78700000D01*
X160500000Y-80900000D02*
X160500000Y-81300000D01*
X160500000Y-83400000D02*
X160500000Y-83800000D01*
X160500000Y-86000000D02*
X160500000Y-86400000D01*
X160500000Y-88500000D02*
X160500000Y-88900000D01*
X160500000Y-91100000D02*
X160500000Y-91500000D01*
X160500000Y-93600000D02*
X160500000Y-94000000D01*
X160500000Y-96100000D02*
X160500000Y-96500000D01*
X160500000Y-98700000D02*
X160500000Y-99100000D01*
X139500000Y-65600000D02*
X139500000Y-66000000D01*
X139500000Y-70700000D02*
X139500000Y-71100000D01*
X139500000Y-78300000D02*
X139500000Y-78700000D01*
X139500000Y-86000000D02*
X139500000Y-86400000D01*
X139500000Y-55500000D02*
X139500000Y-55900000D01*
X139500000Y-52900000D02*
X139500000Y-53300000D01*
X139500000Y-60600000D02*
X139500000Y-61000000D01*
X139500000Y-93600000D02*
X139500000Y-94000000D01*
X139500000Y-98700000D02*
X139500000Y-99100000D01*
X139500000Y-96100000D02*
X139500000Y-96500000D01*
X139500000Y-80900000D02*
X139500000Y-81300000D01*
X139500000Y-75800000D02*
X139500000Y-76200000D01*
X139500000Y-63100000D02*
X139500000Y-63500000D01*
X139500000Y-68200000D02*
X139500000Y-68600000D01*
X139500000Y-88500000D02*
X139500000Y-88900000D01*
X139500000Y-73300000D02*
X139500000Y-73700000D01*
X139500000Y-50500000D02*
X139500000Y-50800000D01*
X139500000Y-58000000D02*
X139500000Y-58400000D01*
X139500000Y-83400000D02*
X139500000Y-83800000D01*
X139500000Y-91100000D02*
X139500000Y-91500000D01*
X139500000Y-101500000D02*
X146300000Y-101500000D01*
X151500000Y-101500000D02*
X151100000Y-101500000D01*
X148900000Y-101500000D02*
X148500000Y-101500000D01*
%TO.C,D1*%
X59405901Y-59194048D02*
X61375516Y-59541345D01*
X61375516Y-59541345D02*
X60698288Y-63382095D01*
X59405901Y-59194048D02*
X58728673Y-63034799D01*
%TO.C,D2*%
X78405901Y-59538940D02*
X77728673Y-63379691D01*
X80375516Y-59886237D02*
X79698288Y-63726987D01*
X78405901Y-59538940D02*
X80375516Y-59886237D01*
%TO.C,D3*%
X98405901Y-58610534D02*
X97728673Y-62451285D01*
X100375516Y-58957831D02*
X99698288Y-62798581D01*
X98405901Y-58610534D02*
X100375516Y-58957831D01*
%TO.C,D4*%
X115692420Y-67467061D02*
X117662035Y-67814358D01*
X117662035Y-67814358D02*
X116984807Y-71655108D01*
X115692420Y-67467061D02*
X115015192Y-71307812D01*
%TO.C,D5*%
X133692420Y-76985601D02*
X133015192Y-80826352D01*
X135662035Y-77332898D02*
X134984807Y-81173648D01*
X133692420Y-76985601D02*
X135662035Y-77332898D01*
%TO.C,D6*%
X146405901Y-114098127D02*
X145728673Y-117938878D01*
X148375516Y-114445424D02*
X147698288Y-118286174D01*
X146405901Y-114098127D02*
X148375516Y-114445424D01*
%TO.C,D7*%
X180624484Y-73957831D02*
X181301712Y-77798581D01*
X182594099Y-73610534D02*
X183271327Y-77451285D01*
X180624484Y-73957831D02*
X182594099Y-73610534D01*
%TO.C,D8*%
X198337965Y-64332898D02*
X199015193Y-68173648D01*
X200307580Y-63985601D02*
X200984808Y-67826352D01*
X198337965Y-64332898D02*
X200307580Y-63985601D01*
%TO.C,D9*%
X216337965Y-55332898D02*
X217015193Y-59173648D01*
X218307580Y-54985601D02*
X218984808Y-58826352D01*
X216337965Y-55332898D02*
X218307580Y-54985601D01*
%TO.C,D10*%
X235624484Y-57332898D02*
X236301712Y-61173648D01*
X237594099Y-56985601D02*
X238271327Y-60826352D01*
X235624484Y-57332898D02*
X237594099Y-56985601D01*
%TO.C,D11*%
X253337965Y-55332898D02*
X254015193Y-59173648D01*
X255307580Y-54985601D02*
X255984808Y-58826352D01*
X253337965Y-55332898D02*
X255307580Y-54985601D01*
%TO.C,D12*%
X56405901Y-77610534D02*
X58375516Y-77957831D01*
X58375516Y-77957831D02*
X57698288Y-81798581D01*
X56405901Y-77610534D02*
X55728673Y-81451285D01*
%TO.C,D13*%
X75405901Y-77610534D02*
X77375516Y-77957831D01*
X77375516Y-77957831D02*
X76698288Y-81798581D01*
X75405901Y-77610534D02*
X74728673Y-81451285D01*
%TO.C,D14*%
X94405901Y-76970246D02*
X96375516Y-77317543D01*
X96375516Y-77317543D02*
X95698288Y-81158293D01*
X94405901Y-76970246D02*
X93728673Y-80810997D01*
%TO.C,D15*%
X112405901Y-86610534D02*
X111728673Y-90451285D01*
X114375516Y-86957831D02*
X113698288Y-90798581D01*
X112405901Y-86610534D02*
X114375516Y-86957831D01*
%TO.C,D16*%
X130405901Y-95610534D02*
X132375516Y-95957831D01*
X132375516Y-95957831D02*
X131698288Y-99798581D01*
X130405901Y-95610534D02*
X129728673Y-99451285D01*
%TO.C,D17*%
X143405901Y-132809474D02*
X145375516Y-133156771D01*
X145375516Y-133156771D02*
X144698288Y-136997521D01*
X143405901Y-132809474D02*
X142728673Y-136650225D01*
%TO.C,D18*%
X184337965Y-92610814D02*
X186307580Y-92263517D01*
X186307580Y-92263517D02*
X186984808Y-96104268D01*
X184337965Y-92610814D02*
X185015193Y-96451564D01*
%TO.C,D19*%
X201337965Y-83332898D02*
X202015193Y-87173648D01*
X203307580Y-82985601D02*
X203984808Y-86826352D01*
X201337965Y-83332898D02*
X203307580Y-82985601D01*
%TO.C,D20*%
X219337965Y-74332898D02*
X221307580Y-73985601D01*
X221307580Y-73985601D02*
X221984808Y-77826352D01*
X219337965Y-74332898D02*
X220015193Y-78173648D01*
%TO.C,D21*%
X239337965Y-76332898D02*
X241307580Y-75985601D01*
X241307580Y-75985601D02*
X241984808Y-79826352D01*
X239337965Y-76332898D02*
X240015193Y-80173648D01*
%TO.C,D22*%
X256624484Y-74957831D02*
X258594099Y-74610534D01*
X258594099Y-74610534D02*
X259271327Y-78451285D01*
X256624484Y-74957831D02*
X257301712Y-78798581D01*
%TO.C,D23*%
X52405901Y-96610534D02*
X51728673Y-100451285D01*
X54375516Y-96957831D02*
X53698288Y-100798581D01*
X52405901Y-96610534D02*
X54375516Y-96957831D01*
%TO.C,D24*%
X72405901Y-96961634D02*
X71728673Y-100802385D01*
X74375516Y-97308931D02*
X73698288Y-101149681D01*
X72405901Y-96961634D02*
X74375516Y-97308931D01*
%TO.C,D25*%
X91405901Y-95610534D02*
X90728673Y-99451285D01*
X93375516Y-95957831D02*
X92698288Y-99798581D01*
X91405901Y-95610534D02*
X93375516Y-95957831D01*
%TO.C,D26*%
X109405901Y-104889756D02*
X108728673Y-108730507D01*
X111375516Y-105237053D02*
X110698288Y-109077803D01*
X109405901Y-104889756D02*
X111375516Y-105237053D01*
%TO.C,D27*%
X127405901Y-113753235D02*
X126728673Y-117593986D01*
X129375516Y-114100532D02*
X128698288Y-117941282D01*
X127405901Y-113753235D02*
X129375516Y-114100532D01*
%TO.C,D28*%
X167624484Y-111957831D02*
X169594099Y-111610534D01*
X169594099Y-111610534D02*
X170271327Y-115451285D01*
X167624484Y-111957831D02*
X168301712Y-115798581D01*
%TO.C,D29*%
X187337965Y-110682035D02*
X189307580Y-110334738D01*
X189307580Y-110334738D02*
X189984808Y-114175489D01*
X187337965Y-110682035D02*
X188015193Y-114522785D01*
%TO.C,D30*%
X205337965Y-102332898D02*
X206015193Y-106173648D01*
X207307580Y-101985601D02*
X207984808Y-105826352D01*
X205337965Y-102332898D02*
X207307580Y-101985601D01*
%TO.C,D31*%
X223337965Y-93332898D02*
X224015193Y-97173648D01*
X225307580Y-92985601D02*
X225984808Y-96826352D01*
X223337965Y-93332898D02*
X225307580Y-92985601D01*
%TO.C,D32*%
X242337965Y-94332898D02*
X243015193Y-98173648D01*
X244307580Y-93985601D02*
X244984808Y-97826352D01*
X242337965Y-94332898D02*
X244307580Y-93985601D01*
%TO.C,D33*%
X259624484Y-93957831D02*
X260301712Y-97798581D01*
X261594099Y-93610534D02*
X262271327Y-97451285D01*
X259624484Y-93957831D02*
X261594099Y-93610534D01*
%TO.C,D34*%
X49405901Y-115610534D02*
X51375516Y-115957831D01*
X51375516Y-115957831D02*
X50698288Y-119798581D01*
X49405901Y-115610534D02*
X48728673Y-119451285D01*
%TO.C,D35*%
X68405901Y-115672982D02*
X70375516Y-116020279D01*
X70375516Y-116020279D02*
X69698288Y-119861029D01*
X68405901Y-115672982D02*
X67728673Y-119513733D01*
%TO.C,D36*%
X88405901Y-114048258D02*
X90375516Y-114395555D01*
X90375516Y-114395555D02*
X89698288Y-118236305D01*
X88405901Y-114048258D02*
X87728673Y-117889009D01*
%TO.C,D37*%
X105405901Y-123610534D02*
X107375516Y-123957831D01*
X107375516Y-123957831D02*
X106698288Y-127798581D01*
X105405901Y-123610534D02*
X104728673Y-127451285D01*
%TO.C,D38*%
X123405901Y-132464582D02*
X125375516Y-132811879D01*
X125375516Y-132811879D02*
X124698288Y-136652629D01*
X123405901Y-132464582D02*
X122728673Y-136305333D01*
%TO.C,D39*%
X171624484Y-130378400D02*
X172301712Y-134219150D01*
X173594099Y-130031103D02*
X174271327Y-133871854D01*
X171624484Y-130378400D02*
X173594099Y-130031103D01*
%TO.C,D40*%
X190624484Y-130033508D02*
X191301712Y-133874258D01*
X192594099Y-129686211D02*
X193271327Y-133526962D01*
X190624484Y-130033508D02*
X192594099Y-129686211D01*
%TO.C,D41*%
X208624484Y-120957831D02*
X210594099Y-120610534D01*
X210594099Y-120610534D02*
X211271327Y-124451285D01*
X208624484Y-120957831D02*
X209301712Y-124798581D01*
%TO.C,D42*%
X226337965Y-111957831D02*
X228307580Y-111610534D01*
X228307580Y-111610534D02*
X228984808Y-115451285D01*
X226337965Y-111957831D02*
X227015193Y-115798581D01*
%TO.C,D43*%
X245624484Y-113957831D02*
X247594099Y-113610534D01*
X247594099Y-113610534D02*
X248271327Y-117451285D01*
X245624484Y-113957831D02*
X246301712Y-117798581D01*
%TO.C,D44*%
X262624484Y-111957831D02*
X264594099Y-111610534D01*
X264594099Y-111610534D02*
X265271327Y-115451285D01*
X262624484Y-111957831D02*
X263301712Y-115798581D01*
%TO.C,U1*%
X50764769Y-56107616D02*
X50469327Y-56055522D01*
X50469327Y-56055522D02*
X50417232Y-56350964D01*
%TO.C,U2*%
X69997061Y-56452508D02*
X69701619Y-56400414D01*
X69701619Y-56400414D02*
X69649524Y-56695856D01*
%TO.C,U3*%
X89281207Y-54775691D02*
X89229112Y-55071133D01*
X89576649Y-54827785D02*
X89281207Y-54775691D01*
%TO.C,U4*%
X107246107Y-64035947D02*
X106950665Y-63983853D01*
X106950665Y-63983853D02*
X106898570Y-64279295D01*
%TO.C,U5*%
X124915565Y-73244109D02*
X124620123Y-73192015D01*
X124620123Y-73192015D02*
X124568028Y-73487457D01*
%TO.C,U6*%
X137549227Y-111011696D02*
X137253785Y-110959602D01*
X137253785Y-110959602D02*
X137201690Y-111255044D01*
%TO.C,U7*%
X171440646Y-73886607D02*
X171492741Y-74182050D01*
X171736089Y-73834513D02*
X171440646Y-73886607D01*
%TO.C,U8*%
X189405547Y-64626351D02*
X189110104Y-64678445D01*
X189110104Y-64678445D02*
X189162199Y-64973888D01*
%TO.C,U9*%
X207075005Y-55418189D02*
X206779562Y-55470283D01*
X206779562Y-55470283D02*
X206831657Y-55765726D01*
%TO.C,U10*%
X226359150Y-57095006D02*
X226411245Y-57390449D01*
X226654593Y-57042912D02*
X226359150Y-57095006D01*
%TO.C,U11*%
X245591442Y-56750114D02*
X245643537Y-57045557D01*
X245886885Y-56698020D02*
X245591442Y-56750114D01*
%TO.C,U12*%
X47465454Y-74818964D02*
X47170012Y-74766870D01*
X47170012Y-74766870D02*
X47117917Y-75062312D01*
%TO.C,U13*%
X66697745Y-75163856D02*
X66402303Y-75111762D01*
X66402303Y-75111762D02*
X66350208Y-75407204D01*
%TO.C,U14*%
X85981892Y-73487040D02*
X85929797Y-73782482D01*
X86277334Y-73539134D02*
X85981892Y-73487040D01*
%TO.C,U15*%
X103651350Y-82695200D02*
X103599255Y-82990642D01*
X103946792Y-82747294D02*
X103651350Y-82695200D01*
%TO.C,U16*%
X121616250Y-91955456D02*
X121320808Y-91903362D01*
X121320808Y-91903362D02*
X121268713Y-92198804D01*
%TO.C,U17*%
X134249911Y-129723043D02*
X133954469Y-129670949D01*
X133954469Y-129670949D02*
X133902374Y-129966391D01*
%TO.C,U18*%
X174739961Y-92597954D02*
X174792056Y-92893397D01*
X175035404Y-92545860D02*
X174739961Y-92597954D01*
%TO.C,U19*%
X192704862Y-83337698D02*
X192409419Y-83389792D01*
X192409419Y-83389792D02*
X192461514Y-83685235D01*
%TO.C,U20*%
X210374320Y-74129538D02*
X210078877Y-74181632D01*
X210078877Y-74181632D02*
X210130972Y-74477075D01*
%TO.C,U21*%
X229658466Y-75806354D02*
X229710561Y-76101797D01*
X229953909Y-75754260D02*
X229658466Y-75806354D01*
%TO.C,U22*%
X248890757Y-75461462D02*
X248942852Y-75756905D01*
X249186200Y-75409368D02*
X248890757Y-75461462D01*
%TO.C,U23*%
X44166138Y-93530311D02*
X43870696Y-93478217D01*
X43870696Y-93478217D02*
X43818601Y-93773659D01*
%TO.C,U24*%
X63398428Y-93875203D02*
X63102986Y-93823109D01*
X63102986Y-93823109D02*
X63050891Y-94118551D01*
%TO.C,U25*%
X82978018Y-92250480D02*
X82682576Y-92198386D01*
X82682576Y-92198386D02*
X82630481Y-92493828D01*
%TO.C,U26*%
X100647476Y-101458642D02*
X100352034Y-101406548D01*
X100352034Y-101406548D02*
X100299939Y-101701990D01*
%TO.C,U27*%
X118021493Y-110614709D02*
X117969398Y-110910151D01*
X118316935Y-110666803D02*
X118021493Y-110614709D01*
%TO.C,U28*%
X158806984Y-111654194D02*
X158859079Y-111949637D01*
X159102427Y-111602100D02*
X158806984Y-111654194D01*
%TO.C,U29*%
X178039276Y-111309301D02*
X178091371Y-111604744D01*
X178334719Y-111257207D02*
X178039276Y-111309301D01*
%TO.C,U30*%
X196004178Y-102049046D02*
X195708735Y-102101140D01*
X195708735Y-102101140D02*
X195760830Y-102396583D01*
%TO.C,U31*%
X213378193Y-92892978D02*
X213430288Y-93188421D01*
X213673636Y-92840884D02*
X213378193Y-92892978D01*
%TO.C,U32*%
X232957783Y-94517701D02*
X233009878Y-94813144D01*
X233253226Y-94465607D02*
X232957783Y-94517701D01*
%TO.C,U33*%
X252190073Y-94172809D02*
X252242168Y-94468252D01*
X252485516Y-94120715D02*
X252190073Y-94172809D01*
%TO.C,U34*%
X40571381Y-112189564D02*
X40519286Y-112485006D01*
X40866823Y-112241658D02*
X40571381Y-112189564D01*
%TO.C,U35*%
X59803673Y-112534456D02*
X59751578Y-112829898D01*
X60099115Y-112586550D02*
X59803673Y-112534456D01*
%TO.C,U36*%
X79678703Y-110961827D02*
X79383261Y-110909733D01*
X79383261Y-110909733D02*
X79331166Y-111205175D01*
%TO.C,U37*%
X97348161Y-120169989D02*
X97052719Y-120117895D01*
X97052719Y-120117895D02*
X97000624Y-120413337D01*
%TO.C,U38*%
X114722177Y-129326057D02*
X114670082Y-129621499D01*
X115017619Y-129378151D02*
X114722177Y-129326057D01*
%TO.C,U39*%
X162106300Y-130365541D02*
X162158395Y-130660984D01*
X162401743Y-130313447D02*
X162106300Y-130365541D01*
%TO.C,U40*%
X181634035Y-129968555D02*
X181338592Y-130020649D01*
X181338592Y-130020649D02*
X181390687Y-130316092D01*
%TO.C,U41*%
X199303493Y-120760393D02*
X199008050Y-120812487D01*
X199008050Y-120812487D02*
X199060145Y-121107930D01*
%TO.C,U42*%
X216677508Y-111604325D02*
X216729603Y-111899768D01*
X216972951Y-111552231D02*
X216677508Y-111604325D01*
%TO.C,U43*%
X236257096Y-113229048D02*
X236309191Y-113524491D01*
X236552539Y-113176954D02*
X236257096Y-113229048D01*
%TO.C,U44*%
X255489388Y-112884156D02*
X255541483Y-113179599D01*
X255784831Y-112832062D02*
X255489388Y-112884156D01*
%TO.C,LS1*%
D10*
X125599470Y-70973582D02*
X126068426Y-71056271D01*
X126242074Y-70071464D01*
X125326365Y-70877072D02*
X125177410Y-70899161D01*
X124942932Y-70857816D01*
X124857409Y-70794383D01*
X124818783Y-70739218D01*
X124788425Y-70637158D01*
X124804963Y-70543367D01*
X124868396Y-70457845D01*
X124923561Y-70419218D01*
X125025621Y-70388860D01*
X125221473Y-70375040D01*
X125323533Y-70344683D01*
X125378697Y-70306056D01*
X125442131Y-70220534D01*
X125458669Y-70126743D01*
X125428311Y-70024682D01*
X125389684Y-69969518D01*
X125304162Y-69906084D01*
X125069684Y-69864740D01*
X124920728Y-69886828D01*
X123817437Y-70659361D02*
X124380184Y-70758589D01*
X124098811Y-70708975D02*
X124272459Y-69724167D01*
X124341443Y-69881392D01*
X124418696Y-69991721D01*
X124504219Y-70055155D01*
%TO.C,U45*%
X151238095Y-75452380D02*
X151238095Y-76261904D01*
X151190476Y-76357142D01*
X151142857Y-76404761D01*
X151047619Y-76452380D01*
X150857142Y-76452380D01*
X150761904Y-76404761D01*
X150714285Y-76357142D01*
X150666666Y-76261904D01*
X150666666Y-75452380D01*
X149761904Y-75785714D02*
X149761904Y-76452380D01*
X150000000Y-75404761D02*
X150238095Y-76119047D01*
X149619047Y-76119047D01*
X148761904Y-75452380D02*
X149238095Y-75452380D01*
X149285714Y-75928571D01*
X149238095Y-75880952D01*
X149142857Y-75833333D01*
X148904761Y-75833333D01*
X148809523Y-75880952D01*
X148761904Y-75928571D01*
X148714285Y-76023809D01*
X148714285Y-76261904D01*
X148761904Y-76357142D01*
X148809523Y-76404761D01*
X148904761Y-76452380D01*
X149142857Y-76452380D01*
X149238095Y-76404761D01*
X149285714Y-76357142D01*
X163586903Y-54521218D02*
X163667715Y-54548155D01*
X163748528Y-54628967D01*
X163802402Y-54736717D01*
X163802402Y-54844467D01*
X163775465Y-54925279D01*
X163694653Y-55059966D01*
X163613841Y-55140778D01*
X163479154Y-55221590D01*
X163398341Y-55248528D01*
X163290592Y-55248528D01*
X163182842Y-55194653D01*
X163128967Y-55140778D01*
X163075093Y-55033028D01*
X163075093Y-54979154D01*
X163263654Y-54790592D01*
X163371404Y-54898341D01*
X162778781Y-54790592D02*
X163344467Y-54224906D01*
X163128967Y-54009407D01*
X163048155Y-53982470D01*
X162994280Y-53982470D01*
X162913468Y-54009407D01*
X162832656Y-54090219D01*
X162805719Y-54171032D01*
X162805719Y-54224906D01*
X162832656Y-54305719D01*
X163048155Y-54521218D01*
X161916784Y-53928595D02*
X162240033Y-54251844D01*
X162078409Y-54090219D02*
X162644094Y-53524534D01*
X162617157Y-53659221D01*
X162617157Y-53766971D01*
X162644094Y-53847783D01*
X163586903Y-59611218D02*
X163667715Y-59638155D01*
X163748528Y-59718967D01*
X163802402Y-59826717D01*
X163802402Y-59934467D01*
X163775465Y-60015279D01*
X163694653Y-60149966D01*
X163613841Y-60230778D01*
X163479154Y-60311590D01*
X163398341Y-60338528D01*
X163290592Y-60338528D01*
X163182842Y-60284653D01*
X163128967Y-60230778D01*
X163075093Y-60123028D01*
X163075093Y-60069154D01*
X163263654Y-59880592D01*
X163371404Y-59988341D01*
X162778781Y-59880592D02*
X163344467Y-59314906D01*
X163128967Y-59099407D01*
X163048155Y-59072470D01*
X162994280Y-59072470D01*
X162913468Y-59099407D01*
X162832656Y-59180219D01*
X162805719Y-59261032D01*
X162805719Y-59314906D01*
X162832656Y-59395719D01*
X163048155Y-59611218D01*
X162751844Y-58830033D02*
X162751844Y-58776158D01*
X162724906Y-58695346D01*
X162590219Y-58560659D01*
X162509407Y-58533722D01*
X162455532Y-58533722D01*
X162374720Y-58560659D01*
X162320845Y-58614534D01*
X162266971Y-58722284D01*
X162266971Y-59368781D01*
X161916784Y-59018595D01*
X163486903Y-51991218D02*
X163567715Y-52018155D01*
X163648528Y-52098967D01*
X163702402Y-52206717D01*
X163702402Y-52314467D01*
X163675465Y-52395279D01*
X163594653Y-52529966D01*
X163513841Y-52610778D01*
X163379154Y-52691590D01*
X163298341Y-52718528D01*
X163190592Y-52718528D01*
X163082842Y-52664653D01*
X163028967Y-52610778D01*
X162975093Y-52503028D01*
X162975093Y-52449154D01*
X163163654Y-52260592D01*
X163271404Y-52368341D01*
X162678781Y-52260592D02*
X163244467Y-51694906D01*
X163028967Y-51479407D01*
X162948155Y-51452470D01*
X162894280Y-51452470D01*
X162813468Y-51479407D01*
X162732656Y-51560219D01*
X162705719Y-51641032D01*
X162705719Y-51694906D01*
X162732656Y-51775719D01*
X162948155Y-51991218D01*
X162571032Y-51021471D02*
X162517157Y-50967597D01*
X162436345Y-50940659D01*
X162382470Y-50940659D01*
X162301658Y-50967597D01*
X162166971Y-51048409D01*
X162032284Y-51183096D01*
X161951471Y-51317783D01*
X161924534Y-51398595D01*
X161924534Y-51452470D01*
X161951471Y-51533282D01*
X162005346Y-51587157D01*
X162086158Y-51614094D01*
X162140033Y-51614094D01*
X162220845Y-51587157D01*
X162355532Y-51506345D01*
X162490219Y-51371658D01*
X162571032Y-51236971D01*
X162597969Y-51156158D01*
X162597969Y-51102284D01*
X162571032Y-51021471D01*
X163486903Y-62151218D02*
X163567715Y-62178155D01*
X163648528Y-62258967D01*
X163702402Y-62366717D01*
X163702402Y-62474467D01*
X163675465Y-62555279D01*
X163594653Y-62689966D01*
X163513841Y-62770778D01*
X163379154Y-62851590D01*
X163298341Y-62878528D01*
X163190592Y-62878528D01*
X163082842Y-62824653D01*
X163028967Y-62770778D01*
X162975093Y-62663028D01*
X162975093Y-62609154D01*
X163163654Y-62420592D01*
X163271404Y-62528341D01*
X162678781Y-62420592D02*
X163244467Y-61854906D01*
X163028967Y-61639407D01*
X162948155Y-61612470D01*
X162894280Y-61612470D01*
X162813468Y-61639407D01*
X162732656Y-61720219D01*
X162705719Y-61801032D01*
X162705719Y-61854906D01*
X162732656Y-61935719D01*
X162948155Y-62151218D01*
X162732656Y-61343096D02*
X162382470Y-60992910D01*
X162355532Y-61396971D01*
X162274720Y-61316158D01*
X162193908Y-61289221D01*
X162140033Y-61289221D01*
X162059221Y-61316158D01*
X161924534Y-61450845D01*
X161897597Y-61531658D01*
X161897597Y-61585532D01*
X161924534Y-61666345D01*
X162086158Y-61827969D01*
X162166971Y-61854906D01*
X162220845Y-61854906D01*
X163486903Y-64691218D02*
X163567715Y-64718155D01*
X163648528Y-64798967D01*
X163702402Y-64906717D01*
X163702402Y-65014467D01*
X163675465Y-65095279D01*
X163594653Y-65229966D01*
X163513841Y-65310778D01*
X163379154Y-65391590D01*
X163298341Y-65418528D01*
X163190592Y-65418528D01*
X163082842Y-65364653D01*
X163028967Y-65310778D01*
X162975093Y-65203028D01*
X162975093Y-65149154D01*
X163163654Y-64960592D01*
X163271404Y-65068341D01*
X162678781Y-64960592D02*
X163244467Y-64394906D01*
X163028967Y-64179407D01*
X162948155Y-64152470D01*
X162894280Y-64152470D01*
X162813468Y-64179407D01*
X162732656Y-64260219D01*
X162705719Y-64341032D01*
X162705719Y-64394906D01*
X162732656Y-64475719D01*
X162948155Y-64691218D01*
X162247783Y-63775346D02*
X161870659Y-64152470D01*
X162597969Y-63694534D02*
X162328595Y-64233282D01*
X161978409Y-63883096D01*
X163486903Y-67231218D02*
X163567715Y-67258155D01*
X163648528Y-67338967D01*
X163702402Y-67446717D01*
X163702402Y-67554467D01*
X163675465Y-67635279D01*
X163594653Y-67769966D01*
X163513841Y-67850778D01*
X163379154Y-67931590D01*
X163298341Y-67958528D01*
X163190592Y-67958528D01*
X163082842Y-67904653D01*
X163028967Y-67850778D01*
X162975093Y-67743028D01*
X162975093Y-67689154D01*
X163163654Y-67500592D01*
X163271404Y-67608341D01*
X162678781Y-67500592D02*
X163244467Y-66934906D01*
X163028967Y-66719407D01*
X162948155Y-66692470D01*
X162894280Y-66692470D01*
X162813468Y-66719407D01*
X162732656Y-66800219D01*
X162705719Y-66881032D01*
X162705719Y-66934906D01*
X162732656Y-67015719D01*
X162948155Y-67231218D01*
X162409407Y-66099847D02*
X162678781Y-66369221D01*
X162436345Y-66665532D01*
X162436345Y-66611658D01*
X162409407Y-66530845D01*
X162274720Y-66396158D01*
X162193908Y-66369221D01*
X162140033Y-66369221D01*
X162059221Y-66396158D01*
X161924534Y-66530845D01*
X161897597Y-66611658D01*
X161897597Y-66665532D01*
X161924534Y-66746345D01*
X162059221Y-66881032D01*
X162140033Y-66907969D01*
X162193908Y-66907969D01*
X163486903Y-72311218D02*
X163567715Y-72338155D01*
X163648528Y-72418967D01*
X163702402Y-72526717D01*
X163702402Y-72634467D01*
X163675465Y-72715279D01*
X163594653Y-72849966D01*
X163513841Y-72930778D01*
X163379154Y-73011590D01*
X163298341Y-73038528D01*
X163190592Y-73038528D01*
X163082842Y-72984653D01*
X163028967Y-72930778D01*
X162975093Y-72823028D01*
X162975093Y-72769154D01*
X163163654Y-72580592D01*
X163271404Y-72688341D01*
X162678781Y-72580592D02*
X163244467Y-72014906D01*
X163028967Y-71799407D01*
X162948155Y-71772470D01*
X162894280Y-71772470D01*
X162813468Y-71799407D01*
X162732656Y-71880219D01*
X162705719Y-71961032D01*
X162705719Y-72014906D01*
X162732656Y-72095719D01*
X162948155Y-72311218D01*
X162436345Y-71206784D02*
X162544094Y-71314534D01*
X162571032Y-71395346D01*
X162571032Y-71449221D01*
X162544094Y-71583908D01*
X162463282Y-71718595D01*
X162247783Y-71934094D01*
X162166971Y-71961032D01*
X162113096Y-71961032D01*
X162032284Y-71934094D01*
X161924534Y-71826345D01*
X161897597Y-71745532D01*
X161897597Y-71691658D01*
X161924534Y-71610845D01*
X162059221Y-71476158D01*
X162140033Y-71449221D01*
X162193908Y-71449221D01*
X162274720Y-71476158D01*
X162382470Y-71583908D01*
X162409407Y-71664720D01*
X162409407Y-71718595D01*
X162382470Y-71799407D01*
X163386903Y-74821218D02*
X163467715Y-74848155D01*
X163548528Y-74928967D01*
X163602402Y-75036717D01*
X163602402Y-75144467D01*
X163575465Y-75225279D01*
X163494653Y-75359966D01*
X163413841Y-75440778D01*
X163279154Y-75521590D01*
X163198341Y-75548528D01*
X163090592Y-75548528D01*
X162982842Y-75494653D01*
X162928967Y-75440778D01*
X162875093Y-75333028D01*
X162875093Y-75279154D01*
X163063654Y-75090592D01*
X163171404Y-75198341D01*
X162578781Y-75090592D02*
X163144467Y-74524906D01*
X162928967Y-74309407D01*
X162848155Y-74282470D01*
X162794280Y-74282470D01*
X162713468Y-74309407D01*
X162632656Y-74390219D01*
X162605719Y-74471032D01*
X162605719Y-74524906D01*
X162632656Y-74605719D01*
X162848155Y-74821218D01*
X162632656Y-74013096D02*
X162255532Y-73635972D01*
X161932284Y-74444094D01*
X163486903Y-77391218D02*
X163567715Y-77418155D01*
X163648528Y-77498967D01*
X163702402Y-77606717D01*
X163702402Y-77714467D01*
X163675465Y-77795279D01*
X163594653Y-77929966D01*
X163513841Y-78010778D01*
X163379154Y-78091590D01*
X163298341Y-78118528D01*
X163190592Y-78118528D01*
X163082842Y-78064653D01*
X163028967Y-78010778D01*
X162975093Y-77903028D01*
X162975093Y-77849154D01*
X163163654Y-77660592D01*
X163271404Y-77768341D01*
X162678781Y-77660592D02*
X163244467Y-77094906D01*
X163028967Y-76879407D01*
X162948155Y-76852470D01*
X162894280Y-76852470D01*
X162813468Y-76879407D01*
X162732656Y-76960219D01*
X162705719Y-77041032D01*
X162705719Y-77094906D01*
X162732656Y-77175719D01*
X162948155Y-77391218D01*
X162355532Y-76690845D02*
X162436345Y-76717783D01*
X162490219Y-76717783D01*
X162571032Y-76690845D01*
X162597969Y-76663908D01*
X162624906Y-76583096D01*
X162624906Y-76529221D01*
X162597969Y-76448409D01*
X162490219Y-76340659D01*
X162409407Y-76313722D01*
X162355532Y-76313722D01*
X162274720Y-76340659D01*
X162247783Y-76367597D01*
X162220845Y-76448409D01*
X162220845Y-76502284D01*
X162247783Y-76583096D01*
X162355532Y-76690845D01*
X162382470Y-76771658D01*
X162382470Y-76825532D01*
X162355532Y-76906345D01*
X162247783Y-77014094D01*
X162166971Y-77041032D01*
X162113096Y-77041032D01*
X162032284Y-77014094D01*
X161924534Y-76906345D01*
X161897597Y-76825532D01*
X161897597Y-76771658D01*
X161924534Y-76690845D01*
X162032284Y-76583096D01*
X162113096Y-76556158D01*
X162166971Y-76556158D01*
X162247783Y-76583096D01*
X163486903Y-79931218D02*
X163567715Y-79958155D01*
X163648528Y-80038967D01*
X163702402Y-80146717D01*
X163702402Y-80254467D01*
X163675465Y-80335279D01*
X163594653Y-80469966D01*
X163513841Y-80550778D01*
X163379154Y-80631590D01*
X163298341Y-80658528D01*
X163190592Y-80658528D01*
X163082842Y-80604653D01*
X163028967Y-80550778D01*
X162975093Y-80443028D01*
X162975093Y-80389154D01*
X163163654Y-80200592D01*
X163271404Y-80308341D01*
X162678781Y-80200592D02*
X163244467Y-79634906D01*
X163028967Y-79419407D01*
X162948155Y-79392470D01*
X162894280Y-79392470D01*
X162813468Y-79419407D01*
X162732656Y-79500219D01*
X162705719Y-79581032D01*
X162705719Y-79634906D01*
X162732656Y-79715719D01*
X162948155Y-79931218D01*
X162086158Y-79607969D02*
X161978409Y-79500219D01*
X161951471Y-79419407D01*
X161951471Y-79365532D01*
X161978409Y-79230845D01*
X162059221Y-79096158D01*
X162274720Y-78880659D01*
X162355532Y-78853722D01*
X162409407Y-78853722D01*
X162490219Y-78880659D01*
X162597969Y-78988409D01*
X162624906Y-79069221D01*
X162624906Y-79123096D01*
X162597969Y-79203908D01*
X162463282Y-79338595D01*
X162382470Y-79365532D01*
X162328595Y-79365532D01*
X162247783Y-79338595D01*
X162140033Y-79230845D01*
X162113096Y-79150033D01*
X162113096Y-79096158D01*
X162140033Y-79015346D01*
X164010277Y-85280592D02*
X164091089Y-85307529D01*
X164171902Y-85388341D01*
X164225776Y-85496091D01*
X164225776Y-85603841D01*
X164198839Y-85684653D01*
X164118027Y-85819340D01*
X164037215Y-85900152D01*
X163902528Y-85980964D01*
X163821715Y-86007902D01*
X163713966Y-86007902D01*
X163606216Y-85954027D01*
X163552341Y-85900152D01*
X163498467Y-85792402D01*
X163498467Y-85738528D01*
X163687028Y-85549966D01*
X163794778Y-85657715D01*
X163202155Y-85549966D02*
X163767841Y-84984280D01*
X163552341Y-84768781D01*
X163471529Y-84741844D01*
X163417654Y-84741844D01*
X163336842Y-84768781D01*
X163256030Y-84849593D01*
X163229093Y-84930406D01*
X163229093Y-84984280D01*
X163256030Y-85065093D01*
X163471529Y-85280592D01*
X162340158Y-84687969D02*
X162663407Y-85011218D01*
X162501783Y-84849593D02*
X163067468Y-84283908D01*
X163040531Y-84418595D01*
X163040531Y-84526345D01*
X163067468Y-84607157D01*
X162555658Y-83772097D02*
X162501783Y-83718223D01*
X162420971Y-83691285D01*
X162367096Y-83691285D01*
X162286284Y-83718223D01*
X162151597Y-83799035D01*
X162016910Y-83933722D01*
X161936097Y-84068409D01*
X161909160Y-84149221D01*
X161909160Y-84203096D01*
X161936097Y-84283908D01*
X161989972Y-84337783D01*
X162070784Y-84364720D01*
X162124659Y-84364720D01*
X162205471Y-84337783D01*
X162340158Y-84256971D01*
X162474845Y-84122284D01*
X162555658Y-83987597D01*
X162582595Y-83906784D01*
X162582595Y-83852910D01*
X162555658Y-83772097D01*
X164156277Y-87820592D02*
X164237089Y-87847529D01*
X164317902Y-87928341D01*
X164371776Y-88036091D01*
X164371776Y-88143841D01*
X164344839Y-88224653D01*
X164264027Y-88359340D01*
X164183215Y-88440152D01*
X164048528Y-88520964D01*
X163967715Y-88547902D01*
X163859966Y-88547902D01*
X163752216Y-88494027D01*
X163698341Y-88440152D01*
X163644467Y-88332402D01*
X163644467Y-88278528D01*
X163833028Y-88089966D01*
X163940778Y-88197715D01*
X163348155Y-88089966D02*
X163913841Y-87524280D01*
X163698341Y-87308781D01*
X163617529Y-87281844D01*
X163563654Y-87281844D01*
X163482842Y-87308781D01*
X163402030Y-87389593D01*
X163375093Y-87470406D01*
X163375093Y-87524280D01*
X163402030Y-87605093D01*
X163617529Y-87820592D01*
X162486158Y-87227969D02*
X162809407Y-87551218D01*
X162647783Y-87389593D02*
X163213468Y-86823908D01*
X163186531Y-86958595D01*
X163186531Y-87066345D01*
X163213468Y-87147157D01*
X161947410Y-86689221D02*
X162270659Y-87012470D01*
X162109035Y-86850845D02*
X162674720Y-86285160D01*
X162647783Y-86419847D01*
X162647783Y-86527597D01*
X162674720Y-86608409D01*
X164156277Y-90360592D02*
X164237089Y-90387529D01*
X164317902Y-90468341D01*
X164371776Y-90576091D01*
X164371776Y-90683841D01*
X164344839Y-90764653D01*
X164264027Y-90899340D01*
X164183215Y-90980152D01*
X164048528Y-91060964D01*
X163967715Y-91087902D01*
X163859966Y-91087902D01*
X163752216Y-91034027D01*
X163698341Y-90980152D01*
X163644467Y-90872402D01*
X163644467Y-90818528D01*
X163833028Y-90629966D01*
X163940778Y-90737715D01*
X163348155Y-90629966D02*
X163913841Y-90064280D01*
X163698341Y-89848781D01*
X163617529Y-89821844D01*
X163563654Y-89821844D01*
X163482842Y-89848781D01*
X163402030Y-89929593D01*
X163375093Y-90010406D01*
X163375093Y-90064280D01*
X163402030Y-90145093D01*
X163617529Y-90360592D01*
X162486158Y-89767969D02*
X162809407Y-90091218D01*
X162647783Y-89929593D02*
X163213468Y-89363908D01*
X163186531Y-89498595D01*
X163186531Y-89606345D01*
X163213468Y-89687157D01*
X162782470Y-89040659D02*
X162782470Y-88986784D01*
X162755532Y-88905972D01*
X162620845Y-88771285D01*
X162540033Y-88744348D01*
X162486158Y-88744348D01*
X162405346Y-88771285D01*
X162351471Y-88825160D01*
X162297597Y-88932910D01*
X162297597Y-89579407D01*
X161947410Y-89229221D01*
X164010277Y-92900592D02*
X164091089Y-92927529D01*
X164171902Y-93008341D01*
X164225776Y-93116091D01*
X164225776Y-93223841D01*
X164198839Y-93304653D01*
X164118027Y-93439340D01*
X164037215Y-93520152D01*
X163902528Y-93600964D01*
X163821715Y-93627902D01*
X163713966Y-93627902D01*
X163606216Y-93574027D01*
X163552341Y-93520152D01*
X163498467Y-93412402D01*
X163498467Y-93358528D01*
X163687028Y-93169966D01*
X163794778Y-93277715D01*
X163202155Y-93169966D02*
X163767841Y-92604280D01*
X163552341Y-92388781D01*
X163471529Y-92361844D01*
X163417654Y-92361844D01*
X163336842Y-92388781D01*
X163256030Y-92469593D01*
X163229093Y-92550406D01*
X163229093Y-92604280D01*
X163256030Y-92685093D01*
X163471529Y-92900592D01*
X162340158Y-92307969D02*
X162663407Y-92631218D01*
X162501783Y-92469593D02*
X163067468Y-91903908D01*
X163040531Y-92038595D01*
X163040531Y-92146345D01*
X163067468Y-92227157D01*
X162717282Y-91553722D02*
X162367096Y-91203536D01*
X162340158Y-91607597D01*
X162259346Y-91526784D01*
X162178534Y-91499847D01*
X162124659Y-91499847D01*
X162043847Y-91526784D01*
X161909160Y-91661471D01*
X161882223Y-91742284D01*
X161882223Y-91796158D01*
X161909160Y-91876971D01*
X162070784Y-92038595D01*
X162151597Y-92065532D01*
X162205471Y-92065532D01*
X164056277Y-97980592D02*
X164137089Y-98007529D01*
X164217902Y-98088341D01*
X164271776Y-98196091D01*
X164271776Y-98303841D01*
X164244839Y-98384653D01*
X164164027Y-98519340D01*
X164083215Y-98600152D01*
X163948528Y-98680964D01*
X163867715Y-98707902D01*
X163759966Y-98707902D01*
X163652216Y-98654027D01*
X163598341Y-98600152D01*
X163544467Y-98492402D01*
X163544467Y-98438528D01*
X163733028Y-98249966D01*
X163840778Y-98357715D01*
X163248155Y-98249966D02*
X163813841Y-97684280D01*
X163598341Y-97468781D01*
X163517529Y-97441844D01*
X163463654Y-97441844D01*
X163382842Y-97468781D01*
X163302030Y-97549593D01*
X163275093Y-97630406D01*
X163275093Y-97684280D01*
X163302030Y-97765093D01*
X163517529Y-97980592D01*
X162386158Y-97387969D02*
X162709407Y-97711218D01*
X162547783Y-97549593D02*
X163113468Y-96983908D01*
X163086531Y-97118595D01*
X163086531Y-97226345D01*
X163113468Y-97307157D01*
X162278409Y-96525972D02*
X161901285Y-96903096D01*
X162628595Y-96445160D02*
X162359221Y-96983908D01*
X162009035Y-96633722D01*
X164010277Y-100520592D02*
X164091089Y-100547529D01*
X164171902Y-100628341D01*
X164225776Y-100736091D01*
X164225776Y-100843841D01*
X164198839Y-100924653D01*
X164118027Y-101059340D01*
X164037215Y-101140152D01*
X163902528Y-101220964D01*
X163821715Y-101247902D01*
X163713966Y-101247902D01*
X163606216Y-101194027D01*
X163552341Y-101140152D01*
X163498467Y-101032402D01*
X163498467Y-100978528D01*
X163687028Y-100789966D01*
X163794778Y-100897715D01*
X163202155Y-100789966D02*
X163767841Y-100224280D01*
X163552341Y-100008781D01*
X163471529Y-99981844D01*
X163417654Y-99981844D01*
X163336842Y-100008781D01*
X163256030Y-100089593D01*
X163229093Y-100170406D01*
X163229093Y-100224280D01*
X163256030Y-100305093D01*
X163471529Y-100520592D01*
X162340158Y-99927969D02*
X162663407Y-100251218D01*
X162501783Y-100089593D02*
X163067468Y-99523908D01*
X163040531Y-99658595D01*
X163040531Y-99766345D01*
X163067468Y-99847157D01*
X162394033Y-98850473D02*
X162663407Y-99119847D01*
X162420971Y-99416158D01*
X162420971Y-99362284D01*
X162394033Y-99281471D01*
X162259346Y-99146784D01*
X162178534Y-99119847D01*
X162124659Y-99119847D01*
X162043847Y-99146784D01*
X161909160Y-99281471D01*
X161882223Y-99362284D01*
X161882223Y-99416158D01*
X161909160Y-99496971D01*
X162043847Y-99631658D01*
X162124659Y-99658595D01*
X162178534Y-99658595D01*
X137902277Y-100520592D02*
X137983089Y-100547529D01*
X138063902Y-100628341D01*
X138117776Y-100736091D01*
X138117776Y-100843841D01*
X138090839Y-100924653D01*
X138010027Y-101059340D01*
X137929215Y-101140152D01*
X137794528Y-101220964D01*
X137713715Y-101247902D01*
X137605966Y-101247902D01*
X137498216Y-101194027D01*
X137444341Y-101140152D01*
X137390467Y-101032402D01*
X137390467Y-100978528D01*
X137579028Y-100789966D01*
X137686778Y-100897715D01*
X137094155Y-100789966D02*
X137659841Y-100224280D01*
X137444341Y-100008781D01*
X137363529Y-99981844D01*
X137309654Y-99981844D01*
X137228842Y-100008781D01*
X137148030Y-100089593D01*
X137121093Y-100170406D01*
X137121093Y-100224280D01*
X137148030Y-100305093D01*
X137363529Y-100520592D01*
X136232158Y-99927969D02*
X136555407Y-100251218D01*
X136393783Y-100089593D02*
X136959468Y-99523908D01*
X136932531Y-99658595D01*
X136932531Y-99766345D01*
X136959468Y-99847157D01*
X136312971Y-98877410D02*
X136420720Y-98985160D01*
X136447658Y-99065972D01*
X136447658Y-99119847D01*
X136420720Y-99254534D01*
X136339908Y-99389221D01*
X136124409Y-99604720D01*
X136043597Y-99631658D01*
X135989722Y-99631658D01*
X135908910Y-99604720D01*
X135801160Y-99496971D01*
X135774223Y-99416158D01*
X135774223Y-99362284D01*
X135801160Y-99281471D01*
X135935847Y-99146784D01*
X136016659Y-99119847D01*
X136070534Y-99119847D01*
X136151346Y-99146784D01*
X136259096Y-99254534D01*
X136286033Y-99335346D01*
X136286033Y-99389221D01*
X136259096Y-99470033D01*
X137902277Y-97980592D02*
X137983089Y-98007529D01*
X138063902Y-98088341D01*
X138117776Y-98196091D01*
X138117776Y-98303841D01*
X138090839Y-98384653D01*
X138010027Y-98519340D01*
X137929215Y-98600152D01*
X137794528Y-98680964D01*
X137713715Y-98707902D01*
X137605966Y-98707902D01*
X137498216Y-98654027D01*
X137444341Y-98600152D01*
X137390467Y-98492402D01*
X137390467Y-98438528D01*
X137579028Y-98249966D01*
X137686778Y-98357715D01*
X137094155Y-98249966D02*
X137659841Y-97684280D01*
X137444341Y-97468781D01*
X137363529Y-97441844D01*
X137309654Y-97441844D01*
X137228842Y-97468781D01*
X137148030Y-97549593D01*
X137121093Y-97630406D01*
X137121093Y-97684280D01*
X137148030Y-97765093D01*
X137363529Y-97980592D01*
X136232158Y-97387969D02*
X136555407Y-97711218D01*
X136393783Y-97549593D02*
X136959468Y-96983908D01*
X136932531Y-97118595D01*
X136932531Y-97226345D01*
X136959468Y-97307157D01*
X136609282Y-96633722D02*
X136232158Y-96256598D01*
X135908910Y-97064720D01*
X137902277Y-92900592D02*
X137983089Y-92927529D01*
X138063902Y-93008341D01*
X138117776Y-93116091D01*
X138117776Y-93223841D01*
X138090839Y-93304653D01*
X138010027Y-93439340D01*
X137929215Y-93520152D01*
X137794528Y-93600964D01*
X137713715Y-93627902D01*
X137605966Y-93627902D01*
X137498216Y-93574027D01*
X137444341Y-93520152D01*
X137390467Y-93412402D01*
X137390467Y-93358528D01*
X137579028Y-93169966D01*
X137686778Y-93277715D01*
X137094155Y-93169966D02*
X137659841Y-92604280D01*
X137444341Y-92388781D01*
X137363529Y-92361844D01*
X137309654Y-92361844D01*
X137228842Y-92388781D01*
X137148030Y-92469593D01*
X137121093Y-92550406D01*
X137121093Y-92604280D01*
X137148030Y-92685093D01*
X137363529Y-92900592D01*
X136232158Y-92307969D02*
X136555407Y-92631218D01*
X136393783Y-92469593D02*
X136959468Y-91903908D01*
X136932531Y-92038595D01*
X136932531Y-92146345D01*
X136959468Y-92227157D01*
X136232158Y-91661471D02*
X136312971Y-91688409D01*
X136366845Y-91688409D01*
X136447658Y-91661471D01*
X136474595Y-91634534D01*
X136501532Y-91553722D01*
X136501532Y-91499847D01*
X136474595Y-91419035D01*
X136366845Y-91311285D01*
X136286033Y-91284348D01*
X136232158Y-91284348D01*
X136151346Y-91311285D01*
X136124409Y-91338223D01*
X136097471Y-91419035D01*
X136097471Y-91472910D01*
X136124409Y-91553722D01*
X136232158Y-91661471D01*
X136259096Y-91742284D01*
X136259096Y-91796158D01*
X136232158Y-91876971D01*
X136124409Y-91984720D01*
X136043597Y-92011658D01*
X135989722Y-92011658D01*
X135908910Y-91984720D01*
X135801160Y-91876971D01*
X135774223Y-91796158D01*
X135774223Y-91742284D01*
X135801160Y-91661471D01*
X135908910Y-91553722D01*
X135989722Y-91526784D01*
X136043597Y-91526784D01*
X136124409Y-91553722D01*
X137902277Y-90360592D02*
X137983089Y-90387529D01*
X138063902Y-90468341D01*
X138117776Y-90576091D01*
X138117776Y-90683841D01*
X138090839Y-90764653D01*
X138010027Y-90899340D01*
X137929215Y-90980152D01*
X137794528Y-91060964D01*
X137713715Y-91087902D01*
X137605966Y-91087902D01*
X137498216Y-91034027D01*
X137444341Y-90980152D01*
X137390467Y-90872402D01*
X137390467Y-90818528D01*
X137579028Y-90629966D01*
X137686778Y-90737715D01*
X137094155Y-90629966D02*
X137659841Y-90064280D01*
X137444341Y-89848781D01*
X137363529Y-89821844D01*
X137309654Y-89821844D01*
X137228842Y-89848781D01*
X137148030Y-89929593D01*
X137121093Y-90010406D01*
X137121093Y-90064280D01*
X137148030Y-90145093D01*
X137363529Y-90360592D01*
X136232158Y-89767969D02*
X136555407Y-90091218D01*
X136393783Y-89929593D02*
X136959468Y-89363908D01*
X136932531Y-89498595D01*
X136932531Y-89606345D01*
X136959468Y-89687157D01*
X135962784Y-89498595D02*
X135855035Y-89390845D01*
X135828097Y-89310033D01*
X135828097Y-89256158D01*
X135855035Y-89121471D01*
X135935847Y-88986784D01*
X136151346Y-88771285D01*
X136232158Y-88744348D01*
X136286033Y-88744348D01*
X136366845Y-88771285D01*
X136474595Y-88879035D01*
X136501532Y-88959847D01*
X136501532Y-89013722D01*
X136474595Y-89094534D01*
X136339908Y-89229221D01*
X136259096Y-89256158D01*
X136205221Y-89256158D01*
X136124409Y-89229221D01*
X136016659Y-89121471D01*
X135989722Y-89040659D01*
X135989722Y-88986784D01*
X136016659Y-88905972D01*
X137902277Y-87820592D02*
X137983089Y-87847529D01*
X138063902Y-87928341D01*
X138117776Y-88036091D01*
X138117776Y-88143841D01*
X138090839Y-88224653D01*
X138010027Y-88359340D01*
X137929215Y-88440152D01*
X137794528Y-88520964D01*
X137713715Y-88547902D01*
X137605966Y-88547902D01*
X137498216Y-88494027D01*
X137444341Y-88440152D01*
X137390467Y-88332402D01*
X137390467Y-88278528D01*
X137579028Y-88089966D01*
X137686778Y-88197715D01*
X137094155Y-88089966D02*
X137659841Y-87524280D01*
X137444341Y-87308781D01*
X137363529Y-87281844D01*
X137309654Y-87281844D01*
X137228842Y-87308781D01*
X137148030Y-87389593D01*
X137121093Y-87470406D01*
X137121093Y-87524280D01*
X137148030Y-87605093D01*
X137363529Y-87820592D01*
X137067218Y-87039407D02*
X137067218Y-86985532D01*
X137040280Y-86904720D01*
X136905593Y-86770033D01*
X136824781Y-86743096D01*
X136770906Y-86743096D01*
X136690094Y-86770033D01*
X136636219Y-86823908D01*
X136582345Y-86931658D01*
X136582345Y-87578155D01*
X136232158Y-87227969D01*
X136447658Y-86312097D02*
X136393783Y-86258223D01*
X136312971Y-86231285D01*
X136259096Y-86231285D01*
X136178284Y-86258223D01*
X136043597Y-86339035D01*
X135908910Y-86473722D01*
X135828097Y-86608409D01*
X135801160Y-86689221D01*
X135801160Y-86743096D01*
X135828097Y-86823908D01*
X135881972Y-86877783D01*
X135962784Y-86904720D01*
X136016659Y-86904720D01*
X136097471Y-86877783D01*
X136232158Y-86796971D01*
X136366845Y-86662284D01*
X136447658Y-86527597D01*
X136474595Y-86446784D01*
X136474595Y-86392910D01*
X136447658Y-86312097D01*
X137902277Y-85290592D02*
X137983089Y-85317529D01*
X138063902Y-85398341D01*
X138117776Y-85506091D01*
X138117776Y-85613841D01*
X138090839Y-85694653D01*
X138010027Y-85829340D01*
X137929215Y-85910152D01*
X137794528Y-85990964D01*
X137713715Y-86017902D01*
X137605966Y-86017902D01*
X137498216Y-85964027D01*
X137444341Y-85910152D01*
X137390467Y-85802402D01*
X137390467Y-85748528D01*
X137579028Y-85559966D01*
X137686778Y-85667715D01*
X137094155Y-85559966D02*
X137659841Y-84994280D01*
X137444341Y-84778781D01*
X137363529Y-84751844D01*
X137309654Y-84751844D01*
X137228842Y-84778781D01*
X137148030Y-84859593D01*
X137121093Y-84940406D01*
X137121093Y-84994280D01*
X137148030Y-85075093D01*
X137363529Y-85290592D01*
X137067218Y-84509407D02*
X137067218Y-84455532D01*
X137040280Y-84374720D01*
X136905593Y-84240033D01*
X136824781Y-84213096D01*
X136770906Y-84213096D01*
X136690094Y-84240033D01*
X136636219Y-84293908D01*
X136582345Y-84401658D01*
X136582345Y-85048155D01*
X136232158Y-84697969D01*
X135693410Y-84159221D02*
X136016659Y-84482470D01*
X135855035Y-84320845D02*
X136420720Y-83755160D01*
X136393783Y-83889847D01*
X136393783Y-83997597D01*
X136420720Y-84078409D01*
X137902277Y-80200592D02*
X137983089Y-80227529D01*
X138063902Y-80308341D01*
X138117776Y-80416091D01*
X138117776Y-80523841D01*
X138090839Y-80604653D01*
X138010027Y-80739340D01*
X137929215Y-80820152D01*
X137794528Y-80900964D01*
X137713715Y-80927902D01*
X137605966Y-80927902D01*
X137498216Y-80874027D01*
X137444341Y-80820152D01*
X137390467Y-80712402D01*
X137390467Y-80658528D01*
X137579028Y-80469966D01*
X137686778Y-80577715D01*
X137094155Y-80469966D02*
X137659841Y-79904280D01*
X137444341Y-79688781D01*
X137363529Y-79661844D01*
X137309654Y-79661844D01*
X137228842Y-79688781D01*
X137148030Y-79769593D01*
X137121093Y-79850406D01*
X137121093Y-79904280D01*
X137148030Y-79985093D01*
X137363529Y-80200592D01*
X137067218Y-79419407D02*
X137067218Y-79365532D01*
X137040280Y-79284720D01*
X136905593Y-79150033D01*
X136824781Y-79123096D01*
X136770906Y-79123096D01*
X136690094Y-79150033D01*
X136636219Y-79203908D01*
X136582345Y-79311658D01*
X136582345Y-79958155D01*
X136232158Y-79607969D01*
X136528470Y-78880659D02*
X136528470Y-78826784D01*
X136501532Y-78745972D01*
X136366845Y-78611285D01*
X136286033Y-78584348D01*
X136232158Y-78584348D01*
X136151346Y-78611285D01*
X136097471Y-78665160D01*
X136043597Y-78772910D01*
X136043597Y-79419407D01*
X135693410Y-79069221D01*
X137161624Y-77943435D02*
X137619560Y-77862622D01*
X137484873Y-78266683D02*
X138050558Y-77700998D01*
X137835059Y-77485499D01*
X137754247Y-77458561D01*
X137700372Y-77458561D01*
X137619560Y-77485499D01*
X137538748Y-77566311D01*
X137511810Y-77647123D01*
X137511810Y-77700998D01*
X137538748Y-77781810D01*
X137754247Y-77997309D01*
X137484873Y-77135312D02*
X137026937Y-77593248D01*
X136946125Y-77620186D01*
X136892250Y-77620186D01*
X136811438Y-77593248D01*
X136703688Y-77485499D01*
X136676751Y-77404687D01*
X136676751Y-77350812D01*
X136703688Y-77270000D01*
X137161624Y-76812064D01*
X136326564Y-77108375D02*
X136892250Y-76542690D01*
X136003316Y-76785126D01*
X136569001Y-76219441D01*
X137902277Y-75120592D02*
X137983089Y-75147529D01*
X138063902Y-75228341D01*
X138117776Y-75336091D01*
X138117776Y-75443841D01*
X138090839Y-75524653D01*
X138010027Y-75659340D01*
X137929215Y-75740152D01*
X137794528Y-75820964D01*
X137713715Y-75847902D01*
X137605966Y-75847902D01*
X137498216Y-75794027D01*
X137444341Y-75740152D01*
X137390467Y-75632402D01*
X137390467Y-75578528D01*
X137579028Y-75389966D01*
X137686778Y-75497715D01*
X137094155Y-75389966D02*
X137659841Y-74824280D01*
X137444341Y-74608781D01*
X137363529Y-74581844D01*
X137309654Y-74581844D01*
X137228842Y-74608781D01*
X137148030Y-74689593D01*
X137121093Y-74770406D01*
X137121093Y-74824280D01*
X137148030Y-74905093D01*
X137363529Y-75120592D01*
X137067218Y-74339407D02*
X137067218Y-74285532D01*
X137040280Y-74204720D01*
X136905593Y-74070033D01*
X136824781Y-74043096D01*
X136770906Y-74043096D01*
X136690094Y-74070033D01*
X136636219Y-74123908D01*
X136582345Y-74231658D01*
X136582345Y-74878155D01*
X136232158Y-74527969D01*
X136312971Y-73477410D02*
X136420720Y-73585160D01*
X136447658Y-73665972D01*
X136447658Y-73719847D01*
X136420720Y-73854534D01*
X136339908Y-73989221D01*
X136124409Y-74204720D01*
X136043597Y-74231658D01*
X135989722Y-74231658D01*
X135908910Y-74204720D01*
X135801160Y-74096971D01*
X135774223Y-74016158D01*
X135774223Y-73962284D01*
X135801160Y-73881471D01*
X135935847Y-73746784D01*
X136016659Y-73719847D01*
X136070534Y-73719847D01*
X136151346Y-73746784D01*
X136259096Y-73854534D01*
X136286033Y-73935346D01*
X136286033Y-73989221D01*
X136259096Y-74070033D01*
X137902277Y-72590592D02*
X137983089Y-72617529D01*
X138063902Y-72698341D01*
X138117776Y-72806091D01*
X138117776Y-72913841D01*
X138090839Y-72994653D01*
X138010027Y-73129340D01*
X137929215Y-73210152D01*
X137794528Y-73290964D01*
X137713715Y-73317902D01*
X137605966Y-73317902D01*
X137498216Y-73264027D01*
X137444341Y-73210152D01*
X137390467Y-73102402D01*
X137390467Y-73048528D01*
X137579028Y-72859966D01*
X137686778Y-72967715D01*
X137094155Y-72859966D02*
X137659841Y-72294280D01*
X137444341Y-72078781D01*
X137363529Y-72051844D01*
X137309654Y-72051844D01*
X137228842Y-72078781D01*
X137148030Y-72159593D01*
X137121093Y-72240406D01*
X137121093Y-72294280D01*
X137148030Y-72375093D01*
X137363529Y-72590592D01*
X137067218Y-71809407D02*
X137067218Y-71755532D01*
X137040280Y-71674720D01*
X136905593Y-71540033D01*
X136824781Y-71513096D01*
X136770906Y-71513096D01*
X136690094Y-71540033D01*
X136636219Y-71593908D01*
X136582345Y-71701658D01*
X136582345Y-72348155D01*
X136232158Y-71997969D01*
X136609282Y-71243722D02*
X136232158Y-70866598D01*
X135908910Y-71674720D01*
X137902277Y-67246592D02*
X137983089Y-67273529D01*
X138063902Y-67354341D01*
X138117776Y-67462091D01*
X138117776Y-67569841D01*
X138090839Y-67650653D01*
X138010027Y-67785340D01*
X137929215Y-67866152D01*
X137794528Y-67946964D01*
X137713715Y-67973902D01*
X137605966Y-67973902D01*
X137498216Y-67920027D01*
X137444341Y-67866152D01*
X137390467Y-67758402D01*
X137390467Y-67704528D01*
X137579028Y-67515966D01*
X137686778Y-67623715D01*
X137094155Y-67515966D02*
X137659841Y-66950280D01*
X137444341Y-66734781D01*
X137363529Y-66707844D01*
X137309654Y-66707844D01*
X137228842Y-66734781D01*
X137148030Y-66815593D01*
X137121093Y-66896406D01*
X137121093Y-66950280D01*
X137148030Y-67031093D01*
X137363529Y-67246592D01*
X137067218Y-66465407D02*
X137067218Y-66411532D01*
X137040280Y-66330720D01*
X136905593Y-66196033D01*
X136824781Y-66169096D01*
X136770906Y-66169096D01*
X136690094Y-66196033D01*
X136636219Y-66249908D01*
X136582345Y-66357658D01*
X136582345Y-67004155D01*
X136232158Y-66653969D01*
X136232158Y-66007471D02*
X136312971Y-66034409D01*
X136366845Y-66034409D01*
X136447658Y-66007471D01*
X136474595Y-65980534D01*
X136501532Y-65899722D01*
X136501532Y-65845847D01*
X136474595Y-65765035D01*
X136366845Y-65657285D01*
X136286033Y-65630348D01*
X136232158Y-65630348D01*
X136151346Y-65657285D01*
X136124409Y-65684223D01*
X136097471Y-65765035D01*
X136097471Y-65818910D01*
X136124409Y-65899722D01*
X136232158Y-66007471D01*
X136259096Y-66088284D01*
X136259096Y-66142158D01*
X136232158Y-66222971D01*
X136124409Y-66330720D01*
X136043597Y-66357658D01*
X135989722Y-66357658D01*
X135908910Y-66330720D01*
X135801160Y-66222971D01*
X135774223Y-66142158D01*
X135774223Y-66088284D01*
X135801160Y-66007471D01*
X135908910Y-65899722D01*
X135989722Y-65872784D01*
X136043597Y-65872784D01*
X136124409Y-65899722D01*
X137845211Y-65533773D02*
X137575837Y-65264399D01*
X137737462Y-65749272D02*
X138114585Y-64995025D01*
X137360338Y-65372149D01*
X137171776Y-65183587D02*
X137737462Y-64617902D01*
X137602775Y-64483215D01*
X137495025Y-64429340D01*
X137387276Y-64429340D01*
X137306463Y-64456277D01*
X137171776Y-64537089D01*
X137090964Y-64617902D01*
X137010152Y-64752589D01*
X136983215Y-64833401D01*
X136983215Y-64941150D01*
X137037089Y-65048900D01*
X137171776Y-65183587D01*
X136336717Y-64240778D02*
X136336717Y-64294653D01*
X136390592Y-64402402D01*
X136444467Y-64456277D01*
X136552216Y-64510152D01*
X136659966Y-64510152D01*
X136740778Y-64483215D01*
X136875465Y-64402402D01*
X136956277Y-64321590D01*
X137037089Y-64186903D01*
X137064027Y-64106091D01*
X137064027Y-63998341D01*
X137010152Y-63890592D01*
X136956277Y-63836717D01*
X136848528Y-63782842D01*
X136794653Y-63782842D01*
X136121218Y-64240778D02*
X135690219Y-63809780D01*
X136255905Y-63136345D02*
X135501658Y-63513468D01*
X135878781Y-62759221D01*
X134801285Y-62813096D02*
X135259221Y-62732284D01*
X135124534Y-63136345D02*
X135690219Y-62570659D01*
X135474720Y-62355160D01*
X135393908Y-62328223D01*
X135340033Y-62328223D01*
X135259221Y-62355160D01*
X135178409Y-62435972D01*
X135151471Y-62516784D01*
X135151471Y-62570659D01*
X135178409Y-62651471D01*
X135393908Y-62866971D01*
X134855160Y-62274348D02*
X134666598Y-62085786D01*
X134289475Y-62301285D02*
X134558849Y-62570659D01*
X135124534Y-62004974D01*
X134855160Y-61735600D01*
X134154788Y-61573975D02*
X134343349Y-61762537D01*
X134047038Y-62058849D02*
X134612723Y-61493163D01*
X134343349Y-61223789D01*
X138110152Y-62490592D02*
X137759966Y-62140406D01*
X137733028Y-62544467D01*
X137652216Y-62463654D01*
X137571404Y-62436717D01*
X137517529Y-62436717D01*
X137436717Y-62463654D01*
X137302030Y-62598341D01*
X137275093Y-62679154D01*
X137275093Y-62733028D01*
X137302030Y-62813841D01*
X137463654Y-62975465D01*
X137544467Y-63002402D01*
X137598341Y-63002402D01*
X137598341Y-61978781D02*
X136844094Y-62355905D01*
X137221218Y-61601658D01*
X137086531Y-61466971D02*
X136736345Y-61116784D01*
X136709407Y-61520845D01*
X136628595Y-61440033D01*
X136547783Y-61413096D01*
X136493908Y-61413096D01*
X136413096Y-61440033D01*
X136278409Y-61574720D01*
X136251471Y-61655532D01*
X136251471Y-61709407D01*
X136278409Y-61790219D01*
X136440033Y-61951844D01*
X136520845Y-61978781D01*
X136574720Y-61978781D01*
X138077868Y-59958308D02*
X137727682Y-59608122D01*
X137700744Y-60012183D01*
X137619932Y-59931370D01*
X137539120Y-59904433D01*
X137485245Y-59904433D01*
X137404433Y-59931370D01*
X137269746Y-60066057D01*
X137242809Y-60146870D01*
X137242809Y-60200744D01*
X137269746Y-60281557D01*
X137431370Y-60443181D01*
X137512183Y-60470118D01*
X137566057Y-60470118D01*
X137566057Y-59446497D02*
X136811810Y-59823621D01*
X137188934Y-59069374D01*
X137054247Y-58934687D02*
X136704061Y-58584500D01*
X136677123Y-58988561D01*
X136596311Y-58907749D01*
X136515499Y-58880812D01*
X136461624Y-58880812D01*
X136380812Y-58907749D01*
X136246125Y-59042436D01*
X136219187Y-59123248D01*
X136219187Y-59177123D01*
X136246125Y-59257935D01*
X136407749Y-59419560D01*
X136488561Y-59446497D01*
X136542436Y-59446497D01*
X135976751Y-59096311D02*
X135545752Y-58665312D01*
X135761251Y-58180439D02*
X135572690Y-57991877D01*
X135195566Y-58207377D02*
X135464940Y-58476751D01*
X136030625Y-57911065D01*
X135761251Y-57641691D01*
X134953129Y-57964940D02*
X135518815Y-57399255D01*
X134629881Y-57641691D01*
X135195566Y-57076006D01*
X138079526Y-55069966D02*
X137325279Y-55447089D01*
X137702402Y-54692842D01*
X137002030Y-55069966D02*
X136894280Y-55016091D01*
X136759593Y-54881404D01*
X136732656Y-54800592D01*
X136732656Y-54746717D01*
X136759593Y-54665905D01*
X136813468Y-54612030D01*
X136894280Y-54585093D01*
X136948155Y-54585093D01*
X137028967Y-54612030D01*
X137163654Y-54692842D01*
X137244467Y-54719780D01*
X137298341Y-54719780D01*
X137379154Y-54692842D01*
X137433028Y-54638967D01*
X137459966Y-54558155D01*
X137459966Y-54504280D01*
X137433028Y-54423468D01*
X137298341Y-54288781D01*
X137190592Y-54234906D01*
X136571032Y-54154094D02*
X136301658Y-54423468D01*
X137055905Y-54046345D02*
X136571032Y-54154094D01*
X136678781Y-53669221D01*
X135978409Y-54046345D02*
X135870659Y-53992470D01*
X135735972Y-53857783D01*
X135709035Y-53776971D01*
X135709035Y-53723096D01*
X135735972Y-53642284D01*
X135789847Y-53588409D01*
X135870659Y-53561471D01*
X135924534Y-53561471D01*
X136005346Y-53588409D01*
X136140033Y-53669221D01*
X136220845Y-53696158D01*
X136274720Y-53696158D01*
X136355532Y-53669221D01*
X136409407Y-53615346D01*
X136436345Y-53534534D01*
X136436345Y-53480659D01*
X136409407Y-53399847D01*
X136274720Y-53265160D01*
X136166971Y-53211285D01*
X138046870Y-52527309D02*
X137292622Y-52904433D01*
X137669746Y-52150186D01*
X137023248Y-52042436D02*
X136915499Y-51988561D01*
X136861624Y-51988561D01*
X136780812Y-52015499D01*
X136700000Y-52096311D01*
X136673062Y-52177123D01*
X136673062Y-52230998D01*
X136700000Y-52311810D01*
X136915499Y-52527309D01*
X137481184Y-51961624D01*
X137292622Y-51773062D01*
X137211810Y-51746125D01*
X137157935Y-51746125D01*
X137077123Y-51773062D01*
X137023248Y-51826937D01*
X136996311Y-51907749D01*
X136996311Y-51961624D01*
X137023248Y-52042436D01*
X137211810Y-52230998D01*
X136915499Y-51395938D02*
X136457563Y-51853874D01*
X136376751Y-51880812D01*
X136322876Y-51880812D01*
X136242064Y-51853874D01*
X136134314Y-51746125D01*
X136107377Y-51665312D01*
X136107377Y-51611438D01*
X136134314Y-51530625D01*
X136592250Y-51072690D01*
X135811065Y-51369001D02*
X135703316Y-51315126D01*
X135568629Y-51180439D01*
X135541691Y-51099627D01*
X135541691Y-51045752D01*
X135568629Y-50964940D01*
X135622503Y-50911065D01*
X135703316Y-50884128D01*
X135757190Y-50884128D01*
X135838003Y-50911065D01*
X135972690Y-50991877D01*
X136053502Y-51018815D01*
X136107377Y-51018815D01*
X136188189Y-50991877D01*
X136242064Y-50938003D01*
X136269001Y-50857190D01*
X136269001Y-50803316D01*
X136242064Y-50722503D01*
X136107377Y-50587816D01*
X135999627Y-50533942D01*
X163513841Y-57098155D02*
X163594653Y-57125093D01*
X163675465Y-57205905D01*
X163729340Y-57313654D01*
X163729340Y-57421404D01*
X163702402Y-57502216D01*
X163621590Y-57636903D01*
X163540778Y-57717715D01*
X163406091Y-57798528D01*
X163325279Y-57825465D01*
X163217529Y-57825465D01*
X163109780Y-57771590D01*
X163055905Y-57717715D01*
X163002030Y-57609966D01*
X163002030Y-57556091D01*
X163190592Y-57367529D01*
X163298341Y-57475279D01*
X162705719Y-57367529D02*
X163271404Y-56801844D01*
X162382470Y-57044280D01*
X162948155Y-56478595D01*
X162113096Y-56774906D02*
X162678781Y-56209221D01*
X162544094Y-56074534D01*
X162436345Y-56020659D01*
X162328595Y-56020659D01*
X162247783Y-56047597D01*
X162113096Y-56128409D01*
X162032284Y-56209221D01*
X161951471Y-56343908D01*
X161924534Y-56424720D01*
X161924534Y-56532470D01*
X161978409Y-56640219D01*
X162113096Y-56774906D01*
X163513841Y-69798155D02*
X163594653Y-69825093D01*
X163675465Y-69905905D01*
X163729340Y-70013654D01*
X163729340Y-70121404D01*
X163702402Y-70202216D01*
X163621590Y-70336903D01*
X163540778Y-70417715D01*
X163406091Y-70498528D01*
X163325279Y-70525465D01*
X163217529Y-70525465D01*
X163109780Y-70471590D01*
X163055905Y-70417715D01*
X163002030Y-70309966D01*
X163002030Y-70256091D01*
X163190592Y-70067529D01*
X163298341Y-70175279D01*
X162705719Y-70067529D02*
X163271404Y-69501844D01*
X162382470Y-69744280D01*
X162948155Y-69178595D01*
X162113096Y-69474906D02*
X162678781Y-68909221D01*
X162544094Y-68774534D01*
X162436345Y-68720659D01*
X162328595Y-68720659D01*
X162247783Y-68747597D01*
X162113096Y-68828409D01*
X162032284Y-68909221D01*
X161951471Y-69043908D01*
X161924534Y-69124720D01*
X161924534Y-69232470D01*
X161978409Y-69340219D01*
X162113096Y-69474906D01*
X163513841Y-82498155D02*
X163594653Y-82525093D01*
X163675465Y-82605905D01*
X163729340Y-82713654D01*
X163729340Y-82821404D01*
X163702402Y-82902216D01*
X163621590Y-83036903D01*
X163540778Y-83117715D01*
X163406091Y-83198528D01*
X163325279Y-83225465D01*
X163217529Y-83225465D01*
X163109780Y-83171590D01*
X163055905Y-83117715D01*
X163002030Y-83009966D01*
X163002030Y-82956091D01*
X163190592Y-82767529D01*
X163298341Y-82875279D01*
X162705719Y-82767529D02*
X163271404Y-82201844D01*
X162382470Y-82444280D01*
X162948155Y-81878595D01*
X162113096Y-82174906D02*
X162678781Y-81609221D01*
X162544094Y-81474534D01*
X162436345Y-81420659D01*
X162328595Y-81420659D01*
X162247783Y-81447597D01*
X162113096Y-81528409D01*
X162032284Y-81609221D01*
X161951471Y-81743908D01*
X161924534Y-81824720D01*
X161924534Y-81932470D01*
X161978409Y-82040219D01*
X162113096Y-82174906D01*
X163513841Y-95198155D02*
X163594653Y-95225093D01*
X163675465Y-95305905D01*
X163729340Y-95413654D01*
X163729340Y-95521404D01*
X163702402Y-95602216D01*
X163621590Y-95736903D01*
X163540778Y-95817715D01*
X163406091Y-95898528D01*
X163325279Y-95925465D01*
X163217529Y-95925465D01*
X163109780Y-95871590D01*
X163055905Y-95817715D01*
X163002030Y-95709966D01*
X163002030Y-95656091D01*
X163190592Y-95467529D01*
X163298341Y-95575279D01*
X162705719Y-95467529D02*
X163271404Y-94901844D01*
X162382470Y-95144280D01*
X162948155Y-94578595D01*
X162113096Y-94874906D02*
X162678781Y-94309221D01*
X162544094Y-94174534D01*
X162436345Y-94120659D01*
X162328595Y-94120659D01*
X162247783Y-94147597D01*
X162113096Y-94228409D01*
X162032284Y-94309221D01*
X161951471Y-94443908D01*
X161924534Y-94524720D01*
X161924534Y-94632470D01*
X161978409Y-94740219D01*
X162113096Y-94874906D01*
X137913841Y-95198155D02*
X137994653Y-95225093D01*
X138075465Y-95305905D01*
X138129340Y-95413654D01*
X138129340Y-95521404D01*
X138102402Y-95602216D01*
X138021590Y-95736903D01*
X137940778Y-95817715D01*
X137806091Y-95898528D01*
X137725279Y-95925465D01*
X137617529Y-95925465D01*
X137509780Y-95871590D01*
X137455905Y-95817715D01*
X137402030Y-95709966D01*
X137402030Y-95656091D01*
X137590592Y-95467529D01*
X137698341Y-95575279D01*
X137105719Y-95467529D02*
X137671404Y-94901844D01*
X136782470Y-95144280D01*
X137348155Y-94578595D01*
X136513096Y-94874906D02*
X137078781Y-94309221D01*
X136944094Y-94174534D01*
X136836345Y-94120659D01*
X136728595Y-94120659D01*
X136647783Y-94147597D01*
X136513096Y-94228409D01*
X136432284Y-94309221D01*
X136351471Y-94443908D01*
X136324534Y-94524720D01*
X136324534Y-94632470D01*
X136378409Y-94740219D01*
X136513096Y-94874906D01*
X137913841Y-82498155D02*
X137994653Y-82525093D01*
X138075465Y-82605905D01*
X138129340Y-82713654D01*
X138129340Y-82821404D01*
X138102402Y-82902216D01*
X138021590Y-83036903D01*
X137940778Y-83117715D01*
X137806091Y-83198528D01*
X137725279Y-83225465D01*
X137617529Y-83225465D01*
X137509780Y-83171590D01*
X137455905Y-83117715D01*
X137402030Y-83009966D01*
X137402030Y-82956091D01*
X137590592Y-82767529D01*
X137698341Y-82875279D01*
X137105719Y-82767529D02*
X137671404Y-82201844D01*
X136782470Y-82444280D01*
X137348155Y-81878595D01*
X136513096Y-82174906D02*
X137078781Y-81609221D01*
X136944094Y-81474534D01*
X136836345Y-81420659D01*
X136728595Y-81420659D01*
X136647783Y-81447597D01*
X136513096Y-81528409D01*
X136432284Y-81609221D01*
X136351471Y-81743908D01*
X136324534Y-81824720D01*
X136324534Y-81932470D01*
X136378409Y-82040219D01*
X136513096Y-82174906D01*
X137913841Y-57098155D02*
X137994653Y-57125093D01*
X138075465Y-57205905D01*
X138129340Y-57313654D01*
X138129340Y-57421404D01*
X138102402Y-57502216D01*
X138021590Y-57636903D01*
X137940778Y-57717715D01*
X137806091Y-57798528D01*
X137725279Y-57825465D01*
X137617529Y-57825465D01*
X137509780Y-57771590D01*
X137455905Y-57717715D01*
X137402030Y-57609966D01*
X137402030Y-57556091D01*
X137590592Y-57367529D01*
X137698341Y-57475279D01*
X137105719Y-57367529D02*
X137671404Y-56801844D01*
X136782470Y-57044280D01*
X137348155Y-56478595D01*
X136513096Y-56774906D02*
X137078781Y-56209221D01*
X136944094Y-56074534D01*
X136836345Y-56020659D01*
X136728595Y-56020659D01*
X136647783Y-56047597D01*
X136513096Y-56128409D01*
X136432284Y-56209221D01*
X136351471Y-56343908D01*
X136324534Y-56424720D01*
X136324534Y-56532470D01*
X136378409Y-56640219D01*
X136513096Y-56774906D01*
X137848402Y-70740964D02*
X137579028Y-70471590D01*
X137740653Y-70956463D02*
X138117776Y-70202216D01*
X137363529Y-70579340D01*
X137417404Y-69555719D02*
X137498216Y-69582656D01*
X137579028Y-69663468D01*
X137632903Y-69771218D01*
X137632903Y-69878967D01*
X137605966Y-69959780D01*
X137525154Y-70094467D01*
X137444341Y-70175279D01*
X137309654Y-70256091D01*
X137228842Y-70283028D01*
X137121093Y-70283028D01*
X137013343Y-70229154D01*
X136959468Y-70175279D01*
X136905593Y-70067529D01*
X136905593Y-70013654D01*
X137094155Y-69825093D01*
X137201905Y-69932842D01*
X136609282Y-69825093D02*
X137174967Y-69259407D01*
X136286033Y-69501844D01*
X136851719Y-68936158D01*
X136016659Y-69232470D02*
X136582345Y-68666784D01*
X136447658Y-68532097D01*
X136339908Y-68478223D01*
X136232158Y-68478223D01*
X136151346Y-68505160D01*
X136016659Y-68585972D01*
X135935847Y-68666784D01*
X135855035Y-68801471D01*
X135828097Y-68882284D01*
X135828097Y-68990033D01*
X135881972Y-69097783D01*
X136016659Y-69232470D01*
X157509523Y-102523809D02*
X157395238Y-102561904D01*
X157204761Y-102561904D01*
X157128571Y-102523809D01*
X157090476Y-102485714D01*
X157052380Y-102409523D01*
X157052380Y-102333333D01*
X157090476Y-102257142D01*
X157128571Y-102219047D01*
X157204761Y-102180952D01*
X157357142Y-102142857D01*
X157433333Y-102104761D01*
X157471428Y-102066666D01*
X157509523Y-101990476D01*
X157509523Y-101914285D01*
X157471428Y-101838095D01*
X157433333Y-101800000D01*
X157357142Y-101761904D01*
X157166666Y-101761904D01*
X157052380Y-101800000D01*
X156785714Y-101761904D02*
X156595238Y-102561904D01*
X156442857Y-101990476D01*
X156290476Y-102561904D01*
X156100000Y-101761904D01*
X155338095Y-102485714D02*
X155376190Y-102523809D01*
X155490476Y-102561904D01*
X155566666Y-102561904D01*
X155680952Y-102523809D01*
X155757142Y-102447619D01*
X155795238Y-102371428D01*
X155833333Y-102219047D01*
X155833333Y-102104761D01*
X155795238Y-101952380D01*
X155757142Y-101876190D01*
X155680952Y-101800000D01*
X155566666Y-101761904D01*
X155490476Y-101761904D01*
X155376190Y-101800000D01*
X155338095Y-101838095D01*
X154614285Y-102561904D02*
X154995238Y-102561904D01*
X154995238Y-101761904D01*
X154347619Y-102561904D02*
X154347619Y-101761904D01*
X153890476Y-102561904D02*
X154233333Y-102104761D01*
X153890476Y-101761904D02*
X154347619Y-102219047D01*
X146095238Y-102523809D02*
X145980952Y-102561904D01*
X145790476Y-102561904D01*
X145714285Y-102523809D01*
X145676190Y-102485714D01*
X145638095Y-102409523D01*
X145638095Y-102333333D01*
X145676190Y-102257142D01*
X145714285Y-102219047D01*
X145790476Y-102180952D01*
X145942857Y-102142857D01*
X146019047Y-102104761D01*
X146057142Y-102066666D01*
X146095238Y-101990476D01*
X146095238Y-101914285D01*
X146057142Y-101838095D01*
X146019047Y-101800000D01*
X145942857Y-101761904D01*
X145752380Y-101761904D01*
X145638095Y-101800000D01*
X145371428Y-101761904D02*
X145180952Y-102561904D01*
X145028571Y-101990476D01*
X144876190Y-102561904D01*
X144685714Y-101761904D01*
X144380952Y-102561904D02*
X144380952Y-101761904D01*
X144190476Y-101761904D01*
X144076190Y-101800000D01*
X144000000Y-101876190D01*
X143961904Y-101952380D01*
X143923809Y-102104761D01*
X143923809Y-102219047D01*
X143961904Y-102371428D01*
X144000000Y-102447619D01*
X144076190Y-102523809D01*
X144190476Y-102561904D01*
X144380952Y-102561904D01*
X143580952Y-102561904D02*
X143580952Y-101761904D01*
X143047619Y-101761904D02*
X142895238Y-101761904D01*
X142819047Y-101800000D01*
X142742857Y-101876190D01*
X142704761Y-102028571D01*
X142704761Y-102295238D01*
X142742857Y-102447619D01*
X142819047Y-102523809D01*
X142895238Y-102561904D01*
X143047619Y-102561904D01*
X143123809Y-102523809D01*
X143200000Y-102447619D01*
X143238095Y-102295238D01*
X143238095Y-102028571D01*
X143200000Y-101876190D01*
X143123809Y-101800000D01*
X143047619Y-101761904D01*
%TO.C,D1*%
X58604061Y-60587891D02*
X57619253Y-60414243D01*
X57577908Y-60648721D01*
X57599997Y-60797676D01*
X57677250Y-60908005D01*
X57762772Y-60971439D01*
X57942086Y-61051410D01*
X58082773Y-61076217D01*
X58278624Y-61062398D01*
X58380684Y-61032040D01*
X58491013Y-60954787D01*
X58562716Y-60822369D01*
X58604061Y-60587891D01*
X58339454Y-62088550D02*
X58438681Y-61525803D01*
X58389068Y-61807177D02*
X57404260Y-61633528D01*
X57561485Y-61564544D01*
X57671814Y-61487291D01*
X57735247Y-61401768D01*
%TO.C,D2*%
X77604061Y-60932783D02*
X76619253Y-60759135D01*
X76577908Y-60993613D01*
X76599997Y-61142568D01*
X76677250Y-61252897D01*
X76762772Y-61316331D01*
X76942086Y-61396302D01*
X77082773Y-61421109D01*
X77278624Y-61407290D01*
X77380684Y-61376932D01*
X77491013Y-61299679D01*
X77562716Y-61167261D01*
X77604061Y-60932783D01*
X76547665Y-61713585D02*
X76492500Y-61752211D01*
X76429067Y-61837734D01*
X76387722Y-62072212D01*
X76418080Y-62174272D01*
X76456706Y-62229436D01*
X76542229Y-62292870D01*
X76636020Y-62309408D01*
X76784976Y-62287319D01*
X77446950Y-61823799D01*
X77339454Y-62433442D01*
%TO.C,D3*%
X97604061Y-60004377D02*
X96619253Y-59830729D01*
X96577908Y-60065207D01*
X96599997Y-60214162D01*
X96677250Y-60324491D01*
X96762772Y-60387925D01*
X96942086Y-60467896D01*
X97082773Y-60492703D01*
X97278624Y-60478884D01*
X97380684Y-60448526D01*
X97491013Y-60371273D01*
X97562716Y-60238855D01*
X97604061Y-60004377D01*
X96462143Y-60721745D02*
X96354646Y-61331388D01*
X96787694Y-61069270D01*
X96762887Y-61209957D01*
X96793245Y-61312017D01*
X96831871Y-61367182D01*
X96917393Y-61430616D01*
X97151871Y-61471960D01*
X97253932Y-61441603D01*
X97309096Y-61402976D01*
X97372530Y-61317454D01*
X97422144Y-61036080D01*
X97391786Y-60934020D01*
X97353159Y-60878855D01*
%TO.C,D4*%
X114890580Y-68860904D02*
X113905772Y-68687256D01*
X113864427Y-68921734D01*
X113886516Y-69070689D01*
X113963769Y-69181018D01*
X114049291Y-69244452D01*
X114228605Y-69324423D01*
X114369292Y-69349230D01*
X114565143Y-69335411D01*
X114667203Y-69305053D01*
X114777532Y-69227800D01*
X114849235Y-69095382D01*
X114890580Y-68860904D01*
X113985972Y-70152006D02*
X114642511Y-70267772D01*
X113652152Y-69851377D02*
X114396931Y-69740933D01*
X114289435Y-70350576D01*
%TO.C,D5*%
X132890580Y-78379444D02*
X131905772Y-78205796D01*
X131864427Y-78440274D01*
X131886516Y-78589229D01*
X131963769Y-78699558D01*
X132049291Y-78762992D01*
X132228605Y-78842963D01*
X132369292Y-78867770D01*
X132565143Y-78853951D01*
X132667203Y-78823593D01*
X132777532Y-78746340D01*
X132849235Y-78613922D01*
X132890580Y-78379444D01*
X131649434Y-79659559D02*
X131732124Y-79190603D01*
X132209349Y-79226397D01*
X132154184Y-79265024D01*
X132090751Y-79350546D01*
X132049406Y-79585024D01*
X132079764Y-79687084D01*
X132118390Y-79742249D01*
X132203912Y-79805683D01*
X132438390Y-79847027D01*
X132540451Y-79816670D01*
X132595615Y-79778043D01*
X132659049Y-79692521D01*
X132700394Y-79458043D01*
X132670036Y-79355983D01*
X132631409Y-79300818D01*
%TO.C,D6*%
X145604061Y-115491970D02*
X144619253Y-115318322D01*
X144577908Y-115552800D01*
X144599997Y-115701755D01*
X144677250Y-115812084D01*
X144762772Y-115875518D01*
X144942086Y-115955489D01*
X145082773Y-115980296D01*
X145278624Y-115966477D01*
X145380684Y-115936119D01*
X145491013Y-115858866D01*
X145562716Y-115726448D01*
X145604061Y-115491970D01*
X144371184Y-116725190D02*
X144404260Y-116537607D01*
X144467693Y-116452085D01*
X144522858Y-116413458D01*
X144680083Y-116344474D01*
X144875934Y-116330654D01*
X145251099Y-116396806D01*
X145336621Y-116460240D01*
X145375248Y-116515404D01*
X145405606Y-116617464D01*
X145372530Y-116805047D01*
X145309096Y-116890569D01*
X145253932Y-116929196D01*
X145151871Y-116959553D01*
X144917393Y-116918209D01*
X144831871Y-116854775D01*
X144793245Y-116799610D01*
X144762887Y-116697550D01*
X144795963Y-116509968D01*
X144859396Y-116424446D01*
X144914561Y-116385819D01*
X145016621Y-116355461D01*
%TO.C,D7*%
X179713044Y-77152733D02*
X180697852Y-76979084D01*
X180656507Y-76744606D01*
X180584805Y-76612188D01*
X180474475Y-76534935D01*
X180372415Y-76504577D01*
X180176564Y-76490758D01*
X180035877Y-76515565D01*
X179856564Y-76595536D01*
X179771041Y-76658970D01*
X179693788Y-76769299D01*
X179671699Y-76918255D01*
X179713044Y-77152733D01*
X180540742Y-76088068D02*
X180424976Y-75431529D01*
X179514589Y-76027238D01*
%TO.C,D8*%
X197426525Y-67527800D02*
X198411333Y-67354151D01*
X198369988Y-67119673D01*
X198298286Y-66987255D01*
X198187956Y-66910002D01*
X198085896Y-66879644D01*
X197890045Y-66865825D01*
X197749358Y-66890632D01*
X197570045Y-66970603D01*
X197484522Y-67034037D01*
X197407269Y-67144366D01*
X197385180Y-67293322D01*
X197426525Y-67527800D01*
X197790817Y-66303077D02*
X197854251Y-66388600D01*
X197909415Y-66427226D01*
X198011476Y-66457584D01*
X198058371Y-66449315D01*
X198143893Y-66385882D01*
X198182520Y-66330717D01*
X198212878Y-66228657D01*
X198179802Y-66041074D01*
X198116368Y-65955552D01*
X198061204Y-65916925D01*
X197959144Y-65886568D01*
X197912248Y-65894837D01*
X197826726Y-65958270D01*
X197788099Y-66013435D01*
X197757742Y-66115495D01*
X197790817Y-66303077D01*
X197760460Y-66405138D01*
X197721833Y-66460302D01*
X197636311Y-66523736D01*
X197448728Y-66556812D01*
X197346668Y-66526454D01*
X197291504Y-66487827D01*
X197228070Y-66402305D01*
X197194994Y-66214723D01*
X197225352Y-66112662D01*
X197263979Y-66057498D01*
X197349501Y-65994064D01*
X197537083Y-65960988D01*
X197639143Y-65991346D01*
X197694308Y-66029973D01*
X197757742Y-66115495D01*
%TO.C,D9*%
X215426525Y-58527800D02*
X216411333Y-58354151D01*
X216369988Y-58119673D01*
X216298286Y-57987255D01*
X216187956Y-57910002D01*
X216085896Y-57879644D01*
X215890045Y-57865825D01*
X215749358Y-57890632D01*
X215570045Y-57970603D01*
X215484522Y-58034037D01*
X215407269Y-58144366D01*
X215385180Y-58293322D01*
X215426525Y-58527800D01*
X215244608Y-57496096D02*
X215211532Y-57308514D01*
X215241890Y-57206454D01*
X215280516Y-57151289D01*
X215404665Y-57032691D01*
X215583979Y-56952719D01*
X215959144Y-56886568D01*
X216061204Y-56916925D01*
X216116368Y-56955552D01*
X216179802Y-57041074D01*
X216212878Y-57228657D01*
X216182520Y-57330717D01*
X216143893Y-57385882D01*
X216058371Y-57449315D01*
X215823893Y-57490660D01*
X215721833Y-57460302D01*
X215666668Y-57421676D01*
X215603235Y-57336153D01*
X215570159Y-57148571D01*
X215600517Y-57046511D01*
X215639143Y-56991346D01*
X215724666Y-56927913D01*
%TO.C,D10*%
X234795734Y-60996756D02*
X235780541Y-60823107D01*
X235739197Y-60588629D01*
X235667494Y-60456212D01*
X235557165Y-60378958D01*
X235455105Y-60348601D01*
X235259253Y-60334781D01*
X235118567Y-60359588D01*
X234939253Y-60439559D01*
X234853731Y-60502993D01*
X234776478Y-60613322D01*
X234754389Y-60762278D01*
X234795734Y-60996756D01*
X234531127Y-59496096D02*
X234630355Y-60058843D01*
X234580741Y-59777470D02*
X235565549Y-59603822D01*
X235441400Y-59722420D01*
X235364146Y-59832749D01*
X235333789Y-59934809D01*
X235408438Y-58712805D02*
X235391900Y-58619014D01*
X235328467Y-58533492D01*
X235273302Y-58494865D01*
X235171242Y-58464507D01*
X234975391Y-58450688D01*
X234740913Y-58492032D01*
X234561599Y-58572004D01*
X234476077Y-58635437D01*
X234437450Y-58690602D01*
X234407093Y-58792662D01*
X234423630Y-58886453D01*
X234487064Y-58971976D01*
X234542229Y-59010602D01*
X234644289Y-59040960D01*
X234840140Y-59054780D01*
X235074618Y-59013435D01*
X235253932Y-58933463D01*
X235339454Y-58870030D01*
X235378081Y-58814865D01*
X235408438Y-58712805D01*
%TO.C,D11*%
X252509215Y-58996756D02*
X253494022Y-58823107D01*
X253452678Y-58588629D01*
X253380975Y-58456212D01*
X253270646Y-58378958D01*
X253168586Y-58348601D01*
X252972734Y-58334781D01*
X252832048Y-58359588D01*
X252652734Y-58439559D01*
X252567212Y-58502993D01*
X252489959Y-58613322D01*
X252467870Y-58762278D01*
X252509215Y-58996756D01*
X252244608Y-57496096D02*
X252343836Y-58058843D01*
X252294222Y-57777470D02*
X253279030Y-57603822D01*
X253154881Y-57722420D01*
X253077627Y-57832749D01*
X253047270Y-57934809D01*
X252079229Y-56558184D02*
X252178456Y-57120931D01*
X252128843Y-56839558D02*
X253113650Y-56665910D01*
X252989501Y-56784508D01*
X252912248Y-56894837D01*
X252881890Y-56996897D01*
%TO.C,D12*%
X55686750Y-78535421D02*
X54701943Y-78361772D01*
X54660598Y-78596251D01*
X54682686Y-78745206D01*
X54759940Y-78855535D01*
X54845462Y-78918969D01*
X55024775Y-78998940D01*
X55165462Y-79023747D01*
X55361314Y-79009928D01*
X55463374Y-78979570D01*
X55573703Y-78902317D01*
X55645405Y-78769899D01*
X55686750Y-78535421D01*
X55422144Y-80036080D02*
X55521371Y-79473333D01*
X55471757Y-79754706D02*
X54486950Y-79581058D01*
X54644174Y-79512074D01*
X54754503Y-79434821D01*
X54817937Y-79349298D01*
X54464975Y-80254135D02*
X54409811Y-80292761D01*
X54346377Y-80378284D01*
X54305032Y-80612762D01*
X54335390Y-80714822D01*
X54374017Y-80769986D01*
X54459539Y-80833420D01*
X54553330Y-80849958D01*
X54702286Y-80827869D01*
X55364261Y-80364349D01*
X55256764Y-80973992D01*
%TO.C,D13*%
X74686750Y-78535421D02*
X73701943Y-78361772D01*
X73660598Y-78596251D01*
X73682686Y-78745206D01*
X73759940Y-78855535D01*
X73845462Y-78918969D01*
X74024775Y-78998940D01*
X74165462Y-79023747D01*
X74361314Y-79009928D01*
X74463374Y-78979570D01*
X74573703Y-78902317D01*
X74645405Y-78769899D01*
X74686750Y-78535421D01*
X74422144Y-80036080D02*
X74521371Y-79473333D01*
X74471757Y-79754706D02*
X73486950Y-79581058D01*
X73644174Y-79512074D01*
X73754503Y-79434821D01*
X73817937Y-79349298D01*
X73379453Y-80190701D02*
X73271957Y-80800344D01*
X73705004Y-80538226D01*
X73680197Y-80678913D01*
X73710555Y-80780973D01*
X73749182Y-80836138D01*
X73834704Y-80899572D01*
X74069182Y-80940916D01*
X74171242Y-80910559D01*
X74226407Y-80871932D01*
X74289840Y-80786410D01*
X74339454Y-80505036D01*
X74309096Y-80402976D01*
X74270470Y-80347811D01*
%TO.C,D14*%
X93686750Y-77895133D02*
X92701943Y-77721484D01*
X92660598Y-77955963D01*
X92682686Y-78104918D01*
X92759940Y-78215247D01*
X92845462Y-78278681D01*
X93024775Y-78358652D01*
X93165462Y-78383459D01*
X93361314Y-78369640D01*
X93463374Y-78339282D01*
X93573703Y-78262029D01*
X93645405Y-78129611D01*
X93686750Y-77895133D01*
X93422144Y-79395792D02*
X93521371Y-78833045D01*
X93471757Y-79114418D02*
X92486950Y-78940770D01*
X92644174Y-78871786D01*
X92754503Y-78794533D01*
X92817937Y-78709010D01*
X92616764Y-80124148D02*
X93273302Y-80239913D01*
X92282944Y-79823518D02*
X93027723Y-79713074D01*
X92920226Y-80322717D01*
%TO.C,D15*%
X111686750Y-87535421D02*
X110701943Y-87361772D01*
X110660598Y-87596251D01*
X110682686Y-87745206D01*
X110759940Y-87855535D01*
X110845462Y-87918969D01*
X111024775Y-87998940D01*
X111165462Y-88023747D01*
X111361314Y-88009928D01*
X111463374Y-87979570D01*
X111573703Y-87902317D01*
X111645405Y-87769899D01*
X111686750Y-87535421D01*
X111422144Y-89036080D02*
X111521371Y-88473333D01*
X111471757Y-88754706D02*
X110486950Y-88581058D01*
X110644174Y-88512074D01*
X110754503Y-88434821D01*
X110817937Y-88349298D01*
X110280226Y-89753448D02*
X110362915Y-89284492D01*
X110840140Y-89320286D01*
X110784976Y-89358913D01*
X110721542Y-89444435D01*
X110680197Y-89678913D01*
X110710555Y-89780973D01*
X110749182Y-89836138D01*
X110834704Y-89899572D01*
X111069182Y-89940916D01*
X111171242Y-89910559D01*
X111226407Y-89871932D01*
X111289840Y-89786410D01*
X111331185Y-89551932D01*
X111300827Y-89449872D01*
X111262201Y-89394707D01*
%TO.C,D16*%
X129686750Y-96535421D02*
X128701943Y-96361772D01*
X128660598Y-96596251D01*
X128682686Y-96745206D01*
X128759940Y-96855535D01*
X128845462Y-96918969D01*
X129024775Y-96998940D01*
X129165462Y-97023747D01*
X129361314Y-97009928D01*
X129463374Y-96979570D01*
X129573703Y-96902317D01*
X129645405Y-96769899D01*
X129686750Y-96535421D01*
X129422144Y-98036080D02*
X129521371Y-97473333D01*
X129471757Y-97754706D02*
X128486950Y-97581058D01*
X128644174Y-97512074D01*
X128754503Y-97434821D01*
X128817937Y-97349298D01*
X128288494Y-98706553D02*
X128321570Y-98518970D01*
X128385004Y-98433448D01*
X128440168Y-98394821D01*
X128597393Y-98325837D01*
X128793245Y-98312017D01*
X129168409Y-98378169D01*
X129253932Y-98441603D01*
X129292558Y-98496767D01*
X129322916Y-98598827D01*
X129289840Y-98786410D01*
X129226407Y-98871932D01*
X129171242Y-98910559D01*
X129069182Y-98940916D01*
X128834704Y-98899572D01*
X128749182Y-98836138D01*
X128710555Y-98780973D01*
X128680197Y-98678913D01*
X128713273Y-98491331D01*
X128776707Y-98405809D01*
X128831871Y-98367182D01*
X128933931Y-98336824D01*
%TO.C,D17*%
X142686750Y-133734361D02*
X141701943Y-133560712D01*
X141660598Y-133795191D01*
X141682686Y-133944146D01*
X141759940Y-134054475D01*
X141845462Y-134117909D01*
X142024775Y-134197880D01*
X142165462Y-134222687D01*
X142361314Y-134208868D01*
X142463374Y-134178510D01*
X142573703Y-134101257D01*
X142645405Y-133968839D01*
X142686750Y-133734361D01*
X142422144Y-135235020D02*
X142521371Y-134672273D01*
X142471757Y-134953646D02*
X141486950Y-134779998D01*
X141644174Y-134711014D01*
X141754503Y-134633761D01*
X141817937Y-134548238D01*
X141379453Y-135389641D02*
X141263688Y-136046180D01*
X142322916Y-135797767D01*
%TO.C,D18*%
X183509215Y-96274672D02*
X184494022Y-96101023D01*
X184452678Y-95866545D01*
X184380975Y-95734128D01*
X184270646Y-95656874D01*
X184168586Y-95626517D01*
X183972734Y-95612697D01*
X183832048Y-95637504D01*
X183652734Y-95717475D01*
X183567212Y-95780909D01*
X183489959Y-95891238D01*
X183467870Y-96040194D01*
X183509215Y-96274672D01*
X183244608Y-94774012D02*
X183343836Y-95336759D01*
X183294222Y-95055386D02*
X184279030Y-94881738D01*
X184154881Y-95000336D01*
X184077627Y-95110665D01*
X184047270Y-95212725D01*
X183708128Y-94112037D02*
X183771561Y-94197560D01*
X183826726Y-94236186D01*
X183928786Y-94266544D01*
X183975682Y-94258275D01*
X184061204Y-94194841D01*
X184099831Y-94139677D01*
X184130188Y-94037617D01*
X184097112Y-93850034D01*
X184033679Y-93764512D01*
X183978514Y-93725885D01*
X183876454Y-93695528D01*
X183829558Y-93703797D01*
X183744036Y-93767230D01*
X183705410Y-93822395D01*
X183675052Y-93924455D01*
X183708128Y-94112037D01*
X183677770Y-94214098D01*
X183639143Y-94269262D01*
X183553621Y-94332696D01*
X183366039Y-94365771D01*
X183263979Y-94335414D01*
X183208814Y-94296787D01*
X183145380Y-94211265D01*
X183112305Y-94023682D01*
X183142662Y-93921622D01*
X183181289Y-93866458D01*
X183266811Y-93803024D01*
X183454394Y-93769948D01*
X183556454Y-93800306D01*
X183611618Y-93838933D01*
X183675052Y-93924455D01*
%TO.C,D19*%
X200509215Y-86996756D02*
X201494022Y-86823107D01*
X201452678Y-86588629D01*
X201380975Y-86456212D01*
X201270646Y-86378958D01*
X201168586Y-86348601D01*
X200972734Y-86334781D01*
X200832048Y-86359588D01*
X200652734Y-86439559D01*
X200567212Y-86502993D01*
X200489959Y-86613322D01*
X200467870Y-86762278D01*
X200509215Y-86996756D01*
X200244608Y-85496096D02*
X200343836Y-86058843D01*
X200294222Y-85777470D02*
X201279030Y-85603822D01*
X201154881Y-85722420D01*
X201077627Y-85832749D01*
X201047270Y-85934809D01*
X200161918Y-85027140D02*
X200128843Y-84839558D01*
X200159200Y-84737498D01*
X200197827Y-84682333D01*
X200321976Y-84563735D01*
X200501289Y-84483763D01*
X200876454Y-84417612D01*
X200978514Y-84447969D01*
X201033679Y-84486596D01*
X201097112Y-84572118D01*
X201130188Y-84759701D01*
X201099831Y-84861761D01*
X201061204Y-84916925D01*
X200975682Y-84980359D01*
X200741204Y-85021704D01*
X200639143Y-84991346D01*
X200583979Y-84952719D01*
X200520545Y-84867197D01*
X200487469Y-84679615D01*
X200517827Y-84577555D01*
X200556454Y-84522390D01*
X200641976Y-84458957D01*
%TO.C,D20*%
X218509215Y-77996756D02*
X219494022Y-77823107D01*
X219452678Y-77588629D01*
X219380975Y-77456212D01*
X219270646Y-77378958D01*
X219168586Y-77348601D01*
X218972734Y-77334781D01*
X218832048Y-77359588D01*
X218652734Y-77439559D01*
X218567212Y-77502993D01*
X218489959Y-77613322D01*
X218467870Y-77762278D01*
X218509215Y-77996756D01*
X219234852Y-76901733D02*
X219273479Y-76846569D01*
X219303836Y-76744508D01*
X219262492Y-76510030D01*
X219199058Y-76424508D01*
X219143893Y-76385882D01*
X219041833Y-76355524D01*
X218948042Y-76372062D01*
X218815624Y-76443764D01*
X218352104Y-77105739D01*
X218244608Y-76496096D01*
X219121919Y-75712805D02*
X219105381Y-75619014D01*
X219041948Y-75533492D01*
X218986783Y-75494865D01*
X218884723Y-75464507D01*
X218688872Y-75450688D01*
X218454394Y-75492032D01*
X218275080Y-75572004D01*
X218189558Y-75635437D01*
X218150931Y-75690602D01*
X218120574Y-75792662D01*
X218137111Y-75886453D01*
X218200545Y-75971976D01*
X218255710Y-76010602D01*
X218357770Y-76040960D01*
X218553621Y-76054780D01*
X218788099Y-76013435D01*
X218967413Y-75933463D01*
X219052935Y-75870030D01*
X219091562Y-75814865D01*
X219121919Y-75712805D01*
%TO.C,D21*%
X238509215Y-79996756D02*
X239494022Y-79823107D01*
X239452678Y-79588629D01*
X239380975Y-79456212D01*
X239270646Y-79378958D01*
X239168586Y-79348601D01*
X238972734Y-79334781D01*
X238832048Y-79359588D01*
X238652734Y-79439559D01*
X238567212Y-79502993D01*
X238489959Y-79613322D01*
X238467870Y-79762278D01*
X238509215Y-79996756D01*
X239234852Y-78901733D02*
X239273479Y-78846569D01*
X239303836Y-78744508D01*
X239262492Y-78510030D01*
X239199058Y-78424508D01*
X239143893Y-78385882D01*
X239041833Y-78355524D01*
X238948042Y-78372062D01*
X238815624Y-78443764D01*
X238352104Y-79105739D01*
X238244608Y-78496096D01*
X238079229Y-77558184D02*
X238178456Y-78120931D01*
X238128843Y-77839558D02*
X239113650Y-77665910D01*
X238989501Y-77784508D01*
X238912248Y-77894837D01*
X238881890Y-77996897D01*
%TO.C,D22*%
X255795734Y-78621689D02*
X256780541Y-78448040D01*
X256739197Y-78213562D01*
X256667494Y-78081145D01*
X256557165Y-78003891D01*
X256455105Y-77973534D01*
X256259253Y-77959714D01*
X256118567Y-77984521D01*
X255939253Y-78064492D01*
X255853731Y-78127926D01*
X255776478Y-78238255D01*
X255754389Y-78387211D01*
X255795734Y-78621689D01*
X256521371Y-77526666D02*
X256559998Y-77471502D01*
X256590355Y-77369441D01*
X256549011Y-77134963D01*
X256485577Y-77049441D01*
X256430412Y-77010815D01*
X256328352Y-76980457D01*
X256234561Y-76996995D01*
X256102143Y-77068697D01*
X255638623Y-77730672D01*
X255531127Y-77121029D01*
X256355992Y-76588754D02*
X256394618Y-76533589D01*
X256424976Y-76431529D01*
X256383631Y-76197051D01*
X256320198Y-76111529D01*
X256265033Y-76072902D01*
X256162973Y-76042545D01*
X256069182Y-76059083D01*
X255936764Y-76130785D01*
X255473244Y-76792760D01*
X255365748Y-76183117D01*
%TO.C,D23*%
X51686750Y-97535421D02*
X50701943Y-97361772D01*
X50660598Y-97596251D01*
X50682686Y-97745206D01*
X50759940Y-97855535D01*
X50845462Y-97918969D01*
X51024775Y-97998940D01*
X51165462Y-98023747D01*
X51361314Y-98009928D01*
X51463374Y-97979570D01*
X51573703Y-97902317D01*
X51645405Y-97769899D01*
X51686750Y-97535421D01*
X50630355Y-98316223D02*
X50575190Y-98354849D01*
X50511756Y-98440371D01*
X50470412Y-98674849D01*
X50500769Y-98776910D01*
X50539396Y-98832074D01*
X50624918Y-98895508D01*
X50718709Y-98912046D01*
X50867665Y-98889957D01*
X51529640Y-98426437D01*
X51422144Y-99036080D01*
X50379453Y-99190701D02*
X50271957Y-99800344D01*
X50705004Y-99538226D01*
X50680197Y-99678913D01*
X50710555Y-99780973D01*
X50749182Y-99836138D01*
X50834704Y-99899572D01*
X51069182Y-99940916D01*
X51171242Y-99910559D01*
X51226407Y-99871932D01*
X51289840Y-99786410D01*
X51339454Y-99505036D01*
X51309096Y-99402976D01*
X51270470Y-99347811D01*
%TO.C,D24*%
X71686750Y-97886521D02*
X70701943Y-97712872D01*
X70660598Y-97947351D01*
X70682686Y-98096306D01*
X70759940Y-98206635D01*
X70845462Y-98270069D01*
X71024775Y-98350040D01*
X71165462Y-98374847D01*
X71361314Y-98361028D01*
X71463374Y-98330670D01*
X71573703Y-98253417D01*
X71645405Y-98120999D01*
X71686750Y-97886521D01*
X70630355Y-98667323D02*
X70575190Y-98705949D01*
X70511756Y-98791471D01*
X70470412Y-99025949D01*
X70500769Y-99128010D01*
X70539396Y-99183174D01*
X70624918Y-99246608D01*
X70718709Y-99263146D01*
X70867665Y-99241057D01*
X71529640Y-98777537D01*
X71422144Y-99387180D01*
X70616764Y-100115536D02*
X71273302Y-100231301D01*
X70282944Y-99814906D02*
X71027723Y-99704462D01*
X70920226Y-100314105D01*
%TO.C,D25*%
X90686750Y-96535421D02*
X89701943Y-96361772D01*
X89660598Y-96596251D01*
X89682686Y-96745206D01*
X89759940Y-96855535D01*
X89845462Y-96918969D01*
X90024775Y-96998940D01*
X90165462Y-97023747D01*
X90361314Y-97009928D01*
X90463374Y-96979570D01*
X90573703Y-96902317D01*
X90645405Y-96769899D01*
X90686750Y-96535421D01*
X89630355Y-97316223D02*
X89575190Y-97354849D01*
X89511756Y-97440371D01*
X89470412Y-97674849D01*
X89500769Y-97776910D01*
X89539396Y-97832074D01*
X89624918Y-97895508D01*
X89718709Y-97912046D01*
X89867665Y-97889957D01*
X90529640Y-97426437D01*
X90422144Y-98036080D01*
X89280226Y-98753448D02*
X89362915Y-98284492D01*
X89840140Y-98320286D01*
X89784976Y-98358913D01*
X89721542Y-98444435D01*
X89680197Y-98678913D01*
X89710555Y-98780973D01*
X89749182Y-98836138D01*
X89834704Y-98899572D01*
X90069182Y-98940916D01*
X90171242Y-98910559D01*
X90226407Y-98871932D01*
X90289840Y-98786410D01*
X90331185Y-98551932D01*
X90300827Y-98449872D01*
X90262201Y-98394707D01*
%TO.C,D26*%
X108686750Y-105814643D02*
X107701943Y-105640994D01*
X107660598Y-105875473D01*
X107682686Y-106024428D01*
X107759940Y-106134757D01*
X107845462Y-106198191D01*
X108024775Y-106278162D01*
X108165462Y-106302969D01*
X108361314Y-106289150D01*
X108463374Y-106258792D01*
X108573703Y-106181539D01*
X108645405Y-106049121D01*
X108686750Y-105814643D01*
X107630355Y-106595445D02*
X107575190Y-106634071D01*
X107511756Y-106719593D01*
X107470412Y-106954071D01*
X107500769Y-107056132D01*
X107539396Y-107111296D01*
X107624918Y-107174730D01*
X107718709Y-107191268D01*
X107867665Y-107169179D01*
X108529640Y-106705659D01*
X108422144Y-107315302D01*
X107288494Y-107985775D02*
X107321570Y-107798192D01*
X107385004Y-107712670D01*
X107440168Y-107674043D01*
X107597393Y-107605059D01*
X107793245Y-107591239D01*
X108168409Y-107657391D01*
X108253932Y-107720825D01*
X108292558Y-107775989D01*
X108322916Y-107878049D01*
X108289840Y-108065632D01*
X108226407Y-108151154D01*
X108171242Y-108189781D01*
X108069182Y-108220138D01*
X107834704Y-108178794D01*
X107749182Y-108115360D01*
X107710555Y-108060195D01*
X107680197Y-107958135D01*
X107713273Y-107770553D01*
X107776707Y-107685031D01*
X107831871Y-107646404D01*
X107933931Y-107616046D01*
%TO.C,D27*%
X126686750Y-114678122D02*
X125701943Y-114504473D01*
X125660598Y-114738952D01*
X125682686Y-114887907D01*
X125759940Y-114998236D01*
X125845462Y-115061670D01*
X126024775Y-115141641D01*
X126165462Y-115166448D01*
X126361314Y-115152629D01*
X126463374Y-115122271D01*
X126573703Y-115045018D01*
X126645405Y-114912600D01*
X126686750Y-114678122D01*
X125630355Y-115458924D02*
X125575190Y-115497550D01*
X125511756Y-115583072D01*
X125470412Y-115817550D01*
X125500769Y-115919611D01*
X125539396Y-115974775D01*
X125624918Y-116038209D01*
X125718709Y-116054747D01*
X125867665Y-116032658D01*
X126529640Y-115569138D01*
X126422144Y-116178781D01*
X125379453Y-116333402D02*
X125263688Y-116989941D01*
X126322916Y-116741528D01*
%TO.C,D28*%
X166795734Y-115621689D02*
X167780541Y-115448040D01*
X167739197Y-115213562D01*
X167667494Y-115081145D01*
X167557165Y-115003891D01*
X167455105Y-114973534D01*
X167259253Y-114959714D01*
X167118567Y-114984521D01*
X166939253Y-115064492D01*
X166853731Y-115127926D01*
X166776478Y-115238255D01*
X166754389Y-115387211D01*
X166795734Y-115621689D01*
X167521371Y-114526666D02*
X167559998Y-114471502D01*
X167590355Y-114369441D01*
X167549011Y-114134963D01*
X167485577Y-114049441D01*
X167430412Y-114010815D01*
X167328352Y-113980457D01*
X167234561Y-113996995D01*
X167102143Y-114068697D01*
X166638623Y-114730672D01*
X166531127Y-114121029D01*
X166994647Y-113459054D02*
X167058080Y-113544577D01*
X167113245Y-113583203D01*
X167215305Y-113613561D01*
X167262201Y-113605292D01*
X167347723Y-113541858D01*
X167386350Y-113486694D01*
X167416707Y-113384634D01*
X167383631Y-113197051D01*
X167320198Y-113111529D01*
X167265033Y-113072902D01*
X167162973Y-113042545D01*
X167116077Y-113050814D01*
X167030555Y-113114247D01*
X166991929Y-113169412D01*
X166961571Y-113271472D01*
X166994647Y-113459054D01*
X166964289Y-113561115D01*
X166925662Y-113616279D01*
X166840140Y-113679713D01*
X166652558Y-113712788D01*
X166550498Y-113682431D01*
X166495333Y-113643804D01*
X166431899Y-113558282D01*
X166398824Y-113370699D01*
X166429181Y-113268639D01*
X166467808Y-113213475D01*
X166553330Y-113150041D01*
X166740913Y-113116965D01*
X166842973Y-113147323D01*
X166898137Y-113185950D01*
X166961571Y-113271472D01*
%TO.C,D29*%
X186509215Y-114345893D02*
X187494022Y-114172244D01*
X187452678Y-113937766D01*
X187380975Y-113805349D01*
X187270646Y-113728095D01*
X187168586Y-113697738D01*
X186972734Y-113683918D01*
X186832048Y-113708725D01*
X186652734Y-113788696D01*
X186567212Y-113852130D01*
X186489959Y-113962459D01*
X186467870Y-114111415D01*
X186509215Y-114345893D01*
X187234852Y-113250870D02*
X187273479Y-113195706D01*
X187303836Y-113093645D01*
X187262492Y-112859167D01*
X187199058Y-112773645D01*
X187143893Y-112735019D01*
X187041833Y-112704661D01*
X186948042Y-112721199D01*
X186815624Y-112792901D01*
X186352104Y-113454876D01*
X186244608Y-112845233D01*
X186161918Y-112376277D02*
X186128843Y-112188695D01*
X186159200Y-112086635D01*
X186197827Y-112031470D01*
X186321976Y-111912872D01*
X186501289Y-111832900D01*
X186876454Y-111766749D01*
X186978514Y-111797106D01*
X187033679Y-111835733D01*
X187097112Y-111921255D01*
X187130188Y-112108838D01*
X187099831Y-112210898D01*
X187061204Y-112266062D01*
X186975682Y-112329496D01*
X186741204Y-112370841D01*
X186639143Y-112340483D01*
X186583979Y-112301856D01*
X186520545Y-112216334D01*
X186487469Y-112028752D01*
X186517827Y-111926692D01*
X186556454Y-111871527D01*
X186641976Y-111808094D01*
%TO.C,D30*%
X204509215Y-105996756D02*
X205494022Y-105823107D01*
X205452678Y-105588629D01*
X205380975Y-105456212D01*
X205270646Y-105378958D01*
X205168586Y-105348601D01*
X204972734Y-105334781D01*
X204832048Y-105359588D01*
X204652734Y-105439559D01*
X204567212Y-105502993D01*
X204489959Y-105613322D01*
X204467870Y-105762278D01*
X204509215Y-105996756D01*
X205336912Y-104932091D02*
X205229416Y-104322448D01*
X204912134Y-104716869D01*
X204887327Y-104576182D01*
X204823893Y-104490660D01*
X204768729Y-104452033D01*
X204666668Y-104421676D01*
X204432190Y-104463020D01*
X204346668Y-104526454D01*
X204308042Y-104581618D01*
X204277684Y-104683679D01*
X204327298Y-104965052D01*
X204390731Y-105050575D01*
X204445896Y-105089201D01*
X205121919Y-103712805D02*
X205105381Y-103619014D01*
X205041948Y-103533492D01*
X204986783Y-103494865D01*
X204884723Y-103464507D01*
X204688872Y-103450688D01*
X204454394Y-103492032D01*
X204275080Y-103572004D01*
X204189558Y-103635437D01*
X204150931Y-103690602D01*
X204120574Y-103792662D01*
X204137111Y-103886453D01*
X204200545Y-103971976D01*
X204255710Y-104010602D01*
X204357770Y-104040960D01*
X204553621Y-104054780D01*
X204788099Y-104013435D01*
X204967413Y-103933463D01*
X205052935Y-103870030D01*
X205091562Y-103814865D01*
X205121919Y-103712805D01*
%TO.C,D31*%
X222509215Y-96996756D02*
X223494022Y-96823107D01*
X223452678Y-96588629D01*
X223380975Y-96456212D01*
X223270646Y-96378958D01*
X223168586Y-96348601D01*
X222972734Y-96334781D01*
X222832048Y-96359588D01*
X222652734Y-96439559D01*
X222567212Y-96502993D01*
X222489959Y-96613322D01*
X222467870Y-96762278D01*
X222509215Y-96996756D01*
X223336912Y-95932091D02*
X223229416Y-95322448D01*
X222912134Y-95716869D01*
X222887327Y-95576182D01*
X222823893Y-95490660D01*
X222768729Y-95452033D01*
X222666668Y-95421676D01*
X222432190Y-95463020D01*
X222346668Y-95526454D01*
X222308042Y-95581618D01*
X222277684Y-95683679D01*
X222327298Y-95965052D01*
X222390731Y-96050575D01*
X222445896Y-96089201D01*
X222079229Y-94558184D02*
X222178456Y-95120931D01*
X222128843Y-94839558D02*
X223113650Y-94665910D01*
X222989501Y-94784508D01*
X222912248Y-94894837D01*
X222881890Y-94996897D01*
%TO.C,D32*%
X241509215Y-97996756D02*
X242494022Y-97823107D01*
X242452678Y-97588629D01*
X242380975Y-97456212D01*
X242270646Y-97378958D01*
X242168586Y-97348601D01*
X241972734Y-97334781D01*
X241832048Y-97359588D01*
X241652734Y-97439559D01*
X241567212Y-97502993D01*
X241489959Y-97613322D01*
X241467870Y-97762278D01*
X241509215Y-97996756D01*
X242336912Y-96932091D02*
X242229416Y-96322448D01*
X241912134Y-96716869D01*
X241887327Y-96576182D01*
X241823893Y-96490660D01*
X241768729Y-96452033D01*
X241666668Y-96421676D01*
X241432190Y-96463020D01*
X241346668Y-96526454D01*
X241308042Y-96581618D01*
X241277684Y-96683679D01*
X241327298Y-96965052D01*
X241390731Y-97050575D01*
X241445896Y-97089201D01*
X242069473Y-95963821D02*
X242108099Y-95908656D01*
X242138457Y-95806596D01*
X242097112Y-95572118D01*
X242033679Y-95486596D01*
X241978514Y-95447969D01*
X241876454Y-95417612D01*
X241782663Y-95434150D01*
X241650245Y-95505852D01*
X241186725Y-96167827D01*
X241079229Y-95558184D01*
%TO.C,D33*%
X258795734Y-97621689D02*
X259780541Y-97448040D01*
X259739197Y-97213562D01*
X259667494Y-97081145D01*
X259557165Y-97003891D01*
X259455105Y-96973534D01*
X259259253Y-96959714D01*
X259118567Y-96984521D01*
X258939253Y-97064492D01*
X258853731Y-97127926D01*
X258776478Y-97238255D01*
X258754389Y-97387211D01*
X258795734Y-97621689D01*
X259623431Y-96557024D02*
X259515935Y-95947381D01*
X259198653Y-96341802D01*
X259173846Y-96201115D01*
X259110412Y-96115593D01*
X259055248Y-96076966D01*
X258953187Y-96046609D01*
X258718709Y-96087953D01*
X258633187Y-96151387D01*
X258594561Y-96206551D01*
X258564203Y-96308612D01*
X258613817Y-96589985D01*
X258677250Y-96675508D01*
X258732415Y-96714134D01*
X259458052Y-95619112D02*
X259350556Y-95009469D01*
X259033273Y-95403890D01*
X259008467Y-95263203D01*
X258945033Y-95177681D01*
X258889868Y-95139054D01*
X258787808Y-95108696D01*
X258553330Y-95150041D01*
X258467808Y-95213475D01*
X258429181Y-95268639D01*
X258398824Y-95370699D01*
X258448437Y-95652073D01*
X258511871Y-95737595D01*
X258567035Y-95776222D01*
%TO.C,D34*%
X48686750Y-116535421D02*
X47701943Y-116361772D01*
X47660598Y-116596251D01*
X47682686Y-116745206D01*
X47759940Y-116855535D01*
X47845462Y-116918969D01*
X48024775Y-116998940D01*
X48165462Y-117023747D01*
X48361314Y-117009928D01*
X48463374Y-116979570D01*
X48573703Y-116902317D01*
X48645405Y-116769899D01*
X48686750Y-116535421D01*
X47544832Y-117252789D02*
X47437336Y-117862432D01*
X47870383Y-117600314D01*
X47845576Y-117741001D01*
X47875934Y-117843061D01*
X47914561Y-117898226D01*
X48000083Y-117961659D01*
X48234561Y-118003004D01*
X48336621Y-117972647D01*
X48391786Y-117934020D01*
X48455219Y-117848498D01*
X48504833Y-117567124D01*
X48474475Y-117465064D01*
X48435849Y-117409899D01*
X47616764Y-118764436D02*
X48273302Y-118880201D01*
X47282944Y-118463806D02*
X48027723Y-118353362D01*
X47920226Y-118963005D01*
%TO.C,D35*%
X67686750Y-116597869D02*
X66701943Y-116424220D01*
X66660598Y-116658699D01*
X66682686Y-116807654D01*
X66759940Y-116917983D01*
X66845462Y-116981417D01*
X67024775Y-117061388D01*
X67165462Y-117086195D01*
X67361314Y-117072376D01*
X67463374Y-117042018D01*
X67573703Y-116964765D01*
X67645405Y-116832347D01*
X67686750Y-116597869D01*
X66544832Y-117315237D02*
X66437336Y-117924880D01*
X66870383Y-117662762D01*
X66845576Y-117803449D01*
X66875934Y-117905509D01*
X66914561Y-117960674D01*
X67000083Y-118024107D01*
X67234561Y-118065452D01*
X67336621Y-118035095D01*
X67391786Y-117996468D01*
X67455219Y-117910946D01*
X67504833Y-117629572D01*
X67474475Y-117527512D01*
X67435849Y-117472347D01*
X66280226Y-118815896D02*
X66362915Y-118346940D01*
X66840140Y-118382734D01*
X66784976Y-118421361D01*
X66721542Y-118506883D01*
X66680197Y-118741361D01*
X66710555Y-118843421D01*
X66749182Y-118898586D01*
X66834704Y-118962020D01*
X67069182Y-119003364D01*
X67171242Y-118973007D01*
X67226407Y-118934380D01*
X67289840Y-118848858D01*
X67331185Y-118614380D01*
X67300827Y-118512320D01*
X67262201Y-118457155D01*
%TO.C,D36*%
X87686750Y-114973145D02*
X86701943Y-114799496D01*
X86660598Y-115033975D01*
X86682686Y-115182930D01*
X86759940Y-115293259D01*
X86845462Y-115356693D01*
X87024775Y-115436664D01*
X87165462Y-115461471D01*
X87361314Y-115447652D01*
X87463374Y-115417294D01*
X87573703Y-115340041D01*
X87645405Y-115207623D01*
X87686750Y-114973145D01*
X86544832Y-115690513D02*
X86437336Y-116300156D01*
X86870383Y-116038038D01*
X86845576Y-116178725D01*
X86875934Y-116280785D01*
X86914561Y-116335950D01*
X87000083Y-116399383D01*
X87234561Y-116440728D01*
X87336621Y-116410371D01*
X87391786Y-116371744D01*
X87455219Y-116286222D01*
X87504833Y-116004848D01*
X87474475Y-115902788D01*
X87435849Y-115847623D01*
X86288494Y-117144277D02*
X86321570Y-116956694D01*
X86385004Y-116871172D01*
X86440168Y-116832545D01*
X86597393Y-116763561D01*
X86793245Y-116749741D01*
X87168409Y-116815893D01*
X87253932Y-116879327D01*
X87292558Y-116934491D01*
X87322916Y-117036551D01*
X87289840Y-117224134D01*
X87226407Y-117309656D01*
X87171242Y-117348283D01*
X87069182Y-117378640D01*
X86834704Y-117337296D01*
X86749182Y-117273862D01*
X86710555Y-117218697D01*
X86680197Y-117116637D01*
X86713273Y-116929055D01*
X86776707Y-116843533D01*
X86831871Y-116804906D01*
X86933931Y-116774548D01*
%TO.C,D37*%
X104686750Y-124535421D02*
X103701943Y-124361772D01*
X103660598Y-124596251D01*
X103682686Y-124745206D01*
X103759940Y-124855535D01*
X103845462Y-124918969D01*
X104024775Y-124998940D01*
X104165462Y-125023747D01*
X104361314Y-125009928D01*
X104463374Y-124979570D01*
X104573703Y-124902317D01*
X104645405Y-124769899D01*
X104686750Y-124535421D01*
X103544832Y-125252789D02*
X103437336Y-125862432D01*
X103870383Y-125600314D01*
X103845576Y-125741001D01*
X103875934Y-125843061D01*
X103914561Y-125898226D01*
X104000083Y-125961659D01*
X104234561Y-126003004D01*
X104336621Y-125972647D01*
X104391786Y-125934020D01*
X104455219Y-125848498D01*
X104504833Y-125567124D01*
X104474475Y-125465064D01*
X104435849Y-125409899D01*
X103379453Y-126190701D02*
X103263688Y-126847240D01*
X104322916Y-126598827D01*
%TO.C,D38*%
X122686750Y-133389469D02*
X121701943Y-133215820D01*
X121660598Y-133450299D01*
X121682686Y-133599254D01*
X121759940Y-133709583D01*
X121845462Y-133773017D01*
X122024775Y-133852988D01*
X122165462Y-133877795D01*
X122361314Y-133863976D01*
X122463374Y-133833618D01*
X122573703Y-133756365D01*
X122645405Y-133623947D01*
X122686750Y-133389469D01*
X121544832Y-134106837D02*
X121437336Y-134716480D01*
X121870383Y-134454362D01*
X121845576Y-134595049D01*
X121875934Y-134697109D01*
X121914561Y-134752274D01*
X122000083Y-134815707D01*
X122234561Y-134857052D01*
X122336621Y-134826695D01*
X122391786Y-134788068D01*
X122455219Y-134702546D01*
X122504833Y-134421172D01*
X122474475Y-134319112D01*
X122435849Y-134263947D01*
X121760169Y-135353648D02*
X121729811Y-135251588D01*
X121691184Y-135196423D01*
X121605662Y-135132990D01*
X121558767Y-135124721D01*
X121456706Y-135155078D01*
X121401542Y-135193705D01*
X121338108Y-135279227D01*
X121305032Y-135466810D01*
X121335390Y-135568870D01*
X121374017Y-135624034D01*
X121459539Y-135687468D01*
X121506435Y-135695737D01*
X121608495Y-135665379D01*
X121663659Y-135626753D01*
X121727093Y-135541230D01*
X121760169Y-135353648D01*
X121823602Y-135268126D01*
X121878767Y-135229499D01*
X121980827Y-135199141D01*
X122168409Y-135232217D01*
X122253932Y-135295651D01*
X122292558Y-135350815D01*
X122322916Y-135452875D01*
X122289840Y-135640458D01*
X122226407Y-135725980D01*
X122171242Y-135764607D01*
X122069182Y-135794964D01*
X121881599Y-135761889D01*
X121796077Y-135698455D01*
X121757451Y-135643290D01*
X121727093Y-135541230D01*
%TO.C,D39*%
X170795734Y-134042258D02*
X171780541Y-133868609D01*
X171739197Y-133634131D01*
X171667494Y-133501714D01*
X171557165Y-133424460D01*
X171455105Y-133394103D01*
X171259253Y-133380283D01*
X171118567Y-133405090D01*
X170939253Y-133485061D01*
X170853731Y-133548495D01*
X170776478Y-133658824D01*
X170754389Y-133807780D01*
X170795734Y-134042258D01*
X171623431Y-132977593D02*
X171515935Y-132367950D01*
X171198653Y-132762371D01*
X171173846Y-132621684D01*
X171110412Y-132536162D01*
X171055248Y-132497535D01*
X170953187Y-132467178D01*
X170718709Y-132508522D01*
X170633187Y-132571956D01*
X170594561Y-132627120D01*
X170564203Y-132729181D01*
X170613817Y-133010554D01*
X170677250Y-133096077D01*
X170732415Y-133134703D01*
X170448437Y-132072642D02*
X170415362Y-131885060D01*
X170445719Y-131783000D01*
X170484346Y-131727835D01*
X170608495Y-131609237D01*
X170787808Y-131529265D01*
X171162973Y-131463114D01*
X171265033Y-131493471D01*
X171320198Y-131532098D01*
X171383631Y-131617620D01*
X171416707Y-131805203D01*
X171386350Y-131907263D01*
X171347723Y-131962427D01*
X171262201Y-132025861D01*
X171027723Y-132067206D01*
X170925662Y-132036848D01*
X170870498Y-131998221D01*
X170807064Y-131912699D01*
X170773988Y-131725117D01*
X170804346Y-131623057D01*
X170842973Y-131567892D01*
X170928495Y-131504459D01*
%TO.C,D40*%
X189795734Y-133697366D02*
X190780541Y-133523717D01*
X190739197Y-133289239D01*
X190667494Y-133156822D01*
X190557165Y-133079568D01*
X190455105Y-133049211D01*
X190259253Y-133035391D01*
X190118567Y-133060198D01*
X189939253Y-133140169D01*
X189853731Y-133203603D01*
X189776478Y-133313932D01*
X189754389Y-133462888D01*
X189795734Y-133697366D01*
X190204203Y-132174732D02*
X189547665Y-132290497D01*
X190620713Y-132343058D02*
X189958624Y-132701571D01*
X189851127Y-132091928D01*
X190408438Y-131413415D02*
X190391900Y-131319624D01*
X190328467Y-131234102D01*
X190273302Y-131195475D01*
X190171242Y-131165117D01*
X189975391Y-131151298D01*
X189740913Y-131192642D01*
X189561599Y-131272614D01*
X189476077Y-131336047D01*
X189437450Y-131391212D01*
X189407093Y-131493272D01*
X189423630Y-131587063D01*
X189487064Y-131672586D01*
X189542229Y-131711212D01*
X189644289Y-131741570D01*
X189840140Y-131755390D01*
X190074618Y-131714045D01*
X190253932Y-131634073D01*
X190339454Y-131570640D01*
X190378081Y-131515475D01*
X190408438Y-131413415D01*
%TO.C,D41*%
X207795734Y-124621689D02*
X208780541Y-124448040D01*
X208739197Y-124213562D01*
X208667494Y-124081145D01*
X208557165Y-124003891D01*
X208455105Y-123973534D01*
X208259253Y-123959714D01*
X208118567Y-123984521D01*
X207939253Y-124064492D01*
X207853731Y-124127926D01*
X207776478Y-124238255D01*
X207754389Y-124387211D01*
X207795734Y-124621689D01*
X208204203Y-123099055D02*
X207547665Y-123214820D01*
X208620713Y-123267381D02*
X207958624Y-123625894D01*
X207851127Y-123016251D01*
X207365748Y-122183117D02*
X207464975Y-122745864D01*
X207415362Y-122464491D02*
X208400169Y-122290843D01*
X208276020Y-122409441D01*
X208198767Y-122519770D01*
X208168409Y-122621830D01*
%TO.C,D42*%
X225509215Y-115621689D02*
X226494022Y-115448040D01*
X226452678Y-115213562D01*
X226380975Y-115081145D01*
X226270646Y-115003891D01*
X226168586Y-114973534D01*
X225972734Y-114959714D01*
X225832048Y-114984521D01*
X225652734Y-115064492D01*
X225567212Y-115127926D01*
X225489959Y-115238255D01*
X225467870Y-115387211D01*
X225509215Y-115621689D01*
X225917684Y-114099055D02*
X225261146Y-114214820D01*
X226334194Y-114267381D02*
X225672105Y-114625894D01*
X225564608Y-114016251D01*
X226069473Y-113588754D02*
X226108099Y-113533589D01*
X226138457Y-113431529D01*
X226097112Y-113197051D01*
X226033679Y-113111529D01*
X225978514Y-113072902D01*
X225876454Y-113042545D01*
X225782663Y-113059083D01*
X225650245Y-113130785D01*
X225186725Y-113792760D01*
X225079229Y-113183117D01*
%TO.C,D43*%
X244795734Y-117621689D02*
X245780541Y-117448040D01*
X245739197Y-117213562D01*
X245667494Y-117081145D01*
X245557165Y-117003891D01*
X245455105Y-116973534D01*
X245259253Y-116959714D01*
X245118567Y-116984521D01*
X244939253Y-117064492D01*
X244853731Y-117127926D01*
X244776478Y-117238255D01*
X244754389Y-117387211D01*
X244795734Y-117621689D01*
X245204203Y-116099055D02*
X244547665Y-116214820D01*
X245620713Y-116267381D02*
X244958624Y-116625894D01*
X244851127Y-116016251D01*
X245458052Y-115619112D02*
X245350556Y-115009469D01*
X245033273Y-115403890D01*
X245008467Y-115263203D01*
X244945033Y-115177681D01*
X244889868Y-115139054D01*
X244787808Y-115108696D01*
X244553330Y-115150041D01*
X244467808Y-115213475D01*
X244429181Y-115268639D01*
X244398824Y-115370699D01*
X244448437Y-115652073D01*
X244511871Y-115737595D01*
X244567035Y-115776222D01*
%TO.C,D44*%
X261795734Y-115621689D02*
X262780541Y-115448040D01*
X262739197Y-115213562D01*
X262667494Y-115081145D01*
X262557165Y-115003891D01*
X262455105Y-114973534D01*
X262259253Y-114959714D01*
X262118567Y-114984521D01*
X261939253Y-115064492D01*
X261853731Y-115127926D01*
X261776478Y-115238255D01*
X261754389Y-115387211D01*
X261795734Y-115621689D01*
X262204203Y-114099055D02*
X261547665Y-114214820D01*
X262620713Y-114267381D02*
X261958624Y-114625894D01*
X261851127Y-114016251D01*
X262038824Y-113161143D02*
X261382286Y-113276908D01*
X262455334Y-113329469D02*
X261793245Y-113687982D01*
X261685748Y-113078339D01*
%TD*%
M02*
