M48
; DRILL file {KiCad (5.1.10)-1} date 09/29/21 15:51:46
; FORMAT={-:-/ absolute / inch / decimal}
; #@! TF.CreationDate,2021-09-29T15:51:46-06:00
; #@! TF.GenerationSoftware,Kicad,Pcbnew,(5.1.10)-1
; #@! TF.FileFunction,Plated,1,2,PTH
FMAT,2
INCH
T1C0.0157
%
G90
G05
T1
X1.4173Y-4.5276
X1.4764Y-4.4291
X1.4961Y-4.252
X1.5443Y-3.7402
X1.5945Y-3.7008
X1.6535Y-3.0315
X1.6929Y-4.252
X1.7323Y-2.9528
X1.7717Y-4.4094
X1.7874Y-2.7657
X1.8701Y-2.2441
X1.8898Y-2.874
X1.9291Y-3.7008
X1.9291Y-4.252
X1.9882Y-4.5276
X2.0079Y-3.6417
X2.0472Y-2.9528
X2.0472Y-4.252
X2.1654Y-3.8386
X2.1654Y-4.5276
X2.2047Y-4.252
X2.2441Y-2.4016
X2.2441Y-2.9134
X2.2441Y-4.4488
X2.3031Y-3.0709
X2.3622Y-3.7205
X2.3622Y-3.7795
X2.3819Y-2.3031
X2.4803Y-3.0315
X2.4803Y-4.252
X2.5Y-2.9724
X2.5197Y-2.3228
X2.5197Y-4.4094
X2.5984Y-2.2047
X2.6378Y-3.7008
X2.6378Y-4.252
X2.6772Y-2.874
X2.6986Y-3.6434
X2.7165Y-4.626
X2.7559Y-4.5276
X2.7953Y-2.7323
X2.7953Y-2.9528
X2.7953Y-4.252
X2.8346Y-3.8583
X2.9528Y-4.252
X2.9921Y-2.874
X2.9921Y-3.1299
X2.9921Y-4.4488
X3.0118Y-4.3898
X3.0315Y-2.3228
X3.1102Y-2.4016
X3.1102Y-3.7402
X3.1299Y-3.6614
X3.1772Y-3.4252
X3.2283Y-2.4409
X3.2677Y-2.9134
X3.2677Y-2.9921
X3.2677Y-4.252
X3.3071Y-4.3307
X3.4055Y-2.185
X3.4252Y-4.4488
X3.4252Y-3.622
X3.4252Y-4.252
X3.4252Y-4.6063
X3.4646Y-3.5433
X3.5039Y-4.5669
X3.5433Y-2.6772
X3.5504Y-2.8632
X3.6024Y-3.8189
X3.622Y-4.252
X3.622Y-4.7244
X3.6614Y-3.0315
X3.7008Y-2.6772
X3.7008Y-2.9134
X3.7008Y-4.7441
X3.7047Y-3.6043
X3.7402Y-3.1102
X3.7795Y-2.2047
X3.7795Y-3.8976
X3.8386Y-4.0157
X3.8583Y-2.3425
X3.8583Y-2.874
X3.8917Y-3.813
X3.9764Y-3.1102
X3.9764Y-3.2874
X4.0157Y-4.7244
X4.0945Y-2.5394
X4.1339Y-4.0157
X4.1929Y-4.8622
X4.2014Y-3.8891
X4.2185Y-3.0591
X4.2525Y-3.1885
X4.3307Y-5.1575
X4.3701Y-4.0748
X4.4094Y-5.1181
X4.4291Y-3.1476
X4.4291Y-3.4055
X4.4882Y-2.6378
X4.4882Y-4.4488
X4.5276Y-4.3701
X4.5669Y-2.6378
X4.626Y-4.1811
X4.651Y-3.4656
X4.6654Y-3.6417
X4.685Y-5.0787
X4.7598Y-4.2185
X4.7835Y-2.9134
X4.8031Y-4.3701
X4.8819Y-4.2717
X4.8976Y-3.4311
X4.9016Y-5.2165
X5.0Y-3.622
X5.0Y-4.3622
X5.0197Y-4.4882
X5.0728Y-3.4587
X5.0768Y-4.2224
X5.1181Y-4.5669
X5.1378Y-5.1181
X5.1575Y-3.0709
X5.1575Y-3.5827
X5.1969Y-4.5276
X5.1969Y-5.315
X5.2559Y-4.311
X5.2795Y-3.5335
X5.2953Y-2.8346
X5.2953Y-4.4094
X5.315Y-3.378
X5.3632Y-3.6398
X5.374Y-3.4429
X5.3878Y-3.9685
X5.3976Y-3.8406
X5.4055Y-3.5512
X5.4331Y-5.0787
X5.488Y-4.8974
X5.5118Y-4.0945
X5.5512Y-4.2126
X5.6299Y-4.0551
X5.6693Y-4.5472
X5.748Y-4.1732
X5.9055Y-3.7402
X5.9449Y-2.2835
X5.9449Y-2.5984
X5.9449Y-3.3071
X6.0Y-4.311
X6.0459Y-5.273
X6.063Y-5.0531
X6.1417Y-4.4488
X6.1909Y-4.7953
X6.2205Y-5.2362
X6.2795Y-5.1969
X6.2992Y-4.1339
X6.437Y-4.7638
X6.4902Y-2.1398
X6.4921Y-2.3524
X6.4941Y-2.0354
X6.4941Y-2.4311
X6.5354Y-4.4488
X6.5467Y-4.9606
X6.5748Y-3.4646
X6.5748Y-3.7795
X6.5748Y-5.0787
X6.6142Y-4.3701
X6.6339Y-2.9724
X6.6535Y-3.0315
X6.7717Y-3.7008
X6.7913Y-5.1969
X6.811Y-3.7795
X6.8898Y-4.0157
X6.8898Y-4.4882
X6.9094Y-4.4488
X6.9685Y-2.4409
X6.9685Y-5.2308
X7.0058Y-3.4828
X7.0276Y-3.5433
X7.0276Y-5.1772
X7.1043Y-2.8346
X7.1654Y-4.3307
X7.2047Y-3.3465
X7.2441Y-5.0787
X7.2835Y-4.0945
X7.3031Y-3.5827
X7.3346Y-2.9291
X7.3425Y-2.6181
X7.3622Y-4.9606
X7.4213Y-4.3307
X7.4409Y-3.3858
X7.4606Y-3.3465
X7.4803Y-3.6614
X7.4803Y-4.8031
X7.5394Y-5.1772
X7.5591Y-3.189
X7.5984Y-4.0945
X7.6378Y-4.1732
X7.7165Y-3.2283
X7.7559Y-2.4409
X7.7559Y-2.6378
X7.7559Y-4.8228
X7.7559Y-4.9213
X7.874Y-3.9764
X7.9134Y-3.1496
X7.9528Y-2.4016
X7.9575Y-4.5425
X7.9724Y-3.248
X7.9937Y-4.722
X8.0295Y-2.5866
X8.0315Y-2.2441
X8.0709Y-3.2677
X8.1102Y-3.0315
X8.1102Y-3.8583
X8.1496Y-2.9528
X8.189Y-3.1102
X8.189Y-4.0945
X8.189Y-4.685
X8.2677Y-4.3701
X8.2677Y-4.8228
X8.3071Y-3.5039
X8.3071Y-3.7205
X8.3071Y-3.8189
X8.4252Y-4.3701
X8.4252Y-4.4488
X8.4252Y-4.5276
X8.4646Y-2.2835
X8.4646Y-2.874
X8.5433Y-3.0709
X8.5827Y-2.7165
X8.5827Y-3.622
X8.6614Y-4.0945
X8.7008Y-2.2441
X8.7008Y-4.2126
X8.7008Y-2.8346
X8.7384Y-4.3307
X8.7402Y-3.3465
X8.7795Y-2.9921
X8.7795Y-4.5276
X8.7894Y-2.6339
X8.8189Y-2.3031
X8.8583Y-3.5433
X8.937Y-2.8346
X8.937Y-3.0512
X8.937Y-3.1102
X8.9567Y-4.4685
X8.9764Y-3.3465
X9.0157Y-3.8189
X9.0748Y-3.7795
X9.0945Y-4.0945
X9.1339Y-3.6614
X9.1339Y-4.3701
X9.1725Y-2.9484
X9.1929Y-4.5276
X9.2126Y-2.3622
X9.2913Y-4.3701
X9.3196Y-3.5544
X9.3307Y-3.0709
X9.3347Y-3.6654
X9.3701Y-2.7165
X9.4094Y-3.3858
X9.4488Y-3.8583
X9.4488Y-4.3701
X9.5079Y-2.9724
X9.5079Y-3.4646
X9.5276Y-2.4016
X9.5472Y-2.3031
X9.5768Y-2.6319
X9.5866Y-3.6811
X9.6457Y-3.189
X9.6457Y-4.1732
X9.685Y-3.0315
X9.685Y-3.1102
X9.7047Y-4.4488
X9.8228Y-3.7795
X9.8425Y-3.8189
X9.8428Y-3.3068
X9.8832Y-4.3307
X9.9409Y-4.5079
X9.9606Y-2.874
X9.9606Y-3.5433
X10.0394Y-4.2913
X10.1378Y-2.9331
X10.2362Y-3.6417
X10.374Y-4.3898
T0
M30
