M48
; DRILL file {KiCad (5.1.10)-1} date 09/29/21 15:51:46
; FORMAT={-:-/ absolute / inch / decimal}
; #@! TF.CreationDate,2021-09-29T15:51:46-06:00
; #@! TF.GenerationSoftware,Kicad,Pcbnew,(5.1.10)-1
; #@! TF.FileFunction,NonPlated,1,2,NPTH
FMAT,2
INCH
T1C0.0689
T2C0.0866
T3C0.1181
T4C0.1575
%
G90
G05
T1
X1.4311Y-4.6614
X1.5609Y-3.9248
X1.6908Y-3.1881
X1.8207Y-2.4514
X1.825Y-4.7309
X1.9549Y-3.9942
X2.0848Y-3.2576
X2.1882Y-4.675
X2.2147Y-2.5209
X2.3181Y-3.9384
X2.448Y-3.2017
X2.5779Y-2.465
X2.5822Y-4.7445
X2.712Y-4.0078
X2.8419Y-3.2711
X2.9591Y-4.6111
X2.9718Y-2.5345
X3.089Y-3.8744
X3.2189Y-3.1377
X3.3488Y-2.4011
X3.353Y-4.6805
X3.4829Y-3.9438
X3.6128Y-3.2072
X3.6547Y-4.9736
X3.7427Y-2.4705
X3.7846Y-4.2369
X3.9145Y-3.5002
X4.0444Y-2.7636
X4.0486Y-5.043
X4.1785Y-4.3064
X4.3084Y-3.5697
X4.3504Y-5.3361
X4.4383Y-2.833
X4.4803Y-4.5994
X4.6102Y-3.8628
X4.7401Y-3.1261
X4.7443Y-5.4056
X4.8742Y-4.6689
X5.0041Y-3.9322
X5.1076Y-5.3497
X5.134Y-3.1956
X5.2374Y-4.613
X5.5015Y-5.4191
X5.6314Y-4.6825
X6.1797Y-4.6825
X6.3096Y-5.4191
X6.5736Y-4.613
X6.677Y-3.1956
X6.7035Y-5.3497
X6.8069Y-3.9322
X6.9368Y-4.6689
X7.0667Y-5.4056
X7.071Y-3.1261
X7.2009Y-3.8628
X7.3308Y-4.5994
X7.3727Y-2.833
X7.4607Y-5.3361
X7.5026Y-3.5697
X7.6325Y-4.3064
X7.7624Y-5.043
X7.7666Y-2.7636
X7.8965Y-3.5002
X8.0264Y-4.2369
X8.0683Y-2.4705
X8.1563Y-4.9736
X8.1982Y-3.2072
X8.3281Y-3.9438
X8.458Y-4.6805
X8.4623Y-2.4011
X8.5922Y-3.1377
X8.7221Y-3.8744
X8.8392Y-2.5345
X8.8519Y-4.6111
X8.9691Y-3.2711
X9.099Y-4.0078
X9.2289Y-4.7445
X9.2331Y-2.465
X9.363Y-3.2017
X9.4929Y-3.9384
X9.5964Y-2.5209
X9.6228Y-4.675
X9.7263Y-3.2576
X9.8562Y-3.9942
X9.9861Y-4.7309
X9.9903Y-2.4514
X10.1202Y-3.1881
X10.2501Y-3.9248
X10.38Y-4.6614
T2
X1.2205Y-5.0787
X1.4567Y-3.5433
X2.3228Y-2.126
X3.2677Y-5.4331
X4.9213Y-2.126
X5.2362Y-4.1339
X5.9055Y-5.6693
X6.5748Y-4.1339
X6.8898Y-2.126
X8.5433Y-5.4331
X9.4882Y-2.126
X10.3543Y-3.5433
X10.5906Y-5.0787
T3
X1.4948Y-4.8758
X1.6247Y-4.1391
X1.7546Y-3.4024
X1.7584Y-4.8207
X1.8845Y-2.6658
X1.8883Y-4.084
X2.0182Y-3.3474
X2.1481Y-2.6107
X2.252Y-4.8893
X2.3819Y-4.1527
X2.5118Y-3.416
X2.5155Y-4.8343
X2.6417Y-2.6793
X2.6454Y-4.0976
X2.7753Y-3.3609
X2.9052Y-2.6243
X3.0228Y-4.8254
X3.1527Y-4.0887
X3.2826Y-3.352
X3.2864Y-4.7703
X3.4125Y-2.6154
X3.4163Y-4.0336
X3.5462Y-3.297
X3.6761Y-2.5603
X3.7185Y-5.1879
X3.8484Y-4.4512
X3.9783Y-3.7146
X3.982Y-5.1328
X4.1082Y-2.9779
X4.1119Y-4.3962
X4.2418Y-3.6595
X4.3717Y-2.9228
X4.4141Y-5.5504
X4.544Y-4.8138
X4.6739Y-4.0771
X4.6777Y-5.4954
X4.8038Y-3.3404
X4.8076Y-4.7587
X4.9375Y-4.022
X5.0674Y-3.2854
X5.1713Y-5.564
X5.3012Y-4.8273
X5.4349Y-5.5089
X5.5648Y-4.7723
X6.3129Y-4.8621
X6.4428Y-5.5987
X6.5417Y-4.7202
X6.6716Y-5.4569
X6.8103Y-3.3752
X6.9401Y-4.1118
X7.0391Y-3.2333
X7.07Y-4.8485
X7.169Y-3.9699
X7.1999Y-5.5852
X7.2989Y-4.7066
X7.4288Y-5.4433
X7.5059Y-3.0126
X7.6358Y-3.7493
X7.7347Y-2.8707
X7.7657Y-4.486
X7.8646Y-3.6074
X7.8956Y-5.2226
X7.9945Y-4.3441
X8.1244Y-5.0807
X8.2016Y-2.6501
X8.3314Y-3.3868
X8.4304Y-2.5082
X8.4613Y-4.1234
X8.5603Y-3.2449
X8.5912Y-4.8601
X8.6902Y-3.9816
X8.8201Y-4.7182
X8.9724Y-2.7141
X9.1023Y-3.4507
X9.2012Y-2.5722
X9.2322Y-4.1874
X9.3311Y-3.3089
X9.3621Y-4.9241
X9.461Y-4.0455
X9.5909Y-4.7822
X9.7296Y-2.7005
X9.8595Y-3.4372
X9.9584Y-2.5586
X9.9894Y-4.1738
X10.0883Y-3.2953
X10.1193Y-4.9105
X10.2182Y-4.0319
X10.3481Y-4.7686
T4
X1.628Y-4.6962
X1.7579Y-3.9595
X1.8878Y-3.2228
X2.0177Y-2.4862
X2.3852Y-4.7098
X2.5151Y-3.9731
X2.645Y-3.2364
X2.7749Y-2.4997
X3.156Y-4.6458
X3.2859Y-3.9091
X3.4158Y-3.1725
X3.5457Y-2.4358
X3.8517Y-5.0083
X3.9816Y-4.2716
X4.1115Y-3.535
X4.2414Y-2.7983
X4.5473Y-5.3708
X4.6772Y-4.6342
X4.8071Y-3.8975
X4.937Y-3.1608
X5.3045Y-5.3844
X5.4344Y-4.6477
X6.3766Y-4.6477
X6.5065Y-5.3844
X6.874Y-3.1608
X7.0039Y-3.8975
X7.1338Y-4.6342
X7.2637Y-5.3708
X7.5697Y-2.7983
X7.6995Y-3.535
X7.8294Y-4.2716
X7.9593Y-5.0083
X8.2653Y-2.4358
X8.3952Y-3.1725
X8.5251Y-3.9091
X8.655Y-4.6458
X9.0362Y-2.4997
X9.166Y-3.2364
X9.2959Y-3.9731
X9.4258Y-4.7098
X9.7933Y-2.4862
X9.9232Y-3.2228
X10.0531Y-3.9595
X10.183Y-4.6962
T0
M30
